# MagicaVoxel @ Ephtracy

# group
o 

# material
mtllib Start Room-2.mtl
usemtl palette

# normals
vn -1 0 0
vn 1 0 0
vn 0 0 1
vn 0 0 -1
vn 0 -1 0
vn 0 1 0

# texcoords
vt 0.146484 0.5
vt 0.583984 0.5
vt 0.775391 0.5
vt 0.904297 0.5
vt 0.974609 0.5
vt 0.982422 0.5

# verts
v -12.2 0.2 2.5
v -12.2 0.2 -2.5
v -12.2 0.3 2.4
v -12.2 0.3 0.2
v -12.2 0.3 -0.2
v -12.2 0.3 -2.4
v -12.2 1.3 2.4
v -12.2 1.3 0.2
v -12.2 1.3 -0.2
v -12.2 1.3 -2.4
v -12.2 1.4 2.5
v -12.2 1.4 -2.5
v -12.2 1.5 2.5
v -12.2 1.5 -2.5
v -12.2 1.7 2.5
v -12.2 1.7 -2.5
v -12.2 1.8 2.5
v -12.2 1.8 -2.5
v -12.1 0.1 2.4
v -12.1 0.1 -2.4
v -12.1 0.2 2.4
v -12.1 0.2 -2.4
v -12.1 1.4 2.4
v -12.1 1.4 -2.4
v -12.1 1.5 2.4
v -12.1 1.5 -2.4
v -12.1 1.8 2.4
v -12.1 1.8 -2.4
v -12.1 1.9 2.4
v -12.1 1.9 -2.4
v -12 1.9 2.3
v -12 1.9 -2.3
v -12 2 2.3
v -12 2 -2.3
v -11.9 2 2.2
v -11.9 2 -0.6
v -11.9 2 -0.7
v -11.9 2 -2.2
v -11.9 2.1 2.2
v -11.9 2.1 -0.6
v -11.9 2.1 -0.7
v -11.9 2.1 -2.2
v -9.5 2 2.2
v -9.5 2 -0.6
v -9.5 2 -0.7
v -9.5 2 -2.2
v -9.5 2.1 2.2
v -9.5 2.1 -0.6
v -9.5 2.1 -0.7
v -9.5 2.1 -2.2
v -9.4 1 -0.2
v -9.4 1 -0.3
v -9.4 1.2 -0.2
v -9.4 1.2 -0.3
v -9.4 1.9 2.3
v -9.4 1.9 -2.3
v -9.4 2 2.3
v -9.4 2 -2.3
v -9.3 0.1 2.4
v -9.3 0.1 -2.4
v -9.3 0.2 2.4
v -9.3 0.2 -2.4
v -9.3 0.9 -0.1
v -9.3 0.9 -0.4
v -9.3 1 -0.2
v -9.3 1 -0.3
v -9.3 1.2 -0.2
v -9.3 1.2 -0.3
v -9.3 1.3 -0.1
v -9.3 1.3 -0.4
v -9.3 1.4 2.4
v -9.3 1.4 -2.4
v -9.3 1.5 2.4
v -9.3 1.5 -2.4
v -9.3 1.8 2.4
v -9.3 1.8 -2.4
v -9.3 1.9 2.4
v -9.3 1.9 -2.4
v -9.2 0.2 2.5
v -9.2 0.2 -2.5
v -9.2 0.3 2.4
v -9.2 0.3 -2.4
v -9.2 0.6 0.2
v -9.2 0.6 -0.7
v -9.2 0.7 0.0999999
v -9.2 0.7 -0.6
v -9.2 0.8 -2.38419e-07
v -9.2 0.8 -0.5
v -9.2 0.9 -0.1
v -9.2 0.9 -0.4
v -9.2 1.3 2.4
v -9.2 1.3 0.2
v -9.2 1.3 0.0999999
v -9.2 1.3 -2.38419e-07
v -9.2 1.3 -0.1
v -9.2 1.3 -0.4
v -9.2 1.3 -0.5
v -9.2 1.3 -0.6
v -9.2 1.3 -0.7
v -9.2 1.3 -2.4
v -9.2 1.4 2.5
v -9.2 1.4 -2.5
v -9.2 1.5 2.5
v -9.2 1.5 -2.5
v -9.2 1.7 2.5
v -9.2 1.7 -2.5
v -9.2 1.8 2.5
v -9.2 1.8 -2.5
v -12.2 0.2 2.5
v -12.2 1.4 2.5
v -12.2 1.5 2.5
v -12.2 1.7 2.5
v -12.2 1.8 2.5
v -12.1 0.3 2.5
v -12.1 1.3 2.5
v -10.8 0.3 2.5
v -10.8 1.3 2.5
v -10.6 0.3 2.5
v -10.6 1.3 2.5
v -9.3 0.3 2.5
v -9.3 1.3 2.5
v -9.2 0.2 2.5
v -9.2 1.4 2.5
v -9.2 1.5 2.5
v -9.2 1.7 2.5
v -9.2 1.8 2.5
v -12.1 0.1 2.4
v -12.1 0.2 2.4
v -12.1 1.4 2.4
v -12.1 1.5 2.4
v -12.1 1.8 2.4
v -12.1 1.9 2.4
v -9.3 0.1 2.4
v -9.3 0.2 2.4
v -9.3 1.4 2.4
v -9.3 1.5 2.4
v -9.3 1.8 2.4
v -9.3 1.9 2.4
v -12 1.9 2.3
v -12 2 2.3
v -9.4 1.9 2.3
v -9.4 2 2.3
v -11.9 2 2.2
v -11.9 2.1 2.2
v -9.5 2 2.2
v -9.5 2.1 2.2
v -9.4 1 -0.3
v -9.4 1.2 -0.3
v -9.3 1 -0.3
v -9.3 1.2 -0.3
v -9.3 0.9 -0.4
v -9.3 1.3 -0.4
v -9.2 0.9 -0.4
v -9.2 1.3 -0.4
v -11.9 2 -0.7
v -11.9 2.1 -0.7
v -9.5 2 -0.7
v -9.5 2.1 -0.7
v -9.3 0.9 -0.1
v -9.3 1.3 -0.1
v -9.2 0.9 -0.1
v -9.2 1.3 -0.1
v -9.4 1 -0.2
v -9.4 1.2 -0.2
v -9.3 1 -0.2
v -9.3 1.2 -0.2
v -11.9 2 -0.6
v -11.9 2.1 -0.6
v -9.5 2 -0.6
v -9.5 2.1 -0.6
v -11.9 2 -2.2
v -11.9 2.1 -2.2
v -9.5 2 -2.2
v -9.5 2.1 -2.2
v -12 1.9 -2.3
v -12 2 -2.3
v -9.4 1.9 -2.3
v -9.4 2 -2.3
v -12.1 0.1 -2.4
v -12.1 0.2 -2.4
v -12.1 1.4 -2.4
v -12.1 1.5 -2.4
v -12.1 1.8 -2.4
v -12.1 1.9 -2.4
v -9.3 0.1 -2.4
v -9.3 0.2 -2.4
v -9.3 1.4 -2.4
v -9.3 1.5 -2.4
v -9.3 1.8 -2.4
v -9.3 1.9 -2.4
v -12.2 0.2 -2.5
v -12.2 1.4 -2.5
v -12.2 1.5 -2.5
v -12.2 1.7 -2.5
v -12.2 1.8 -2.5
v -12.1 0.3 -2.5
v -12.1 1.3 -2.5
v -10.8 0.3 -2.5
v -10.8 1.3 -2.5
v -10.6 0.3 -2.5
v -10.6 1.3 -2.5
v -9.3 0.3 -2.5
v -9.3 1.3 -2.5
v -9.2 0.2 -2.5
v -9.2 1.4 -2.5
v -9.2 1.5 -2.5
v -9.2 1.7 -2.5
v -9.2 1.8 -2.5
v -12.1 0.1 2.4
v -9.3 0.1 2.4
v -12 0.1 2.3
v -9.4 0.1 2.3
v -12 0.1 -2.3
v -9.4 0.1 -2.3
v -12.1 0.1 -2.4
v -9.3 0.1 -2.4
v -12.2 0.2 2.5
v -9.2 0.2 2.5
v -12.1 0.2 2.4
v -9.3 0.2 2.4
v -12.1 0.2 -2.4
v -9.3 0.2 -2.4
v -12.2 0.2 -2.5
v -9.2 0.2 -2.5
v -9.4 1.2 -0.2
v -9.3 1.2 -0.2
v -9.4 1.2 -0.3
v -9.3 1.2 -0.3
v -9.3 1.3 -0.1
v -9.2 1.3 -0.1
v -9.3 1.3 -0.4
v -9.2 1.3 -0.4
v -12.2 1.5 2.5
v -9.2 1.5 2.5
v -12.1 1.5 2.4
v -9.3 1.5 2.4
v -12.1 1.5 -2.4
v -9.3 1.5 -2.4
v -12.2 1.5 -2.5
v -9.2 1.5 -2.5
v -9.3 0.9 -0.1
v -9.2 0.9 -0.1
v -9.3 0.9 -0.4
v -9.2 0.9 -0.4
v -9.4 1 -0.2
v -9.3 1 -0.2
v -9.4 1 -0.3
v -9.3 1 -0.3
v -12.2 1.4 2.5
v -9.2 1.4 2.5
v -12.1 1.4 2.4
v -9.3 1.4 2.4
v -12.1 1.4 -2.4
v -9.3 1.4 -2.4
v -12.2 1.4 -2.5
v -9.2 1.4 -2.5
v -12.2 1.8 2.5
v -9.2 1.8 2.5
v -12.1 1.8 2.4
v -9.3 1.8 2.4
v -12.1 1.8 -2.4
v -9.3 1.8 -2.4
v -12.2 1.8 -2.5
v -9.2 1.8 -2.5
v -12.1 1.9 2.4
v -9.3 1.9 2.4
v -12 1.9 2.3
v -9.4 1.9 2.3
v -12 1.9 -2.3
v -9.4 1.9 -2.3
v -12.1 1.9 -2.4
v -9.3 1.9 -2.4
v -12 2 2.3
v -9.4 2 2.3
v -11.9 2 2.2
v -9.5 2 2.2
v -11.9 2 -0.6
v -9.5 2 -0.6
v -11.9 2 -0.7
v -9.5 2 -0.7
v -11.9 2 -2.2
v -9.5 2 -2.2
v -12 2 -2.3
v -9.4 2 -2.3
v -11.9 2.1 2.2
v -9.5 2.1 2.2
v -11.8 2.1 2.1
v -9.6 2.1 2.1
v -11.8 2.1 0.2
v -10 2.1 0.2
v -11.8 2.1 0.0999999
v -11.3 2.1 0.0999999
v -11.2 2.1 0.0999999
v -10.7 2.1 0.0999999
v -10.6 2.1 0.0999999
v -10.1 2.1 0.0999999
v -11.8 2.1 -0.5
v -11.3 2.1 -0.5
v -11.2 2.1 -0.5
v -10.7 2.1 -0.5
v -10.6 2.1 -0.5
v -10.1 2.1 -0.5
v -10 2.1 -0.5
v -9.6 2.1 -0.5
v -11.9 2.1 -0.6
v -9.5 2.1 -0.6
v -11.9 2.1 -0.7
v -9.5 2.1 -0.7
v -11.8 2.1 -0.8
v -9.6 2.1 -0.8
v -11.8 2.1 -2.1
v -9.6 2.1 -2.1
v -11.9 2.1 -2.2
v -9.5 2.1 -2.2

# faces
f 3/5/1 2/5/1 1/5/1
f 4/5/1 2/5/1 3/5/1
f 5/5/1 2/5/1 4/5/1
f 6/5/1 2/5/1 5/5/1
f 7/5/1 3/5/1 1/5/1
f 7/6/1 4/6/1 3/6/1
f 8/5/1 5/5/1 4/5/1
f 8/6/1 4/6/1 7/6/1
f 9/6/1 6/6/1 5/6/1
f 9/5/1 5/5/1 8/5/1
f 10/5/1 2/5/1 6/5/1
f 10/6/1 6/6/1 9/6/1
f 11/5/1 9/5/1 8/5/1
f 11/5/1 8/5/1 7/5/1
f 11/5/1 10/5/1 9/5/1
f 11/5/1 7/5/1 1/5/1
f 12/5/1 2/5/1 10/5/1
f 12/5/1 10/5/1 11/5/1
f 15/5/1 14/5/1 13/5/1
f 16/5/1 14/5/1 15/5/1
f 17/3/1 16/3/1 15/3/1
f 18/3/1 16/3/1 17/3/1
f 21/6/1 20/6/1 19/6/1
f 22/6/1 20/6/1 21/6/1
f 25/3/1 24/3/1 23/3/1
f 26/3/1 24/3/1 25/3/1
f 29/5/1 28/5/1 27/5/1
f 30/5/1 28/5/1 29/5/1
f 33/5/1 32/5/1 31/5/1
f 34/5/1 32/5/1 33/5/1
f 39/5/1 36/5/1 35/5/1
f 40/5/1 36/5/1 39/5/1
f 41/5/1 38/5/1 37/5/1
f 42/5/1 38/5/1 41/5/1
f 43/5/2 44/5/2 47/5/2
f 47/5/2 44/5/2 48/5/2
f 45/5/2 46/5/2 49/5/2
f 49/5/2 46/5/2 50/5/2
f 51/5/2 52/5/2 53/5/2
f 53/5/2 52/5/2 54/5/2
f 55/5/2 56/5/2 57/5/2
f 57/5/2 56/5/2 58/5/2
f 59/6/2 60/6/2 61/6/2
f 61/6/2 60/6/2 62/6/2
f 63/3/2 64/3/2 65/3/2
f 65/3/2 64/3/2 66/3/2
f 63/3/2 65/3/2 67/3/2
f 66/3/2 64/3/2 68/3/2
f 63/3/2 67/3/2 69/3/2
f 67/3/2 68/3/2 69/3/2
f 68/3/2 64/3/2 70/3/2
f 69/3/2 68/3/2 70/3/2
f 71/3/2 72/3/2 73/3/2
f 73/3/2 72/3/2 74/3/2
f 75/5/2 76/5/2 77/5/2
f 77/5/2 76/5/2 78/5/2
f 79/5/2 80/5/2 81/5/2
f 81/5/2 80/5/2 82/5/2
f 81/6/2 82/6/2 83/6/2
f 83/6/2 82/6/2 84/6/2
f 83/5/2 84/5/2 85/5/2
f 85/5/2 84/5/2 86/5/2
f 85/3/2 86/3/2 87/3/2
f 87/3/2 86/3/2 88/3/2
f 87/5/2 88/5/2 89/5/2
f 89/5/2 88/5/2 90/5/2
f 79/5/2 81/5/2 91/5/2
f 81/6/2 83/6/2 91/6/2
f 83/5/2 85/5/2 92/5/2
f 91/6/2 83/6/2 92/6/2
f 85/3/2 87/3/2 93/3/2
f 92/5/2 85/5/2 93/5/2
f 87/5/2 89/5/2 94/5/2
f 93/3/2 87/3/2 94/3/2
f 94/5/2 89/5/2 95/5/2
f 90/5/2 88/5/2 96/5/2
f 88/3/2 86/3/2 97/3/2
f 96/5/2 88/5/2 97/5/2
f 86/5/2 84/5/2 98/5/2
f 97/3/2 86/3/2 98/3/2
f 84/6/2 82/6/2 99/6/2
f 98/5/2 84/5/2 99/5/2
f 82/5/2 80/5/2 100/5/2
f 99/6/2 82/6/2 100/6/2
f 94/5/2 95/5/2 101/5/2
f 98/5/2 99/5/2 101/5/2
f 99/5/2 100/5/2 101/5/2
f 92/5/2 93/5/2 101/5/2
f 93/5/2 94/5/2 101/5/2
f 95/5/2 96/5/2 101/5/2
f 91/5/2 92/5/2 101/5/2
f 96/5/2 97/5/2 101/5/2
f 79/5/2 91/5/2 101/5/2
f 97/5/2 98/5/2 101/5/2
f 100/5/2 80/5/2 102/5/2
f 101/5/2 100/5/2 102/5/2
f 103/5/2 104/5/2 105/5/2
f 105/5/2 104/5/2 106/5/2
f 105/3/2 106/3/2 107/3/2
f 107/3/2 106/3/2 108/3/2
f 114/5/3 110/5/3 109/5/3
f 115/5/3 110/5/3 114/5/3
f 116/5/3 114/5/3 109/5/3
f 116/6/3 115/6/3 114/6/3
f 117/5/3 110/5/3 115/5/3
f 117/6/3 115/6/3 116/6/3
f 118/5/3 116/5/3 109/5/3
f 118/5/3 117/5/3 116/5/3
f 119/5/3 110/5/3 117/5/3
f 119/5/3 117/5/3 118/5/3
f 120/5/3 118/5/3 109/5/3
f 120/6/3 119/6/3 118/6/3
f 121/5/3 110/5/3 119/5/3
f 121/6/3 119/6/3 120/6/3
f 122/5/3 120/5/3 109/5/3
f 122/5/3 121/5/3 120/5/3
f 123/5/3 110/5/3 121/5/3
f 123/5/3 121/5/3 122/5/3
f 124/5/3 112/5/3 111/5/3
f 125/3/3 113/3/3 112/3/3
f 125/5/3 112/5/3 124/5/3
f 126/3/3 113/3/3 125/3/3
f 133/6/3 128/6/3 127/6/3
f 134/6/3 128/6/3 133/6/3
f 135/3/3 130/3/3 129/3/3
f 136/3/3 130/3/3 135/3/3
f 137/5/3 132/5/3 131/5/3
f 138/5/3 132/5/3 137/5/3
f 141/5/3 140/5/3 139/5/3
f 142/5/3 140/5/3 141/5/3
f 145/5/3 144/5/3 143/5/3
f 146/5/3 144/5/3 145/5/3
f 149/3/3 148/3/3 147/3/3
f 150/3/3 148/3/3 149/3/3
f 153/5/3 152/5/3 151/5/3
f 154/5/3 152/5/3 153/5/3
f 157/5/3 156/5/3 155/5/3
f 158/5/3 156/5/3 157/5/3
f 159/5/4 160/5/4 161/5/4
f 161/5/4 160/5/4 162/5/4
f 163/3/4 164/3/4 165/3/4
f 165/3/4 164/3/4 166/3/4
f 167/5/4 168/5/4 169/5/4
f 169/5/4 168/5/4 170/5/4
f 171/5/4 172/5/4 173/5/4
f 173/5/4 172/5/4 174/5/4
f 175/5/4 176/5/4 177/5/4
f 177/5/4 176/5/4 178/5/4
f 179/6/4 180/6/4 185/6/4
f 185/6/4 180/6/4 186/6/4
f 181/3/4 182/3/4 187/3/4
f 187/3/4 182/3/4 188/3/4
f 183/5/4 184/5/4 189/5/4
f 189/5/4 184/5/4 190/5/4
f 191/5/4 192/5/4 196/5/4
f 196/5/4 192/5/4 197/5/4
f 191/5/4 196/5/4 198/5/4
f 196/6/4 197/6/4 198/6/4
f 197/5/4 192/5/4 199/5/4
f 198/6/4 197/6/4 199/6/4
f 191/5/4 198/5/4 200/5/4
f 198/5/4 199/5/4 200/5/4
f 199/5/4 192/5/4 201/5/4
f 200/5/4 199/5/4 201/5/4
f 191/5/4 200/5/4 202/5/4
f 200/6/4 201/6/4 202/6/4
f 201/5/4 192/5/4 203/5/4
f 202/6/4 201/6/4 203/6/4
f 191/5/4 202/5/4 204/5/4
f 202/5/4 203/5/4 204/5/4
f 203/5/4 192/5/4 205/5/4
f 204/5/4 203/5/4 205/5/4
f 193/5/4 194/5/4 206/5/4
f 194/3/4 195/3/4 207/3/4
f 206/5/4 194/5/4 207/5/4
f 207/3/4 195/3/4 208/3/4
f 211/6/5 210/6/5 209/6/5
f 212/6/5 210/6/5 211/6/5
f 213/6/5 211/6/5 209/6/5
f 213/5/5 212/5/5 211/5/5
f 214/6/5 210/6/5 212/6/5
f 214/5/5 212/5/5 213/5/5
f 215/6/5 213/6/5 209/6/5
f 215/6/5 214/6/5 213/6/5
f 216/6/5 210/6/5 214/6/5
f 216/6/5 214/6/5 215/6/5
f 219/5/5 218/5/5 217/5/5
f 220/5/5 218/5/5 219/5/5
f 221/5/5 219/5/5 217/5/5
f 222/5/5 218/5/5 220/5/5
f 223/5/5 221/5/5 217/5/5
f 223/5/5 222/5/5 221/5/5
f 224/5/5 218/5/5 222/5/5
f 224/5/5 222/5/5 223/5/5
f 227/3/5 226/3/5 225/3/5
f 228/3/5 226/3/5 227/3/5
f 231/5/5 230/5/5 229/5/5
f 232/5/5 230/5/5 231/5/5
f 235/5/5 234/5/5 233/5/5
f 236/5/5 234/5/5 235/5/5
f 237/5/5 235/5/5 233/5/5
f 238/5/5 234/5/5 236/5/5
f 239/5/5 237/5/5 233/5/5
f 239/5/5 238/5/5 237/5/5
f 240/5/5 234/5/5 238/5/5
f 240/5/5 238/5/5 239/5/5
f 241/5/6 242/5/6 243/5/6
f 243/5/6 242/5/6 244/5/6
f 245/3/6 246/3/6 247/3/6
f 247/3/6 246/3/6 248/3/6
f 249/5/6 250/5/6 251/5/6
f 251/5/6 250/5/6 252/5/6
f 249/5/6 251/5/6 253/5/6
f 252/5/6 250/5/6 254/5/6
f 249/5/6 253/5/6 255/5/6
f 253/5/6 254/5/6 255/5/6
f 254/5/6 250/5/6 256/5/6
f 255/5/6 254/5/6 256/5/6
f 257/3/6 258/3/6 259/3/6
f 259/3/6 258/3/6 260/3/6
f 257/3/6 259/3/6 261/3/6
f 260/3/6 258/3/6 262/3/6
f 257/3/6 261/3/6 263/3/6
f 261/3/6 262/3/6 263/3/6
f 262/3/6 258/3/6 264/3/6
f 263/3/6 262/3/6 264/3/6
f 265/5/6 266/5/6 267/5/6
f 267/5/6 266/5/6 268/5/6
f 265/5/6 267/5/6 269/5/6
f 268/5/6 266/5/6 270/5/6
f 265/5/6 269/5/6 271/5/6
f 269/5/6 270/5/6 271/5/6
f 270/5/6 266/5/6 272/5/6
f 271/5/6 270/5/6 272/5/6
f 273/5/6 274/5/6 275/5/6
f 275/5/6 274/5/6 276/5/6
f 273/5/6 275/5/6 277/5/6
f 276/5/6 274/5/6 278/5/6
f 273/5/6 277/5/6 279/5/6
f 277/5/6 278/5/6 279/5/6
f 278/5/6 274/5/6 280/5/6
f 279/5/6 278/5/6 280/5/6
f 273/5/6 279/5/6 281/5/6
f 280/5/6 274/5/6 282/5/6
f 273/5/6 281/5/6 283/5/6
f 281/5/6 282/5/6 283/5/6
f 282/5/6 274/5/6 284/5/6
f 283/5/6 282/5/6 284/5/6
f 285/5/6 286/5/6 287/5/6
f 287/5/6 286/5/6 288/5/6
f 285/5/6 287/5/6 289/5/6
f 287/3/6 288/3/6 289/3/6
f 289/3/6 288/3/6 290/3/6
f 285/5/6 289/5/6 291/5/6
f 289/5/6 290/5/6 291/5/6
f 291/5/6 290/5/6 292/5/6
f 292/5/6 290/5/6 293/5/6
f 293/5/6 290/5/6 294/5/6
f 294/5/6 290/5/6 295/5/6
f 295/5/6 290/5/6 296/5/6
f 285/5/6 291/5/6 297/5/6
f 291/2/6 292/2/6 297/2/6
f 292/5/6 293/5/6 298/5/6
f 297/2/6 292/2/6 298/2/6
f 293/1/6 294/1/6 299/1/6
f 298/5/6 293/5/6 299/5/6
f 294/5/6 295/5/6 300/5/6
f 299/1/6 294/1/6 300/1/6
f 295/4/6 296/4/6 301/4/6
f 300/5/6 295/5/6 301/5/6
f 296/5/6 290/5/6 302/5/6
f 301/4/6 296/4/6 302/4/6
f 290/3/6 288/3/6 303/3/6
f 302/5/6 290/5/6 303/5/6
f 288/5/6 286/5/6 304/5/6
f 303/3/6 288/3/6 304/3/6
f 302/5/6 303/5/6 305/5/6
f 301/5/6 302/5/6 305/5/6
f 303/5/6 304/5/6 305/5/6
f 298/5/6 299/5/6 305/5/6
f 297/5/6 298/5/6 305/5/6
f 285/5/6 297/5/6 305/5/6
f 299/5/6 300/5/6 305/5/6
f 300/5/6 301/5/6 305/5/6
f 304/5/6 286/5/6 306/5/6
f 305/5/6 304/5/6 306/5/6
f 307/5/6 308/5/6 309/5/6
f 309/5/6 308/5/6 310/5/6
f 307/5/6 309/5/6 311/5/6
f 309/3/6 310/3/6 311/3/6
f 310/5/6 308/5/6 312/5/6
f 311/3/6 310/3/6 312/3/6
f 307/5/6 311/5/6 313/5/6
f 311/5/6 312/5/6 313/5/6
f 312/5/6 308/5/6 314/5/6
f 313/5/6 312/5/6 314/5/6
