# MagicaVoxel @ Ephtracy

# group
o 

# material
mtllib Weapon1.mtl
usemtl palette

# normals
vn -1 0 0
vn 1 0 0
vn 0 0 1
vn 0 0 -1
vn 0 -1 0
vn 0 1 0

# texcoords
vt 0.0175781 0.5
vt 0.0214844 0.5
vt 0.595703 0.5
vt 0.658203 0.5

# verts
v -0.3 0.2 0
v -0.3 0.2 -0.1
v -0.3 0.3 0
v -0.3 0.3 -0.1
v -0.3 0.4 0
v -0.3 0.4 -0.1
v -0.3 0.6 0
v -0.3 0.6 -0.1
v -0.3 1.4 0
v -0.3 1.4 -0.1
v -0.3 1.5 0
v -0.3 1.5 -0.1
v -0.2 0.1 -0.1
v -0.2 0.1 -0.2
v -0.2 0.2 -0.1
v -0.2 0.3 0.1
v -0.2 0.3 0
v -0.2 0.3 -0.1
v -0.2 0.4 0
v -0.2 0.4 -0.1
v -0.2 0.5 -0.2
v -0.2 0.5 -0.3
v -0.2 0.6 0
v -0.2 0.6 -0.1
v -0.2 0.6 -0.2
v -0.2 0.7 0.1
v -0.2 0.7 0
v -0.2 0.7 -0.1
v -0.2 0.7 -0.2
v -0.2 0.8 0.1
v -0.2 0.8 0
v -0.2 0.8 -0.1
v -0.2 0.8 -0.2
v -0.2 0.9 0.1
v -0.2 0.9 0
v -0.2 0.9 -0.1
v -0.2 0.9 -0.2
v -0.2 1 0.1
v -0.2 1 0
v -0.2 1 -0.1
v -0.2 1 -0.2
v -0.2 1.1 0.1
v -0.2 1.1 0
v -0.2 1.1 -0.1
v -0.2 1.1 -0.2
v -0.2 1.2 0.1
v -0.2 1.2 0
v -0.2 1.2 -0.1
v -0.2 1.2 -0.2
v -0.2 1.3 0.1
v -0.2 1.3 0
v -0.2 1.3 -0.1
v -0.2 1.3 -0.2
v -0.2 1.4 0
v -0.2 1.4 -0.1
v -0.2 1.4 -0.2
v -0.2 1.4 -0.3
v -0.2 1.5 0.1
v -0.2 1.5 0
v -0.2 1.5 -0.1
v -0.2 1.5 -0.2
v -0.1 0 0
v -0.1 0 -0.1
v -0.1 0.1 -0.1
v -0.1 0.2 0
v -0.1 0.2 -0.1
v -0.1 0.2 -0.2
v -0.1 0.2 -0.3
v -0.1 0.3 -0.2
v -0.1 0.3 -0.3
v -0.1 0.4 0.4
v -0.1 0.4 0.1
v -0.1 0.4 -0.2
v -0.1 0.4 -0.3
v -0.1 0.5 0.4
v -0.1 0.5 0.2
v -0.1 0.5 -0.2
v -0.1 0.5 -0.3
v -0.1 0.6 0.2
v -0.1 0.6 0.1
v -0.1 1.1 0.2
v -0.1 1.1 0.1
v -0.1 1.2 0.1
v -0.1 1.3 0.3
v -0.1 1.3 0.2
v -0.1 1.3 0.1
v -0.1 1.4 0.3
v -0.1 1.4 0.1
v -0.1 1.5 0.3
v -0.1 1.5 0.1
v 0 0.1 -0.1
v 0 0.1 -0.2
v 0 0.2 -0.1
v 0 0.2 -0.2
v 0 0.3 0.1
v 0 0.3 0
v 0 0.4 0.1
v 0 0.4 0
v 0 0.5 0
v 0 0.5 -0.1
v 0 0.5 -0.2
v 0 0.5 -0.3
v 0 0.6 0
v 0 0.6 -0.1
v 0 0.6 -0.2
v 0 0.6 -0.3
v 0 0.7 -0.2
v 0 0.7 -0.3
v 0 0.8 -0.2
v 0 0.8 -0.3
v 0 0.9 -0.2
v 0 0.9 -0.3
v 0 1 -0.2
v 0 1 -0.3
v 0 1.1 -0.2
v 0 1.1 -0.3
v 0 1.2 -0.2
v 0 1.2 -0.3
v 0 1.3 -0.2
v 0 1.3 -0.3
v 0 1.4 0
v 0 1.4 -0.1
v 0 1.4 -0.2
v 0 1.4 -0.3
v 0 1.5 0
v 0 1.5 -0.1
v -0.1 0.1 -0.1
v -0.1 0.1 -0.2
v -0.1 0.2 -0.1
v -0.1 0.2 -0.2
v -0.1 0.3 0.1
v -0.1 0.3 0
v -0.1 0.4 0.1
v -0.1 0.4 0
v -0.1 0.5 0
v -0.1 0.5 -0.1
v -0.1 0.5 -0.2
v -0.1 0.5 -0.3
v -0.1 0.6 0
v -0.1 0.6 -0.1
v -0.1 0.6 -0.2
v -0.1 0.6 -0.3
v -0.1 0.7 -0.2
v -0.1 0.7 -0.3
v -0.1 0.8 -0.2
v -0.1 0.8 -0.3
v -0.1 0.9 -0.2
v -0.1 0.9 -0.3
v -0.1 1 -0.2
v -0.1 1 -0.3
v -0.1 1.1 -0.2
v -0.1 1.1 -0.3
v -0.1 1.2 -0.2
v -0.1 1.2 -0.3
v -0.1 1.3 -0.2
v -0.1 1.3 -0.3
v -0.1 1.4 0
v -0.1 1.4 -0.1
v -0.1 1.4 -0.2
v -0.1 1.4 -0.3
v -0.1 1.5 0
v -0.1 1.5 -0.1
v 0 0 0
v 0 0 -0.1
v 0 0.1 -0.1
v 0 0.2 0
v 0 0.2 -0.1
v 0 0.2 -0.2
v 0 0.2 -0.3
v 0 0.3 -0.2
v 0 0.3 -0.3
v 0 0.4 0.4
v 0 0.4 0.1
v 0 0.4 -0.2
v 0 0.4 -0.3
v 0 0.5 0.4
v 0 0.5 0.2
v 0 0.5 -0.2
v 0 0.5 -0.3
v 0 0.6 0.2
v 0 0.6 0.1
v 0 1.1 0.2
v 0 1.1 0.1
v 0 1.2 0.1
v 0 1.3 0.3
v 0 1.3 0.2
v 0 1.3 0.1
v 0 1.4 0.3
v 0 1.4 0.1
v 0 1.5 0.3
v 0 1.5 0.1
v 0.1 0.1 -0.1
v 0.1 0.1 -0.2
v 0.1 0.2 -0.1
v 0.1 0.3 0.1
v 0.1 0.3 0
v 0.1 0.3 -0.1
v 0.1 0.4 0
v 0.1 0.4 -0.1
v 0.1 0.5 -0.2
v 0.1 0.5 -0.3
v 0.1 0.6 0
v 0.1 0.6 -0.1
v 0.1 0.6 -0.2
v 0.1 0.7 0.1
v 0.1 0.7 0
v 0.1 0.7 -0.1
v 0.1 0.7 -0.2
v 0.1 0.8 0.1
v 0.1 0.8 0
v 0.1 0.8 -0.1
v 0.1 0.8 -0.2
v 0.1 0.9 0.1
v 0.1 0.9 0
v 0.1 0.9 -0.1
v 0.1 0.9 -0.2
v 0.1 1 0.1
v 0.1 1 0
v 0.1 1 -0.1
v 0.1 1 -0.2
v 0.1 1.1 0.1
v 0.1 1.1 0
v 0.1 1.1 -0.1
v 0.1 1.1 -0.2
v 0.1 1.2 0.1
v 0.1 1.2 0
v 0.1 1.2 -0.1
v 0.1 1.2 -0.2
v 0.1 1.3 0.1
v 0.1 1.3 0
v 0.1 1.3 -0.1
v 0.1 1.3 -0.2
v 0.1 1.4 0
v 0.1 1.4 -0.1
v 0.1 1.4 -0.2
v 0.1 1.4 -0.3
v 0.1 1.5 0.1
v 0.1 1.5 0
v 0.1 1.5 -0.1
v 0.1 1.5 -0.2
v 0.2 0.2 0
v 0.2 0.2 -0.1
v 0.2 0.3 0
v 0.2 0.3 -0.1
v 0.2 0.4 0
v 0.2 0.4 -0.1
v 0.2 0.6 0
v 0.2 0.6 -0.1
v 0.2 1.4 0
v 0.2 1.4 -0.1
v 0.2 1.5 0
v 0.2 1.5 -0.1
v -0.1 0.4 0.4
v -0.1 0.5 0.4
v 0 0.4 0.4
v 0 0.5 0.4
v -0.1 1.3 0.3
v -0.1 1.4 0.3
v -0.1 1.5 0.3
v 0 1.3 0.3
v 0 1.4 0.3
v 0 1.5 0.3
v -0.1 0.5 0.2
v -0.1 0.6 0.2
v -0.1 1.1 0.2
v -0.1 1.3 0.2
v 0 0.5 0.2
v 0 0.6 0.2
v 0 1.1 0.2
v 0 1.3 0.2
v -0.2 0.3 0.1
v -0.2 0.7 0.1
v -0.2 0.8 0.1
v -0.2 0.9 0.1
v -0.2 1 0.1
v -0.2 1.1 0.1
v -0.2 1.2 0.1
v -0.2 1.3 0.1
v -0.2 1.5 0.1
v -0.1 0.3 0.1
v -0.1 0.4 0.1
v -0.1 0.6 0.1
v -0.1 0.7 0.1
v -0.1 0.8 0.1
v -0.1 0.9 0.1
v -0.1 1 0.1
v -0.1 1.1 0.1
v -0.1 1.2 0.1
v -0.1 1.3 0.1
v -0.1 1.4 0.1
v -0.1 1.5 0.1
v 0 0.3 0.1
v 0 0.4 0.1
v 0 0.6 0.1
v 0 0.7 0.1
v 0 0.8 0.1
v 0 0.9 0.1
v 0 1 0.1
v 0 1.1 0.1
v 0 1.2 0.1
v 0 1.3 0.1
v 0 1.4 0.1
v 0 1.5 0.1
v 0.1 0.3 0.1
v 0.1 0.7 0.1
v 0.1 0.8 0.1
v 0.1 0.9 0.1
v 0.1 1 0.1
v 0.1 1.1 0.1
v 0.1 1.2 0.1
v 0.1 1.3 0.1
v 0.1 1.5 0.1
v -0.3 0.2 0
v -0.3 0.3 0
v -0.3 0.4 0
v -0.3 0.6 0
v -0.3 1.4 0
v -0.3 1.5 0
v -0.2 0.3 0
v -0.2 0.4 0
v -0.2 0.6 0
v -0.2 1.4 0
v -0.2 1.5 0
v -0.1 0 0
v -0.1 0.2 0
v -0.1 0.3 0
v -0.1 0.4 0
v 0 0 0
v 0 0.2 0
v 0 0.3 0
v 0 0.4 0
v 0.1 0.3 0
v 0.1 0.4 0
v 0.1 0.6 0
v 0.1 1.4 0
v 0.1 1.5 0
v 0.2 0.2 0
v 0.2 0.3 0
v 0.2 0.4 0
v 0.2 0.6 0
v 0.2 1.4 0
v 0.2 1.5 0
v -0.2 0.1 -0.1
v -0.2 0.2 -0.1
v -0.1 0.1 -0.1
v -0.1 0.2 -0.1
v -0.1 0.5 -0.1
v -0.1 0.6 -0.1
v -0.1 1.4 -0.1
v -0.1 1.5 -0.1
v 0 0.1 -0.1
v 0 0.2 -0.1
v 0 0.5 -0.1
v 0 0.6 -0.1
v 0 1.4 -0.1
v 0 1.5 -0.1
v 0.1 0.1 -0.1
v 0.1 0.2 -0.1
v -0.1 0.5 0
v -0.1 0.6 0
v -0.1 1.4 0
v -0.1 1.5 0
v 0 0.5 0
v 0 0.6 0
v 0 1.4 0
v 0 1.5 0
v -0.3 0.2 -0.1
v -0.3 0.3 -0.1
v -0.3 0.4 -0.1
v -0.3 0.6 -0.1
v -0.3 1.4 -0.1
v -0.3 1.5 -0.1
v -0.2 0.2 -0.1
v -0.2 0.3 -0.1
v -0.2 0.4 -0.1
v -0.2 0.6 -0.1
v -0.2 1.4 -0.1
v -0.2 1.5 -0.1
v -0.1 0 -0.1
v -0.1 0.1 -0.1
v -0.1 0.2 -0.1
v 0 0 -0.1
v 0 0.1 -0.1
v 0 0.2 -0.1
v 0.1 0.2 -0.1
v 0.1 0.3 -0.1
v 0.1 0.4 -0.1
v 0.1 0.6 -0.1
v 0.1 1.4 -0.1
v 0.1 1.5 -0.1
v 0.2 0.2 -0.1
v 0.2 0.3 -0.1
v 0.2 0.4 -0.1
v 0.2 0.6 -0.1
v 0.2 1.4 -0.1
v 0.2 1.5 -0.1
v -0.2 0.1 -0.2
v -0.2 0.5 -0.2
v -0.2 1.4 -0.2
v -0.2 1.5 -0.2
v -0.1 0.1 -0.2
v -0.1 0.2 -0.2
v -0.1 0.3 -0.2
v -0.1 0.4 -0.2
v -0.1 0.5 -0.2
v -0.1 0.6 -0.2
v -0.1 0.7 -0.2
v -0.1 0.8 -0.2
v -0.1 0.9 -0.2
v -0.1 1 -0.2
v -0.1 1.1 -0.2
v -0.1 1.2 -0.2
v -0.1 1.3 -0.2
v -0.1 1.4 -0.2
v 0 0.1 -0.2
v 0 0.2 -0.2
v 0 0.3 -0.2
v 0 0.4 -0.2
v 0 0.5 -0.2
v 0 0.6 -0.2
v 0 0.7 -0.2
v 0 0.8 -0.2
v 0 0.9 -0.2
v 0 1 -0.2
v 0 1.1 -0.2
v 0 1.2 -0.2
v 0 1.3 -0.2
v 0 1.4 -0.2
v 0.1 0.1 -0.2
v 0.1 0.5 -0.2
v 0.1 1.4 -0.2
v 0.1 1.5 -0.2
v -0.2 0.5 -0.3
v -0.2 1.4 -0.3
v -0.1 0.2 -0.3
v -0.1 0.3 -0.3
v -0.1 0.4 -0.3
v -0.1 0.5 -0.3
v -0.1 0.6 -0.3
v -0.1 0.7 -0.3
v -0.1 0.8 -0.3
v -0.1 0.9 -0.3
v -0.1 1 -0.3
v -0.1 1.1 -0.3
v -0.1 1.2 -0.3
v -0.1 1.3 -0.3
v -0.1 1.4 -0.3
v 0 0.2 -0.3
v 0 0.3 -0.3
v 0 0.4 -0.3
v 0 0.5 -0.3
v 0 0.6 -0.3
v 0 0.7 -0.3
v 0 0.8 -0.3
v 0 0.9 -0.3
v 0 1 -0.3
v 0 1.1 -0.3
v 0 1.2 -0.3
v 0 1.3 -0.3
v 0 1.4 -0.3
v 0.1 0.5 -0.3
v 0.1 1.4 -0.3
v -0.1 0 0
v 0 0 0
v -0.1 0 -0.1
v 0 0 -0.1
v -0.2 0.1 -0.1
v -0.1 0.1 -0.1
v 0 0.1 -0.1
v 0.1 0.1 -0.1
v -0.2 0.1 -0.2
v -0.1 0.1 -0.2
v 0 0.1 -0.2
v 0.1 0.1 -0.2
v -0.3 0.2 0
v -0.1 0.2 0
v 0 0.2 0
v 0.2 0.2 0
v -0.3 0.2 -0.1
v -0.2 0.2 -0.1
v -0.1 0.2 -0.1
v 0 0.2 -0.1
v 0.1 0.2 -0.1
v 0.2 0.2 -0.1
v -0.1 0.2 -0.2
v 0 0.2 -0.2
v -0.1 0.2 -0.3
v 0 0.2 -0.3
v -0.2 0.3 0.1
v -0.1 0.3 0.1
v 0 0.3 0.1
v 0.1 0.3 0.1
v -0.2 0.3 0
v -0.1 0.3 0
v 0 0.3 0
v 0.1 0.3 0
v -0.1 0.4 0.4
v 0 0.4 0.4
v -0.1 0.4 0.1
v 0 0.4 0.1
v -0.3 0.4 0
v -0.2 0.4 0
v -0.1 0.4 0
v 0 0.4 0
v 0.1 0.4 0
v 0.2 0.4 0
v -0.3 0.4 -0.1
v -0.2 0.4 -0.1
v 0.1 0.4 -0.1
v 0.2 0.4 -0.1
v -0.1 0.4 -0.2
v 0 0.4 -0.2
v -0.1 0.4 -0.3
v 0 0.4 -0.3
v -0.2 0.5 -0.2
v -0.1 0.5 -0.2
v 0 0.5 -0.2
v 0.1 0.5 -0.2
v -0.2 0.5 -0.3
v -0.1 0.5 -0.3
v 0 0.5 -0.3
v 0.1 0.5 -0.3
v -0.1 0.6 -0.2
v 0 0.6 -0.2
v -0.1 0.6 -0.3
v 0 0.6 -0.3
v -0.1 0.8 -0.2
v 0 0.8 -0.2
v -0.1 0.8 -0.3
v 0 0.8 -0.3
v -0.1 1 -0.2
v 0 1 -0.2
v -0.1 1 -0.3
v 0 1 -0.3
v -0.1 1.1 0.2
v 0 1.1 0.2
v -0.1 1.1 0.1
v 0 1.1 0.1
v -0.1 1.2 -0.2
v 0 1.2 -0.2
v -0.1 1.2 -0.3
v 0 1.2 -0.3
v -0.1 1.3 0.3
v 0 1.3 0.3
v -0.1 1.3 0.2
v 0 1.3 0.2
v -0.3 1.4 0
v -0.2 1.4 0
v 0.1 1.4 0
v 0.2 1.4 0
v -0.3 1.4 -0.1
v -0.2 1.4 -0.1
v 0.1 1.4 -0.1
v 0.2 1.4 -0.1
v -0.3 0.3 0
v -0.2 0.3 0
v 0.1 0.3 0
v 0.2 0.3 0
v -0.3 0.3 -0.1
v -0.2 0.3 -0.1
v 0.1 0.3 -0.1
v 0.2 0.3 -0.1
v -0.1 0.3 -0.2
v 0 0.3 -0.2
v -0.1 0.3 -0.3
v 0 0.3 -0.3
v -0.1 0.5 0.4
v 0 0.5 0.4
v -0.1 0.5 0.2
v 0 0.5 0.2
v -0.1 0.5 0
v 0 0.5 0
v -0.1 0.5 -0.1
v 0 0.5 -0.1
v -0.1 0.5 -0.2
v 0 0.5 -0.2
v -0.1 0.5 -0.3
v 0 0.5 -0.3
v -0.1 0.6 0.2
v 0 0.6 0.2
v -0.1 0.6 0.1
v 0 0.6 0.1
v -0.3 0.6 0
v -0.2 0.6 0
v 0.1 0.6 0
v 0.2 0.6 0
v -0.3 0.6 -0.1
v -0.2 0.6 -0.1
v 0.1 0.6 -0.1
v 0.2 0.6 -0.1
v -0.1 0.7 -0.2
v 0 0.7 -0.2
v -0.1 0.7 -0.3
v 0 0.7 -0.3
v -0.1 0.9 -0.2
v 0 0.9 -0.2
v -0.1 0.9 -0.3
v 0 0.9 -0.3
v -0.1 1.1 -0.2
v 0 1.1 -0.2
v -0.1 1.1 -0.3
v 0 1.1 -0.3
v -0.1 1.3 -0.2
v 0 1.3 -0.2
v -0.1 1.3 -0.3
v 0 1.3 -0.3
v -0.2 1.4 -0.2
v -0.1 1.4 -0.2
v 0 1.4 -0.2
v 0.1 1.4 -0.2
v -0.2 1.4 -0.3
v -0.1 1.4 -0.3
v 0 1.4 -0.3
v 0.1 1.4 -0.3
v -0.1 1.5 0.3
v 0 1.5 0.3
v -0.2 1.5 0.1
v -0.1 1.5 0.1
v 0 1.5 0.1
v 0.1 1.5 0.1
v -0.3 1.5 0
v -0.2 1.5 0
v -0.1 1.5 0
v 0 1.5 0
v 0.1 1.5 0
v 0.2 1.5 0
v -0.3 1.5 -0.1
v -0.2 1.5 -0.1
v -0.1 1.5 -0.1
v 0 1.5 -0.1
v 0.1 1.5 -0.1
v 0.2 1.5 -0.1
v -0.2 1.5 -0.2
v 0.1 1.5 -0.2

# faces
f 3/4/1 2/4/1 1/4/1
f 4/4/1 2/4/1 3/4/1
f 7/4/1 6/4/1 5/4/1
f 8/4/1 6/4/1 7/4/1
f 11/4/1 10/4/1 9/4/1
f 12/4/1 10/4/1 11/4/1
f 15/4/1 14/4/1 13/4/1
f 18/4/1 14/4/1 15/4/1
f 19/4/1 17/4/1 16/4/1
f 19/4/1 18/4/1 17/4/1
f 20/4/1 14/4/1 18/4/1
f 20/4/1 18/4/1 19/4/1
f 21/4/1 14/4/1 20/4/1
f 23/4/1 19/4/1 16/4/1
f 24/4/1 22/4/1 21/4/1
f 24/4/1 21/4/1 20/4/1
f 25/4/1 22/4/1 24/4/1
f 26/4/1 23/4/1 16/4/1
f 27/1/1 24/1/1 23/1/1
f 27/4/1 23/4/1 26/4/1
f 28/3/1 25/3/1 24/3/1
f 28/1/1 24/1/1 27/1/1
f 29/4/1 22/4/1 25/4/1
f 29/3/1 25/3/1 28/3/1
f 30/3/1 27/3/1 26/3/1
f 31/1/1 28/1/1 27/1/1
f 31/3/1 27/3/1 30/3/1
f 32/4/1 29/4/1 28/4/1
f 32/1/1 28/1/1 31/1/1
f 33/4/1 22/4/1 29/4/1
f 33/4/1 29/4/1 32/4/1
f 34/4/1 31/4/1 30/4/1
f 35/1/1 32/1/1 31/1/1
f 35/4/1 31/4/1 34/4/1
f 36/3/1 33/3/1 32/3/1
f 36/1/1 32/1/1 35/1/1
f 37/4/1 22/4/1 33/4/1
f 37/3/1 33/3/1 36/3/1
f 38/3/1 35/3/1 34/3/1
f 39/1/1 36/1/1 35/1/1
f 39/3/1 35/3/1 38/3/1
f 40/4/1 37/4/1 36/4/1
f 40/1/1 36/1/1 39/1/1
f 41/4/1 22/4/1 37/4/1
f 41/4/1 37/4/1 40/4/1
f 42/4/1 39/4/1 38/4/1
f 43/1/1 40/1/1 39/1/1
f 43/4/1 39/4/1 42/4/1
f 44/3/1 41/3/1 40/3/1
f 44/1/1 40/1/1 43/1/1
f 45/4/1 22/4/1 41/4/1
f 45/3/1 41/3/1 44/3/1
f 46/3/1 43/3/1 42/3/1
f 47/1/1 44/1/1 43/1/1
f 47/3/1 43/3/1 46/3/1
f 48/4/1 45/4/1 44/4/1
f 48/1/1 44/1/1 47/1/1
f 49/4/1 22/4/1 45/4/1
f 49/4/1 45/4/1 48/4/1
f 50/4/1 47/4/1 46/4/1
f 51/1/1 48/1/1 47/1/1
f 51/4/1 47/4/1 50/4/1
f 52/3/1 49/3/1 48/3/1
f 52/1/1 48/1/1 51/1/1
f 53/4/1 22/4/1 49/4/1
f 53/3/1 49/3/1 52/3/1
f 54/1/1 52/1/1 51/1/1
f 54/3/1 51/3/1 50/3/1
f 55/4/1 53/4/1 52/4/1
f 55/1/1 52/1/1 54/1/1
f 56/4/1 22/4/1 53/4/1
f 56/4/1 53/4/1 55/4/1
f 57/4/1 22/4/1 56/4/1
f 58/3/1 54/3/1 50/3/1
f 59/3/1 54/3/1 58/3/1
f 60/3/1 56/3/1 55/3/1
f 61/3/1 56/3/1 60/3/1
f 64/4/1 63/4/1 62/4/1
f 65/4/1 64/4/1 62/4/1
f 66/4/1 64/4/1 65/4/1
f 69/3/1 68/3/1 67/3/1
f 70/3/1 68/3/1 69/3/1
f 75/4/1 72/4/1 71/4/1
f 76/4/1 72/4/1 75/4/1
f 77/4/1 74/4/1 73/4/1
f 78/4/1 74/4/1 77/4/1
f 79/4/1 72/4/1 76/4/1
f 80/4/1 72/4/1 79/4/1
f 83/4/1 82/4/1 81/4/1
f 85/4/1 83/4/1 81/4/1
f 86/4/1 83/4/1 85/4/1
f 87/4/1 85/4/1 84/4/1
f 87/4/1 86/4/1 85/4/1
f 88/4/1 86/4/1 87/4/1
f 89/3/1 88/3/1 87/3/1
f 90/3/1 88/3/1 89/3/1
f 93/4/1 92/4/1 91/4/1
f 94/4/1 92/4/1 93/4/1
f 97/4/1 96/4/1 95/4/1
f 98/4/1 96/4/1 97/4/1
f 103/4/1 100/4/1 99/4/1
f 104/4/1 100/4/1 103/4/1
f 105/4/1 102/4/1 101/4/1
f 106/4/1 102/4/1 105/4/1
f 109/4/1 108/4/1 107/4/1
f 110/4/1 108/4/1 109/4/1
f 113/4/1 112/4/1 111/4/1
f 114/4/1 112/4/1 113/4/1
f 117/4/1 116/4/1 115/4/1
f 118/4/1 116/4/1 117/4/1
f 121/1/1 104/1/1 103/1/1
f 122/1/1 104/1/1 121/1/1
f 123/4/1 120/4/1 119/4/1
f 124/4/1 120/4/1 123/4/1
f 125/3/1 122/3/1 121/3/1
f 126/3/1 122/3/1 125/3/1
f 127/4/2 128/4/2 129/4/2
f 129/4/2 128/4/2 130/4/2
f 131/4/2 132/4/2 133/4/2
f 133/4/2 132/4/2 134/4/2
f 135/4/2 136/4/2 139/4/2
f 139/4/2 136/4/2 140/4/2
f 137/4/2 138/4/2 141/4/2
f 141/4/2 138/4/2 142/4/2
f 143/4/2 144/4/2 145/4/2
f 145/4/2 144/4/2 146/4/2
f 147/4/2 148/4/2 149/4/2
f 149/4/2 148/4/2 150/4/2
f 151/4/2 152/4/2 153/4/2
f 153/4/2 152/4/2 154/4/2
f 139/1/2 140/1/2 157/1/2
f 157/1/2 140/1/2 158/1/2
f 155/4/2 156/4/2 159/4/2
f 159/4/2 156/4/2 160/4/2
f 157/3/2 158/3/2 161/3/2
f 161/3/2 158/3/2 162/3/2
f 163/4/2 164/4/2 165/4/2
f 163/4/2 165/4/2 166/4/2
f 166/4/2 165/4/2 167/4/2
f 168/3/2 169/3/2 170/3/2
f 170/3/2 169/3/2 171/3/2
f 172/4/2 173/4/2 176/4/2
f 176/4/2 173/4/2 177/4/2
f 174/4/2 175/4/2 178/4/2
f 178/4/2 175/4/2 179/4/2
f 177/4/2 173/4/2 180/4/2
f 180/4/2 173/4/2 181/4/2
f 182/4/2 183/4/2 184/4/2
f 182/4/2 184/4/2 186/4/2
f 186/4/2 184/4/2 187/4/2
f 185/4/2 186/4/2 188/4/2
f 186/4/2 187/4/2 188/4/2
f 188/4/2 187/4/2 189/4/2
f 188/3/2 189/3/2 190/3/2
f 190/3/2 189/3/2 191/3/2
f 192/4/2 193/4/2 194/4/2
f 194/4/2 193/4/2 197/4/2
f 195/4/2 196/4/2 198/4/2
f 196/4/2 197/4/2 198/4/2
f 197/4/2 193/4/2 199/4/2
f 198/4/2 197/4/2 199/4/2
f 199/4/2 193/4/2 200/4/2
f 195/4/2 198/4/2 202/4/2
f 200/4/2 201/4/2 203/4/2
f 199/4/2 200/4/2 203/4/2
f 203/4/2 201/4/2 204/4/2
f 195/4/2 202/4/2 205/4/2
f 202/1/2 203/1/2 206/1/2
f 205/4/2 202/4/2 206/4/2
f 203/3/2 204/3/2 207/3/2
f 206/1/2 203/1/2 207/1/2
f 204/4/2 201/4/2 208/4/2
f 207/3/2 204/3/2 208/3/2
f 205/3/2 206/3/2 209/3/2
f 206/1/2 207/1/2 210/1/2
f 209/3/2 206/3/2 210/3/2
f 207/4/2 208/4/2 211/4/2
f 210/1/2 207/1/2 211/1/2
f 208/4/2 201/4/2 212/4/2
f 211/4/2 208/4/2 212/4/2
f 209/4/2 210/4/2 213/4/2
f 210/1/2 211/1/2 214/1/2
f 213/4/2 210/4/2 214/4/2
f 211/3/2 212/3/2 215/3/2
f 214/1/2 211/1/2 215/1/2
f 212/4/2 201/4/2 216/4/2
f 215/3/2 212/3/2 216/3/2
f 213/3/2 214/3/2 217/3/2
f 214/1/2 215/1/2 218/1/2
f 217/3/2 214/3/2 218/3/2
f 215/4/2 216/4/2 219/4/2
f 218/1/2 215/1/2 219/1/2
f 216/4/2 201/4/2 220/4/2
f 219/4/2 216/4/2 220/4/2
f 217/4/2 218/4/2 221/4/2
f 218/1/2 219/1/2 222/1/2
f 221/4/2 218/4/2 222/4/2
f 219/3/2 220/3/2 223/3/2
f 222/1/2 219/1/2 223/1/2
f 220/4/2 201/4/2 224/4/2
f 223/3/2 220/3/2 224/3/2
f 221/3/2 222/3/2 225/3/2
f 222/1/2 223/1/2 226/1/2
f 225/3/2 222/3/2 226/3/2
f 223/4/2 224/4/2 227/4/2
f 226/1/2 223/1/2 227/1/2
f 224/4/2 201/4/2 228/4/2
f 227/4/2 224/4/2 228/4/2
f 225/4/2 226/4/2 229/4/2
f 226/1/2 227/1/2 230/1/2
f 229/4/2 226/4/2 230/4/2
f 227/3/2 228/3/2 231/3/2
f 230/1/2 227/1/2 231/1/2
f 228/4/2 201/4/2 232/4/2
f 231/3/2 228/3/2 232/3/2
f 230/1/2 231/1/2 233/1/2
f 229/3/2 230/3/2 233/3/2
f 231/4/2 232/4/2 234/4/2
f 233/1/2 231/1/2 234/1/2
f 232/4/2 201/4/2 235/4/2
f 234/4/2 232/4/2 235/4/2
f 235/4/2 201/4/2 236/4/2
f 229/3/2 233/3/2 237/3/2
f 237/3/2 233/3/2 238/3/2
f 234/3/2 235/3/2 239/3/2
f 239/3/2 235/3/2 240/3/2
f 241/4/2 242/4/2 243/4/2
f 243/4/2 242/4/2 244/4/2
f 245/4/2 246/4/2 247/4/2
f 247/4/2 246/4/2 248/4/2
f 249/4/2 250/4/2 251/4/2
f 251/4/2 250/4/2 252/4/2
f 255/4/3 254/4/3 253/4/3
f 256/4/3 254/4/3 255/4/3
f 260/4/3 258/4/3 257/4/3
f 261/3/3 259/3/3 258/3/3
f 261/4/3 258/4/3 260/4/3
f 262/3/3 259/3/3 261/3/3
f 267/4/3 264/4/3 263/4/3
f 268/4/3 264/4/3 267/4/3
f 269/4/3 266/4/3 265/4/3
f 270/4/3 266/4/3 269/4/3
f 280/4/3 272/4/3 271/4/3
f 281/4/3 272/4/3 280/4/3
f 282/4/3 272/4/3 281/4/3
f 283/3/3 273/3/3 272/3/3
f 283/4/3 272/4/3 282/4/3
f 284/4/3 274/4/3 273/4/3
f 284/3/3 273/3/3 283/3/3
f 285/3/3 275/3/3 274/3/3
f 285/4/3 274/4/3 284/4/3
f 286/4/3 276/4/3 275/4/3
f 286/3/3 275/3/3 285/3/3
f 287/3/3 277/3/3 276/3/3
f 287/4/3 276/4/3 286/4/3
f 288/4/3 278/4/3 277/4/3
f 288/3/3 277/3/3 287/3/3
f 289/3/3 279/3/3 278/3/3
f 289/4/3 278/4/3 288/4/3
f 290/3/3 279/3/3 289/3/3
f 291/3/3 279/3/3 290/3/3
f 294/4/3 283/4/3 282/4/3
f 294/4/3 284/4/3 283/4/3
f 294/4/3 287/4/3 286/4/3
f 294/4/3 286/4/3 285/4/3
f 294/4/3 285/4/3 284/4/3
f 295/4/3 287/4/3 294/4/3
f 296/4/3 287/4/3 295/4/3
f 297/4/3 287/4/3 296/4/3
f 298/4/3 287/4/3 297/4/3
f 299/4/3 287/4/3 298/4/3
f 304/4/3 293/4/3 292/4/3
f 304/4/3 294/4/3 293/4/3
f 304/4/3 295/4/3 294/4/3
f 305/3/3 296/3/3 295/3/3
f 305/4/3 295/4/3 304/4/3
f 306/4/3 297/4/3 296/4/3
f 306/3/3 296/3/3 305/3/3
f 307/3/3 298/3/3 297/3/3
f 307/4/3 297/4/3 306/4/3
f 308/4/3 299/4/3 298/4/3
f 308/3/3 298/3/3 307/3/3
f 309/3/3 300/3/3 299/3/3
f 309/4/3 299/4/3 308/4/3
f 310/4/3 301/4/3 300/4/3
f 310/3/3 300/3/3 309/3/3
f 311/3/3 303/3/3 302/3/3
f 311/4/3 301/4/3 310/4/3
f 311/3/3 302/3/3 301/3/3
f 312/3/3 303/3/3 311/3/3
f 319/4/3 314/4/3 313/4/3
f 320/4/3 316/4/3 315/4/3
f 321/4/3 316/4/3 320/4/3
f 322/4/3 318/4/3 317/4/3
f 323/4/3 318/4/3 322/4/3
f 325/4/3 319/4/3 313/4/3
f 326/4/3 319/4/3 325/4/3
f 328/4/3 325/4/3 324/4/3
f 328/4/3 327/4/3 326/4/3
f 328/4/3 326/4/3 325/4/3
f 329/4/3 327/4/3 328/4/3
f 330/4/3 327/4/3 329/4/3
f 331/4/3 327/4/3 330/4/3
f 332/4/3 330/4/3 329/4/3
f 337/4/3 332/4/3 329/4/3
f 338/4/3 332/4/3 337/4/3
f 339/4/3 334/4/3 333/4/3
f 340/4/3 334/4/3 339/4/3
f 341/4/3 336/4/3 335/4/3
f 342/4/3 336/4/3 341/4/3
f 345/4/3 344/4/3 343/4/3
f 346/4/3 344/4/3 345/4/3
f 353/4/3 348/4/3 347/4/3
f 354/2/3 349/2/3 348/2/3
f 354/4/3 348/4/3 353/4/3
f 355/3/3 350/3/3 349/3/3
f 355/2/3 349/2/3 354/2/3
f 356/3/3 350/3/3 355/3/3
f 357/4/3 352/4/3 351/4/3
f 358/4/3 352/4/3 357/4/3
f 359/4/4 360/4/4 363/4/4
f 360/4/4 361/4/4 363/4/4
f 363/4/4 361/4/4 364/4/4
f 361/3/4 362/3/4 365/3/4
f 364/4/4 361/4/4 365/4/4
f 365/3/4 362/3/4 366/3/4
f 367/4/4 368/4/4 373/4/4
f 373/4/4 368/4/4 374/4/4
f 369/4/4 370/4/4 375/4/4
f 375/4/4 370/4/4 376/4/4
f 371/4/4 372/4/4 377/4/4
f 377/4/4 372/4/4 378/4/4
f 379/4/4 380/4/4 382/4/4
f 380/4/4 381/4/4 382/4/4
f 382/4/4 381/4/4 383/4/4
f 383/4/4 381/4/4 384/4/4
f 385/4/4 386/4/4 391/4/4
f 391/4/4 386/4/4 392/4/4
f 387/4/4 388/4/4 393/4/4
f 393/4/4 388/4/4 394/4/4
f 389/4/4 390/4/4 395/4/4
f 395/4/4 390/4/4 396/4/4
f 397/4/4 398/4/4 401/4/4
f 401/4/4 398/4/4 402/4/4
f 402/4/4 398/4/4 403/4/4
f 403/4/4 398/4/4 404/4/4
f 404/4/4 398/4/4 405/4/4
f 399/3/4 400/3/4 414/3/4
f 403/4/4 404/4/4 417/4/4
f 417/4/4 404/4/4 418/4/4
f 405/4/4 406/4/4 419/4/4
f 419/4/4 406/4/4 420/4/4
f 407/2/4 408/2/4 421/2/4
f 421/2/4 408/2/4 422/2/4
f 409/2/4 410/2/4 423/2/4
f 423/2/4 410/2/4 424/2/4
f 411/2/4 412/2/4 425/2/4
f 425/2/4 412/2/4 426/2/4
f 413/2/4 414/2/4 427/2/4
f 414/3/4 400/3/4 428/3/4
f 427/2/4 414/2/4 428/2/4
f 415/4/4 416/4/4 429/4/4
f 417/4/4 418/4/4 429/4/4
f 418/4/4 419/4/4 429/4/4
f 416/4/4 417/4/4 429/4/4
f 429/4/4 419/4/4 430/4/4
f 428/3/4 400/3/4 431/3/4
f 431/3/4 400/3/4 432/3/4
f 433/4/4 434/4/4 438/4/4
f 438/4/4 434/4/4 439/4/4
f 439/4/4 434/4/4 440/4/4
f 440/4/4 434/4/4 441/4/4
f 441/4/4 434/4/4 442/4/4
f 442/4/4 434/4/4 443/4/4
f 443/4/4 434/4/4 444/4/4
f 444/4/4 434/4/4 445/4/4
f 445/4/4 434/4/4 446/4/4
f 446/4/4 434/4/4 447/4/4
f 435/3/4 436/3/4 448/3/4
f 448/3/4 436/3/4 449/3/4
f 437/4/4 438/4/4 450/4/4
f 450/4/4 438/4/4 451/4/4
f 439/3/4 440/3/4 452/3/4
f 452/3/4 440/3/4 453/3/4
f 441/3/4 442/3/4 454/3/4
f 454/3/4 442/3/4 455/3/4
f 443/3/4 444/3/4 456/3/4
f 456/3/4 444/3/4 457/3/4
f 445/3/4 446/3/4 458/3/4
f 458/3/4 446/3/4 459/3/4
f 459/4/4 460/4/4 461/4/4
f 458/4/4 459/4/4 461/4/4
f 457/4/4 458/4/4 461/4/4
f 456/4/4 457/4/4 461/4/4
f 455/4/4 456/4/4 461/4/4
f 453/4/4 454/4/4 461/4/4
f 454/4/4 455/4/4 461/4/4
f 451/4/4 452/4/4 461/4/4
f 452/4/4 453/4/4 461/4/4
f 461/4/4 460/4/4 462/4/4
f 465/4/5 464/4/5 463/4/5
f 466/4/5 464/4/5 465/4/5
f 471/4/5 468/4/5 467/4/5
f 472/4/5 468/4/5 471/4/5
f 473/4/5 470/4/5 469/4/5
f 474/4/5 470/4/5 473/4/5
f 479/4/5 476/4/5 475/4/5
f 480/4/5 476/4/5 479/4/5
f 481/4/5 476/4/5 480/4/5
f 482/4/5 478/4/5 477/4/5
f 483/4/5 478/4/5 482/4/5
f 484/4/5 478/4/5 483/4/5
f 485/3/5 482/3/5 481/3/5
f 486/3/5 482/3/5 485/3/5
f 487/3/5 486/3/5 485/3/5
f 488/3/5 486/3/5 487/3/5
f 493/4/5 490/4/5 489/4/5
f 494/4/5 490/4/5 493/4/5
f 495/4/5 492/4/5 491/4/5
f 496/4/5 492/4/5 495/4/5
f 499/4/5 498/4/5 497/4/5
f 500/4/5 498/4/5 499/4/5
f 503/4/5 500/4/5 499/4/5
f 504/4/5 500/4/5 503/4/5
f 507/4/5 502/4/5 501/4/5
f 508/4/5 502/4/5 507/4/5
f 509/4/5 506/4/5 505/4/5
f 510/4/5 506/4/5 509/4/5
f 513/4/5 512/4/5 511/4/5
f 514/4/5 512/4/5 513/4/5
f 519/4/5 516/4/5 515/4/5
f 520/4/5 516/4/5 519/4/5
f 521/4/5 518/4/5 517/4/5
f 522/4/5 518/4/5 521/4/5
f 525/3/5 524/3/5 523/3/5
f 526/3/5 524/3/5 525/3/5
f 529/3/5 528/3/5 527/3/5
f 530/3/5 528/3/5 529/3/5
f 533/3/5 532/3/5 531/3/5
f 534/3/5 532/3/5 533/3/5
f 537/4/5 536/4/5 535/4/5
f 538/4/5 536/4/5 537/4/5
f 541/3/5 540/3/5 539/3/5
f 542/3/5 540/3/5 541/3/5
f 545/4/5 544/4/5 543/4/5
f 546/4/5 544/4/5 545/4/5
f 551/4/5 548/4/5 547/4/5
f 552/4/5 548/4/5 551/4/5
f 553/4/5 550/4/5 549/4/5
f 554/4/5 550/4/5 553/4/5
f 555/4/6 556/4/6 559/4/6
f 559/4/6 556/4/6 560/4/6
f 557/4/6 558/4/6 561/4/6
f 561/4/6 558/4/6 562/4/6
f 563/3/6 564/3/6 565/3/6
f 565/3/6 564/3/6 566/3/6
f 567/4/6 568/4/6 569/4/6
f 569/4/6 568/4/6 570/4/6
f 571/4/6 572/4/6 573/4/6
f 573/4/6 572/4/6 574/4/6
f 575/4/6 576/4/6 577/4/6
f 577/4/6 576/4/6 578/4/6
f 579/4/6 580/4/6 581/4/6
f 581/4/6 580/4/6 582/4/6
f 583/4/6 584/4/6 587/4/6
f 587/4/6 584/4/6 588/4/6
f 585/4/6 586/4/6 589/4/6
f 589/4/6 586/4/6 590/4/6
f 591/3/6 592/3/6 593/3/6
f 593/3/6 592/3/6 594/3/6
f 595/3/6 596/3/6 597/3/6
f 597/3/6 596/3/6 598/3/6
f 599/3/6 600/3/6 601/3/6
f 601/3/6 600/3/6 602/3/6
f 603/3/6 604/3/6 605/3/6
f 605/3/6 604/3/6 606/3/6
f 607/4/6 608/4/6 611/4/6
f 611/4/6 608/4/6 612/4/6
f 609/4/6 610/4/6 613/4/6
f 613/4/6 610/4/6 614/4/6
f 615/3/6 616/3/6 618/3/6
f 618/3/6 616/3/6 619/3/6
f 617/3/6 618/3/6 622/3/6
f 619/3/6 620/3/6 622/3/6
f 618/3/6 619/3/6 622/3/6
f 622/3/6 620/3/6 623/3/6
f 623/3/6 620/3/6 624/3/6
f 624/3/6 620/3/6 625/3/6
f 621/4/6 622/4/6 627/4/6
f 622/3/6 623/3/6 628/3/6
f 627/4/6 622/4/6 628/4/6
f 628/3/6 623/3/6 629/3/6
f 624/3/6 625/3/6 630/3/6
f 625/4/6 626/4/6 631/4/6
f 630/3/6 625/3/6 631/3/6
f 631/4/6 626/4/6 632/4/6
f 629/3/6 630/3/6 633/3/6
f 628/3/6 629/3/6 633/3/6
f 630/3/6 631/3/6 633/3/6
f 633/3/6 631/3/6 634/3/6
