# MagicaVoxel @ Ephtracy

# group
o 

# material
mtllib Red Crab-3.mtl
usemtl palette

# normals
vn -1 0 0
vn 1 0 0
vn 0 0 1
vn 0 0 -1
vn 0 -1 0
vn 0 1 0

# texcoords
vt 0.0917969 0.5
vt 0.853516 0.5
vt 0.986328 0.5
vt 0.994141 0.5

# verts
v 0.3 1.5 -0.3
v 0.3 1.5 -0.5
v 0.3 1.6 -0.3
v 0.3 1.6 -0.5
v 0.4 0.9 -0.4
v 0.4 0.9 -0.6
v 0.4 1 -0.4
v 0.4 1 -0.5
v 0.4 1 -0.6
v 0.4 1.1 -0.5
v 0.4 1.1 -0.6
v 0.4 1.2 -0.4
v 0.4 1.2 -0.5
v 0.4 1.3 -0.5
v 0.4 1.3 -0.6
v 0.4 1.4 -0.4
v 0.4 1.4 -0.6
v 0.4 1.5 -0.4
v 0.4 1.5 -0.5
v 0.4 1.5 -0.6
v 0.5 0.9 -0.6
v 0.5 0.9 -0.7
v 0.5 1 -0.6
v 0.5 1 -0.7
v 0.5 1.2 -0.6
v 0.5 1.2 -0.7
v 0.5 1.3 -0.6
v 0.5 1.4 -0.6
v 0.5 1.4 -0.7
v 0.5 1.5 -0.6
v 0.5 1.5 -0.7
v 0.6 0.9 -0.7
v 0.6 0.9 -0.8
v 0.6 1 -0.7
v 0.6 1 -0.8
v 0.6 1 -1.2
v 0.6 1 -1.3
v 0.6 1.1 -1.1
v 0.6 1.1 -1.2
v 0.6 1.2 -1.1
v 0.6 1.2 -1.3
v 0.7 0.8 -1.2
v 0.7 0.8 -1.3
v 0.7 0.9 -0.8
v 0.7 0.9 -0.9
v 0.7 0.9 -1.1
v 0.7 0.9 -1.2
v 0.7 1 -0.8
v 0.7 1 -0.9
v 0.7 1 -1.2
v 0.7 1 -1.3
v 0.7 1.1 -1
v 0.7 1.1 -1.1
v 0.7 1.1 -1.2
v 0.7 1.2 -1
v 0.7 1.2 -1.1
v 0.7 1.2 -1.2
v 0.7 1.3 -1.1
v 0.7 1.3 -1.2
v 0.8 0.6 -1.2
v 0.8 0.6 -1.3
v 0.8 0.7 -1.1
v 0.8 0.7 -1.2
v 0.8 0.8 -1.2
v 0.8 0.8 -1.3
v 0.8 0.9 -0.9
v 0.8 0.9 -1
v 0.8 0.9 -1.1
v 0.8 0.9 -1.2
v 0.8 1 -0.9
v 0.8 1.1 -0.9
v 0.8 1.1 -1
v 0.8 1.1 -1.1
v 0.8 1.2 -0.9
v 0.8 1.2 -1
v 0.8 1.2 -1.1
v 0.8 1.3 -1
v 0.8 1.3 -1.1
v 0.9 0.4 -1.2
v 0.9 0.4 -1.3
v 0.9 0.5 -1.1
v 0.9 0.5 -1.2
v 0.9 0.6 -1.2
v 0.9 0.6 -1.3
v 0.9 0.7 -1
v 0.9 0.7 -1.1
v 0.9 0.7 -1.2
v 0.9 0.9 -1
v 0.9 0.9 -1.1
v 0.9 1.1 -0.8
v 0.9 1.1 -0.9
v 0.9 1.2 -0.8
v 0.9 1.2 -0.9
v 0.9 1.2 -1
v 0.9 1.3 -0.9
v 0.9 1.3 -1
v 1 0.2 -1.2
v 1 0.2 -1.3
v 1 0.3 -1.1
v 1 0.3 -1.2
v 1 0.4 -1.2
v 1 0.4 -1.3
v 1 0.5 -1
v 1 0.5 -1.1
v 1 0.5 -1.2
v 1 0.7 -0.9
v 1 0.7 -1
v 1 0.7 -1.1
v 1 0.9 -0.8
v 1 0.9 -0.9
v 1 0.9 -1
v 1 1.1 -0.7
v 1 1.1 -0.8
v 1 1.1 -0.9
v 1 1.2 -0.7
v 1 1.2 -0.8
v 1 1.2 -0.9
v 1 1.3 -0.8
v 1 1.3 -0.9
v 1.1 0 -1.2
v 1.1 0 -1.3
v 1.1 0.1 -1.2
v 1.1 0.1 -1.3
v 1.1 0.2 -1.1
v 1.1 0.2 -1.2
v 1.1 0.2 -1.3
v 1.1 0.3 -1.1
v 1.1 0.3 -1.2
v 1.1 0.4 -1
v 1.1 0.4 -1.1
v 1.1 0.5 -1
v 1.1 0.5 -1.1
v 1.1 0.6 -0.9
v 1.1 0.6 -1
v 1.1 0.7 -0.9
v 1.1 0.7 -1
v 1.1 0.8 -0.8
v 1.1 0.8 -0.9
v 1.1 0.9 -0.8
v 1.1 0.9 -0.9
v 1.1 1 -0.7
v 1.1 1 -0.8
v 1.1 1.1 -0.7
v 1.1 1.1 -0.8
v 0.4 1.5 -0.3
v 0.4 1.5 -0.4
v 0.4 1.6 -0.3
v 0.4 1.6 -0.4
v 0.5 0.9 -0.4
v 0.5 0.9 -0.5
v 0.5 1 -0.4
v 0.5 1 -0.5
v 0.5 1.1 -0.5
v 0.5 1.1 -0.6
v 0.5 1.2 -0.4
v 0.5 1.2 -0.5
v 0.5 1.2 -0.6
v 0.5 1.4 -0.4
v 0.5 1.4 -0.5
v 0.5 1.5 -0.4
v 0.5 1.5 -0.5
v 0.5 1.6 -0.4
v 0.5 1.6 -0.5
v 0.6 0.9 -0.5
v 0.6 0.9 -0.6
v 0.6 1 -0.5
v 0.6 1 -0.6
v 0.6 1.2 -0.5
v 0.6 1.2 -0.6
v 0.6 1.2 -0.7
v 0.6 1.3 -0.5
v 0.6 1.3 -0.6
v 0.6 1.4 -0.5
v 0.6 1.4 -0.6
v 0.6 1.4 -0.7
v 0.6 1.5 -0.5
v 0.6 1.5 -0.7
v 0.7 0.9 -0.6
v 0.7 0.9 -0.7
v 0.7 1 -0.6
v 0.7 1 -0.7
v 0.8 0.9 -0.7
v 0.8 0.9 -0.8
v 0.8 1 -0.7
v 0.8 1 -0.8
v 0.9 0.9 -0.8
v 0.9 0.9 -0.9
v 0.9 1 -0.8
v 0.9 1 -0.9
v 1 1.1 -1.2
v 1 1.1 -1.3
v 1 1.2 -1.1
v 1 1.2 -1.2
v 1 1.2 -1.3
v 1 1.3 -1.1
v 1 1.3 -1.2
v 1.1 0.9 -1.2
v 1.1 0.9 -1.3
v 1.1 1.1 -1.1
v 1.1 1.1 -1.2
v 1.1 1.1 -1.3
v 1.1 1.2 -0.8
v 1.1 1.2 -1.1
v 1.1 1.2 -1.2
v 1.1 1.3 -0.8
v 1.1 1.3 -1.1
v 1.2 0 -1.2
v 1.2 0 -1.3
v 1.2 0.1 -1.2
v 1.2 0.1 -1.3
v 1.2 0.2 -1.1
v 1.2 0.2 -1.2
v 1.2 0.4 -1
v 1.2 0.4 -1.1
v 1.2 0.6 -0.9
v 1.2 0.6 -1
v 1.2 0.8 -0.8
v 1.2 0.8 -0.9
v 1.2 0.9 -1.2
v 1.2 0.9 -1.3
v 1.2 1 -0.7
v 1.2 1 -0.8
v 1.2 1.1 -1.1
v 1.2 1.1 -1.2
v 1.2 1.2 -0.7
v 1.2 1.2 -1.1
v 0.3 1.5 -0.3
v 0.3 1.6 -0.3
v 0.4 1.5 -0.3
v 0.4 1.6 -0.3
v 0.4 0.9 -0.4
v 0.4 1 -0.4
v 0.4 1.2 -0.4
v 0.4 1.4 -0.4
v 0.4 1.5 -0.4
v 0.4 1.6 -0.4
v 0.5 0.9 -0.4
v 0.5 1 -0.4
v 0.5 1.2 -0.4
v 0.5 1.4 -0.4
v 0.5 1.5 -0.4
v 0.5 1.6 -0.4
v 0.4 1.2 -0.5
v 0.4 1.3 -0.5
v 0.5 0.9 -0.5
v 0.5 1 -0.5
v 0.5 1.2 -0.5
v 0.5 1.3 -0.5
v 0.5 1.4 -0.5
v 0.5 1.5 -0.5
v 0.6 0.9 -0.5
v 0.6 1 -0.5
v 0.6 1.2 -0.5
v 0.6 1.3 -0.5
v 0.6 1.4 -0.5
v 0.6 1.5 -0.5
v 0.5 1.3 -0.6
v 0.5 1.4 -0.6
v 0.6 0.9 -0.6
v 0.6 1 -0.6
v 0.6 1.3 -0.6
v 0.6 1.4 -0.6
v 0.7 0.9 -0.6
v 0.7 1 -0.6
v 0.7 0.9 -0.7
v 0.7 1 -0.7
v 0.8 0.9 -0.7
v 0.8 1 -0.7
v 1 1.1 -0.7
v 1 1.2 -0.7
v 1.1 1 -0.7
v 1.1 1.1 -0.7
v 1.2 1 -0.7
v 1.2 1.2 -0.7
v 0.8 0.9 -0.8
v 0.8 1 -0.8
v 0.9 0.9 -0.8
v 0.9 1 -0.8
v 0.9 1.1 -0.8
v 0.9 1.2 -0.8
v 1 0.9 -0.8
v 1 1.1 -0.8
v 1 1.2 -0.8
v 1 1.3 -0.8
v 1.1 0.8 -0.8
v 1.1 0.9 -0.8
v 1.1 1 -0.8
v 1.1 1.1 -0.8
v 1.1 1.2 -0.8
v 1.1 1.3 -0.8
v 1.2 0.8 -0.8
v 1.2 1 -0.8
v 0.8 1 -0.9
v 0.8 1.1 -0.9
v 0.8 1.2 -0.9
v 0.9 0.9 -0.9
v 0.9 1 -0.9
v 0.9 1.1 -0.9
v 0.9 1.2 -0.9
v 0.9 1.3 -0.9
v 1 0.7 -0.9
v 1 0.9 -0.9
v 1 1.1 -0.9
v 1 1.2 -0.9
v 1 1.3 -0.9
v 1.1 0.6 -0.9
v 1.1 0.7 -0.9
v 1.1 0.8 -0.9
v 1.1 0.9 -0.9
v 1.2 0.6 -0.9
v 1.2 0.8 -0.9
v 0.7 1.1 -1
v 0.7 1.2 -1
v 0.8 1.1 -1
v 0.8 1.2 -1
v 0.8 1.3 -1
v 0.9 0.7 -1
v 0.9 0.9 -1
v 0.9 1.2 -1
v 0.9 1.3 -1
v 1 0.5 -1
v 1 0.7 -1
v 1 0.9 -1
v 1.1 0.4 -1
v 1.1 0.5 -1
v 1.1 0.6 -1
v 1.1 0.7 -1
v 1.2 0.4 -1
v 1.2 0.6 -1
v 0.6 1.1 -1.1
v 0.6 1.2 -1.1
v 0.7 0.9 -1.1
v 0.7 1.1 -1.1
v 0.7 1.2 -1.1
v 0.7 1.3 -1.1
v 0.8 0.7 -1.1
v 0.8 0.9 -1.1
v 0.8 1.1 -1.1
v 0.8 1.2 -1.1
v 0.8 1.3 -1.1
v 0.9 0.5 -1.1
v 0.9 0.7 -1.1
v 0.9 0.9 -1.1
v 1 0.3 -1.1
v 1 0.5 -1.1
v 1 0.7 -1.1
v 1.1 0.2 -1.1
v 1.1 0.3 -1.1
v 1.1 0.4 -1.1
v 1.1 0.5 -1.1
v 1.2 0.2 -1.1
v 1.2 0.4 -1.1
v 0.6 1 -1.2
v 0.6 1.1 -1.2
v 0.7 0.8 -1.2
v 0.7 0.9 -1.2
v 0.7 1 -1.2
v 0.7 1.1 -1.2
v 0.8 0.6 -1.2
v 0.8 0.7 -1.2
v 0.8 0.8 -1.2
v 0.8 0.9 -1.2
v 0.9 0.4 -1.2
v 0.9 0.5 -1.2
v 0.9 0.6 -1.2
v 0.9 0.7 -1.2
v 1 0.2 -1.2
v 1 0.3 -1.2
v 1 0.4 -1.2
v 1 0.5 -1.2
v 1.1 0 -1.2
v 1.1 0.1 -1.2
v 1.1 0.2 -1.2
v 1.1 0.3 -1.2
v 1.2 0 -1.2
v 1.2 0.1 -1.2
v 1.2 0.2 -1.2
v 0.3 1.5 -0.5
v 0.3 1.6 -0.5
v 0.4 1 -0.5
v 0.4 1.1 -0.5
v 0.4 1.5 -0.5
v 0.4 1.6 -0.5
v 0.5 1 -0.5
v 0.5 1.1 -0.5
v 0.5 1.5 -0.5
v 0.5 1.6 -0.5
v 0.4 0.9 -0.6
v 0.4 1 -0.6
v 0.4 1.1 -0.6
v 0.4 1.3 -0.6
v 0.4 1.4 -0.6
v 0.4 1.5 -0.6
v 0.5 0.9 -0.6
v 0.5 1 -0.6
v 0.5 1.1 -0.6
v 0.5 1.2 -0.6
v 0.5 1.3 -0.6
v 0.5 1.4 -0.6
v 0.5 1.5 -0.6
v 0.5 0.9 -0.7
v 0.5 1 -0.7
v 0.5 1.2 -0.7
v 0.5 1.4 -0.7
v 0.5 1.5 -0.7
v 0.6 0.9 -0.7
v 0.6 1 -0.7
v 0.6 1.2 -0.7
v 0.6 1.4 -0.7
v 0.6 1.5 -0.7
v 0.6 0.9 -0.8
v 0.6 1 -0.8
v 0.7 0.9 -0.8
v 0.7 1 -0.8
v 0.7 0.9 -0.9
v 0.7 1 -0.9
v 0.8 0.9 -0.9
v 0.8 1 -0.9
v 1 1.2 -1.1
v 1 1.3 -1.1
v 1.1 1.1 -1.1
v 1.1 1.2 -1.1
v 1.1 1.3 -1.1
v 1.2 1.1 -1.1
v 1.2 1.2 -1.1
v 0.7 1.2 -1.2
v 0.7 1.3 -1.2
v 1 1.1 -1.2
v 1 1.2 -1.2
v 1 1.3 -1.2
v 1.1 0.9 -1.2
v 1.1 1.1 -1.2
v 1.1 1.2 -1.2
v 1.2 0.9 -1.2
v 1.2 1.1 -1.2
v 0.6 1 -1.3
v 0.6 1.2 -1.3
v 0.7 0.8 -1.3
v 0.7 1 -1.3
v 0.8 0.6 -1.3
v 0.8 0.8 -1.3
v 0.9 0.4 -1.3
v 0.9 0.6 -1.3
v 1 0.2 -1.3
v 1 0.4 -1.3
v 1 1.1 -1.3
v 1 1.2 -1.3
v 1.1 0 -1.3
v 1.1 0.1 -1.3
v 1.1 0.2 -1.3
v 1.1 0.9 -1.3
v 1.1 1.1 -1.3
v 1.2 0 -1.3
v 1.2 0.1 -1.3
v 1.2 0.9 -1.3
v 1.1 0 -1.2
v 1.2 0 -1.2
v 1.1 0 -1.3
v 1.2 0 -1.3
v 1.1 0.2 -1.1
v 1.2 0.2 -1.1
v 1 0.2 -1.2
v 1.1 0.2 -1.2
v 1.2 0.2 -1.2
v 1 0.2 -1.3
v 1.1 0.2 -1.3
v 1 0.3 -1.1
v 1.1 0.3 -1.1
v 1 0.3 -1.2
v 1.1 0.3 -1.2
v 1.1 0.4 -1
v 1.2 0.4 -1
v 1.1 0.4 -1.1
v 1.2 0.4 -1.1
v 0.9 0.4 -1.2
v 1 0.4 -1.2
v 0.9 0.4 -1.3
v 1 0.4 -1.3
v 1 0.5 -1
v 1.1 0.5 -1
v 0.9 0.5 -1.1
v 1 0.5 -1.1
v 1.1 0.5 -1.1
v 0.9 0.5 -1.2
v 1 0.5 -1.2
v 1.1 0.6 -0.9
v 1.2 0.6 -0.9
v 1.1 0.6 -1
v 1.2 0.6 -1
v 0.8 0.6 -1.2
v 0.9 0.6 -1.2
v 0.8 0.6 -1.3
v 0.9 0.6 -1.3
v 1 0.7 -0.9
v 1.1 0.7 -0.9
v 0.9 0.7 -1
v 1 0.7 -1
v 1.1 0.7 -1
v 0.8 0.7 -1.1
v 0.9 0.7 -1.1
v 1 0.7 -1.1
v 0.8 0.7 -1.2
v 0.9 0.7 -1.2
v 1.1 0.8 -0.8
v 1.2 0.8 -0.8
v 1.1 0.8 -0.9
v 1.2 0.8 -0.9
v 0.7 0.8 -1.2
v 0.8 0.8 -1.2
v 0.7 0.8 -1.3
v 0.8 0.8 -1.3
v 0.4 0.9 -0.4
v 0.5 0.9 -0.4
v 0.5 0.9 -0.5
v 0.6 0.9 -0.5
v 0.4 0.9 -0.6
v 0.5 0.9 -0.6
v 0.6 0.9 -0.6
v 0.7 0.9 -0.6
v 0.5 0.9 -0.7
v 0.6 0.9 -0.7
v 0.7 0.9 -0.7
v 0.8 0.9 -0.7
v 0.6 0.9 -0.8
v 0.7 0.9 -0.8
v 0.8 0.9 -0.8
v 0.9 0.9 -0.8
v 1 0.9 -0.8
v 1.1 0.9 -0.8
v 0.7 0.9 -0.9
v 0.8 0.9 -0.9
v 0.9 0.9 -0.9
v 1 0.9 -0.9
v 1.1 0.9 -0.9
v 0.8 0.9 -1
v 0.9 0.9 -1
v 1 0.9 -1
v 0.7 0.9 -1.1
v 0.8 0.9 -1.1
v 0.9 0.9 -1.1
v 0.7 0.9 -1.2
v 0.8 0.9 -1.2
v 1.1 1 -0.7
v 1.2 1 -0.7
v 1.1 1 -0.8
v 1.2 1 -0.8
v 0.6 1 -1.2
v 0.7 1 -1.2
v 0.6 1 -1.3
v 0.7 1 -1.3
v 0.4 1.1 -0.5
v 0.5 1.1 -0.5
v 0.4 1.1 -0.6
v 0.5 1.1 -0.6
v 1 1.1 -0.7
v 1.1 1.1 -0.7
v 0.9 1.1 -0.8
v 1 1.1 -0.8
v 1.1 1.1 -0.8
v 0.9 1.1 -0.9
v 1 1.1 -0.9
v 0.7 1.1 -1
v 0.8 1.1 -1
v 0.6 1.1 -1.1
v 0.7 1.1 -1.1
v 0.8 1.1 -1.1
v 0.6 1.1 -1.2
v 0.7 1.1 -1.2
v 0.5 1.2 -0.5
v 0.6 1.2 -0.5
v 0.5 1.2 -0.6
v 0.6 1.2 -0.6
v 0.5 1.2 -0.7
v 0.6 1.2 -0.7
v 0.4 1.4 -0.4
v 0.5 1.4 -0.4
v 0.5 1.4 -0.5
v 0.6 1.4 -0.5
v 0.4 1.4 -0.6
v 0.5 1.4 -0.6
v 0.6 1.4 -0.6
v 0.3 1.5 -0.3
v 0.4 1.5 -0.3
v 0.4 1.5 -0.4
v 0.3 1.5 -0.5
v 0.4 1.5 -0.5
v 1.1 0.9 -1.2
v 1.2 0.9 -1.2
v 1.1 0.9 -1.3
v 1.2 0.9 -1.3
v 0.4 1 -0.5
v 0.5 1 -0.5
v 0.6 1 -0.5
v 0.4 1 -0.6
v 0.5 1 -0.6
v 0.6 1 -0.6
v 0.7 1 -0.6
v 0.5 1 -0.7
v 0.6 1 -0.7
v 0.7 1 -0.7
v 0.8 1 -0.7
v 0.6 1 -0.8
v 0.7 1 -0.8
v 0.8 1 -0.8
v 0.9 1 -0.8
v 0.7 1 -0.9
v 0.8 1 -0.9
v 0.9 1 -0.9
v 1.1 1.1 -1.1
v 1.2 1.1 -1.1
v 1 1.1 -1.2
v 1.1 1.1 -1.2
v 1.2 1.1 -1.2
v 1 1.1 -1.3
v 1.1 1.1 -1.3
v 0.4 1.2 -0.4
v 0.5 1.2 -0.4
v 0.4 1.2 -0.5
v 0.5 1.2 -0.5
v 1 1.2 -0.7
v 1.2 1.2 -0.7
v 0.9 1.2 -0.8
v 1 1.2 -0.8
v 1.1 1.2 -0.8
v 0.8 1.2 -0.9
v 0.9 1.2 -0.9
v 1 1.2 -0.9
v 0.7 1.2 -1
v 0.8 1.2 -1
v 0.9 1.2 -1
v 0.6 1.2 -1.1
v 0.7 1.2 -1.1
v 0.8 1.2 -1.1
v 1 1.2 -1.1
v 1.1 1.2 -1.1
v 1.2 1.2 -1.1
v 0.7 1.2 -1.2
v 1 1.2 -1.2
v 1.1 1.2 -1.2
v 0.6 1.2 -1.3
v 1 1.2 -1.3
v 0.4 1.3 -0.5
v 0.5 1.3 -0.5
v 0.6 1.3 -0.5
v 0.4 1.3 -0.6
v 0.5 1.3 -0.6
v 0.6 1.3 -0.6
v 1 1.3 -0.8
v 1.1 1.3 -0.8
v 0.9 1.3 -0.9
v 1 1.3 -0.9
v 0.8 1.3 -1
v 0.9 1.3 -1
v 0.7 1.3 -1.1
v 0.8 1.3 -1.1
v 1 1.3 -1.1
v 1.1 1.3 -1.1
v 0.7 1.3 -1.2
v 1 1.3 -1.2
v 0.4 1.5 -0.5
v 0.5 1.5 -0.5
v 0.6 1.5 -0.5
v 0.4 1.5 -0.6
v 0.5 1.5 -0.6
v 0.5 1.5 -0.7
v 0.6 1.5 -0.7
v 0.3 1.6 -0.3
v 0.4 1.6 -0.3
v 0.4 1.6 -0.4
v 0.5 1.6 -0.4
v 0.3 1.6 -0.5
v 0.4 1.6 -0.5
v 0.5 1.6 -0.5

# faces
f 3/3/1 2/3/1 1/3/1
f 4/3/1 2/3/1 3/3/1
f 7/3/1 6/3/1 5/3/1
f 8/3/1 6/3/1 7/3/1
f 9/3/1 6/3/1 8/3/1
f 10/1/1 8/1/1 7/1/1
f 12/1/1 10/1/1 7/1/1
f 13/3/1 11/3/1 10/3/1
f 13/1/1 10/1/1 12/1/1
f 14/3/1 11/3/1 13/3/1
f 15/3/1 11/3/1 14/3/1
f 18/3/1 17/3/1 16/3/1
f 19/3/1 17/3/1 18/3/1
f 20/3/1 17/3/1 19/3/1
f 23/3/1 22/3/1 21/3/1
f 24/3/1 22/3/1 23/3/1
f 27/3/1 26/3/1 25/3/1
f 28/3/1 26/3/1 27/3/1
f 29/3/1 26/3/1 28/3/1
f 30/1/1 29/1/1 28/1/1
f 31/1/1 29/1/1 30/1/1
f 34/3/1 33/3/1 32/3/1
f 35/3/1 33/3/1 34/3/1
f 39/2/1 37/2/1 36/2/1
f 40/2/1 39/2/1 38/2/1
f 41/2/1 37/2/1 39/2/1
f 41/2/1 39/2/1 40/2/1
f 47/2/1 43/2/1 42/2/1
f 48/3/1 45/3/1 44/3/1
f 49/3/1 45/3/1 48/3/1
f 50/2/1 47/2/1 46/2/1
f 50/2/1 43/2/1 47/2/1
f 51/2/1 43/2/1 50/2/1
f 53/2/1 50/2/1 46/2/1
f 54/2/1 50/2/1 53/2/1
f 55/2/1 53/2/1 52/2/1
f 56/2/1 53/2/1 55/2/1
f 58/2/1 57/2/1 56/2/1
f 59/2/1 57/2/1 58/2/1
f 63/2/1 61/2/1 60/2/1
f 64/2/1 61/2/1 63/2/1
f 64/2/1 63/2/1 62/2/1
f 65/2/1 61/2/1 64/2/1
f 68/2/1 64/2/1 62/2/1
f 69/2/1 64/2/1 68/2/1
f 70/3/1 67/3/1 66/3/1
f 71/3/1 67/3/1 70/3/1
f 72/2/1 68/2/1 67/2/1
f 72/3/1 67/3/1 71/3/1
f 73/2/1 68/2/1 72/2/1
f 74/2/1 72/2/1 71/2/1
f 75/2/1 72/2/1 74/2/1
f 77/2/1 76/2/1 75/2/1
f 78/2/1 76/2/1 77/2/1
f 82/2/1 80/2/1 79/2/1
f 83/2/1 80/2/1 82/2/1
f 83/2/1 82/2/1 81/2/1
f 84/2/1 80/2/1 83/2/1
f 86/2/1 83/2/1 81/2/1
f 87/2/1 83/2/1 86/2/1
f 88/2/1 86/2/1 85/2/1
f 89/2/1 86/2/1 88/2/1
f 92/2/1 91/2/1 90/2/1
f 93/2/1 91/2/1 92/2/1
f 95/2/1 94/2/1 93/2/1
f 96/2/1 94/2/1 95/2/1
f 100/2/1 98/2/1 97/2/1
f 101/2/1 98/2/1 100/2/1
f 101/2/1 100/2/1 99/2/1
f 102/2/1 98/2/1 101/2/1
f 104/2/1 101/2/1 99/2/1
f 105/2/1 101/2/1 104/2/1
f 107/2/1 104/2/1 103/2/1
f 108/2/1 104/2/1 107/2/1
f 110/2/1 107/2/1 106/2/1
f 111/2/1 107/2/1 110/2/1
f 113/2/1 110/2/1 109/2/1
f 114/2/1 110/2/1 113/2/1
f 115/2/1 113/2/1 112/2/1
f 116/2/1 113/2/1 115/2/1
f 118/2/1 117/2/1 116/2/1
f 119/2/1 117/2/1 118/2/1
f 122/4/1 121/4/1 120/4/1
f 123/4/1 121/4/1 122/4/1
f 125/2/1 123/2/1 122/2/1
f 126/2/1 123/2/1 125/2/1
f 127/2/1 125/2/1 124/2/1
f 128/2/1 125/2/1 127/2/1
f 131/2/1 130/2/1 129/2/1
f 132/2/1 130/2/1 131/2/1
f 135/2/1 134/2/1 133/2/1
f 136/2/1 134/2/1 135/2/1
f 139/2/1 138/2/1 137/2/1
f 140/2/1 138/2/1 139/2/1
f 143/2/1 142/2/1 141/2/1
f 144/2/1 142/2/1 143/2/1
f 145/3/2 146/3/2 147/3/2
f 147/3/2 146/3/2 148/3/2
f 149/3/2 150/3/2 151/3/2
f 151/3/2 150/3/2 152/3/2
f 151/1/2 152/1/2 153/1/2
f 151/1/2 153/1/2 155/1/2
f 153/3/2 154/3/2 156/3/2
f 155/1/2 153/1/2 156/1/2
f 156/3/2 154/3/2 157/3/2
f 158/3/2 159/3/2 160/3/2
f 160/3/2 159/3/2 161/3/2
f 160/1/2 161/1/2 162/1/2
f 162/1/2 161/1/2 163/1/2
f 164/1/2 165/1/2 166/1/2
f 166/1/2 165/1/2 167/1/2
f 168/1/2 169/1/2 171/1/2
f 169/3/2 170/3/2 172/3/2
f 171/1/2 169/1/2 172/1/2
f 172/3/2 170/3/2 174/3/2
f 174/3/2 170/3/2 175/3/2
f 173/1/2 174/1/2 176/1/2
f 174/1/2 175/1/2 176/1/2
f 176/1/2 175/1/2 177/1/2
f 178/1/2 179/1/2 180/1/2
f 180/1/2 179/1/2 181/1/2
f 182/1/2 183/1/2 184/1/2
f 184/1/2 183/1/2 185/1/2
f 186/3/2 187/3/2 188/3/2
f 188/3/2 187/3/2 189/3/2
f 190/2/2 191/2/2 193/2/2
f 193/2/2 191/2/2 194/2/2
f 192/2/2 193/2/2 195/2/2
f 195/2/2 193/2/2 196/2/2
f 197/2/2 198/2/2 200/2/2
f 200/2/2 198/2/2 201/2/2
f 199/2/2 200/2/2 203/2/2
f 203/2/2 200/2/2 204/2/2
f 202/2/2 203/2/2 205/2/2
f 205/2/2 203/2/2 206/2/2
f 207/4/2 208/4/2 209/4/2
f 209/4/2 208/4/2 210/4/2
f 209/2/2 210/2/2 212/2/2
f 211/2/2 212/2/2 214/2/2
f 213/2/2 214/2/2 216/2/2
f 215/2/2 216/2/2 218/2/2
f 212/2/2 210/2/2 219/2/2
f 217/2/2 218/2/2 219/2/2
f 218/2/2 216/2/2 219/2/2
f 214/2/2 212/2/2 219/2/2
f 216/2/2 214/2/2 219/2/2
f 219/2/2 210/2/2 220/2/2
f 217/2/2 219/2/2 222/2/2
f 222/2/2 219/2/2 223/2/2
f 221/2/2 222/2/2 223/2/2
f 223/2/2 219/2/2 224/2/2
f 221/2/2 223/2/2 225/2/2
f 225/2/2 223/2/2 226/2/2
f 229/3/3 228/3/3 227/3/3
f 230/3/3 228/3/3 229/3/3
f 237/3/3 232/3/3 231/3/3
f 238/1/3 233/1/3 232/1/3
f 238/3/3 232/3/3 237/3/3
f 239/1/3 233/1/3 238/1/3
f 240/3/3 235/3/3 234/3/3
f 241/1/3 236/1/3 235/1/3
f 241/3/3 235/3/3 240/3/3
f 242/1/3 236/1/3 241/1/3
f 247/3/3 244/3/3 243/3/3
f 248/3/3 244/3/3 247/3/3
f 251/1/3 246/1/3 245/1/3
f 252/1/3 246/1/3 251/1/3
f 253/1/3 248/1/3 247/1/3
f 254/1/3 248/1/3 253/1/3
f 255/1/3 250/1/3 249/1/3
f 256/1/3 250/1/3 255/1/3
f 261/3/3 258/3/3 257/3/3
f 262/3/3 258/3/3 261/3/3
f 263/1/3 260/1/3 259/1/3
f 264/1/3 260/1/3 263/1/3
f 267/1/3 266/1/3 265/1/3
f 268/1/3 266/1/3 267/1/3
f 272/2/3 270/2/3 269/2/3
f 273/2/3 272/2/3 271/2/3
f 274/2/3 270/2/3 272/2/3
f 274/2/3 272/2/3 273/2/3
f 277/3/3 276/3/3 275/3/3
f 278/3/3 276/3/3 277/3/3
f 282/2/3 280/2/3 279/2/3
f 283/2/3 280/2/3 282/2/3
f 286/2/3 282/2/3 281/2/3
f 287/2/3 282/2/3 286/2/3
f 288/2/3 282/2/3 287/2/3
f 289/2/3 284/2/3 283/2/3
f 290/2/3 284/2/3 289/2/3
f 291/2/3 286/2/3 285/2/3
f 291/2/3 287/2/3 286/2/3
f 292/2/3 287/2/3 291/2/3
f 297/3/3 294/3/3 293/3/3
f 298/2/3 295/2/3 294/2/3
f 298/3/3 294/3/3 297/3/3
f 299/2/3 295/2/3 298/2/3
f 302/2/3 297/2/3 296/2/3
f 302/2/3 298/2/3 297/2/3
f 303/2/3 298/2/3 302/2/3
f 304/2/3 300/2/3 299/2/3
f 305/2/3 300/2/3 304/2/3
f 307/2/3 302/2/3 301/2/3
f 308/2/3 302/2/3 307/2/3
f 309/2/3 302/2/3 308/2/3
f 310/2/3 307/2/3 306/2/3
f 310/2/3 308/2/3 307/2/3
f 311/2/3 308/2/3 310/2/3
f 314/2/3 313/2/3 312/2/3
f 315/2/3 313/2/3 314/2/3
f 319/2/3 316/2/3 315/2/3
f 320/2/3 316/2/3 319/2/3
f 322/2/3 318/2/3 317/2/3
f 323/2/3 318/2/3 322/2/3
f 325/2/3 322/2/3 321/2/3
f 326/2/3 322/2/3 325/2/3
f 327/2/3 322/2/3 326/2/3
f 328/2/3 325/2/3 324/2/3
f 328/2/3 326/2/3 325/2/3
f 329/2/3 326/2/3 328/2/3
f 333/2/3 331/2/3 330/2/3
f 334/2/3 331/2/3 333/2/3
f 337/2/3 333/2/3 332/2/3
f 338/2/3 333/2/3 337/2/3
f 339/2/3 335/2/3 334/2/3
f 340/2/3 335/2/3 339/2/3
f 342/2/3 337/2/3 336/2/3
f 343/2/3 337/2/3 342/2/3
f 345/2/3 342/2/3 341/2/3
f 346/2/3 342/2/3 345/2/3
f 348/2/3 345/2/3 344/2/3
f 349/2/3 345/2/3 348/2/3
f 350/2/3 345/2/3 349/2/3
f 351/2/3 348/2/3 347/2/3
f 351/2/3 349/2/3 348/2/3
f 352/2/3 349/2/3 351/2/3
f 357/2/3 354/2/3 353/2/3
f 358/2/3 354/2/3 357/2/3
f 361/2/3 356/2/3 355/2/3
f 362/2/3 356/2/3 361/2/3
f 365/2/3 360/2/3 359/2/3
f 366/2/3 360/2/3 365/2/3
f 369/2/3 364/2/3 363/2/3
f 370/2/3 364/2/3 369/2/3
f 373/2/3 368/2/3 367/2/3
f 374/2/3 368/2/3 373/2/3
f 375/4/3 372/4/3 371/4/3
f 376/2/3 373/2/3 372/2/3
f 376/4/3 372/4/3 375/4/3
f 377/2/3 373/2/3 376/2/3
f 378/3/4 379/3/4 382/3/4
f 382/3/4 379/3/4 383/3/4
f 380/1/4 381/1/4 384/1/4
f 384/1/4 381/1/4 385/1/4
f 382/1/4 383/1/4 386/1/4
f 386/1/4 383/1/4 387/1/4
f 388/3/4 389/3/4 394/3/4
f 394/3/4 389/3/4 395/3/4
f 390/3/4 391/3/4 396/3/4
f 396/3/4 391/3/4 397/3/4
f 397/3/4 391/3/4 398/3/4
f 392/3/4 393/3/4 399/3/4
f 399/3/4 393/3/4 400/3/4
f 401/3/4 402/3/4 406/3/4
f 406/3/4 402/3/4 407/3/4
f 403/3/4 404/3/4 408/3/4
f 404/1/4 405/1/4 409/1/4
f 408/3/4 404/3/4 409/3/4
f 409/1/4 405/1/4 410/1/4
f 411/3/4 412/3/4 413/3/4
f 413/3/4 412/3/4 414/3/4
f 415/3/4 416/3/4 417/3/4
f 417/3/4 416/3/4 418/3/4
f 419/2/4 420/2/4 422/2/4
f 422/2/4 420/2/4 423/2/4
f 421/2/4 422/2/4 424/2/4
f 424/2/4 422/2/4 425/2/4
f 426/2/4 427/2/4 429/2/4
f 429/2/4 427/2/4 430/2/4
f 428/2/4 429/2/4 432/2/4
f 432/2/4 429/2/4 433/2/4
f 431/2/4 432/2/4 434/2/4
f 434/2/4 432/2/4 435/2/4
f 436/2/4 437/2/4 439/2/4
f 438/2/4 439/2/4 441/2/4
f 440/2/4 441/2/4 443/2/4
f 442/2/4 443/2/4 445/2/4
f 439/2/4 437/2/4 446/2/4
f 441/2/4 439/2/4 446/2/4
f 445/2/4 443/2/4 446/2/4
f 443/2/4 441/2/4 446/2/4
f 446/2/4 437/2/4 447/2/4
f 444/2/4 445/2/4 450/2/4
f 445/2/4 446/2/4 450/2/4
f 450/2/4 446/2/4 451/2/4
f 451/2/4 446/2/4 452/2/4
f 448/4/4 449/4/4 453/4/4
f 449/2/4 450/2/4 454/2/4
f 453/4/4 449/4/4 454/4/4
f 450/2/4 451/2/4 454/2/4
f 454/2/4 451/2/4 455/2/4
f 458/4/5 457/4/5 456/4/5
f 459/4/5 457/4/5 458/4/5
f 463/2/5 461/2/5 460/2/5
f 464/2/5 461/2/5 463/2/5
f 465/2/5 463/2/5 462/2/5
f 466/2/5 463/2/5 465/2/5
f 469/2/5 468/2/5 467/2/5
f 470/2/5 468/2/5 469/2/5
f 473/2/5 472/2/5 471/2/5
f 474/2/5 472/2/5 473/2/5
f 477/2/5 476/2/5 475/2/5
f 478/2/5 476/2/5 477/2/5
f 482/2/5 480/2/5 479/2/5
f 483/2/5 480/2/5 482/2/5
f 484/2/5 482/2/5 481/2/5
f 485/2/5 482/2/5 484/2/5
f 488/2/5 487/2/5 486/2/5
f 489/2/5 487/2/5 488/2/5
f 492/2/5 491/2/5 490/2/5
f 493/2/5 491/2/5 492/2/5
f 497/2/5 495/2/5 494/2/5
f 498/2/5 495/2/5 497/2/5
f 500/2/5 497/2/5 496/2/5
f 501/2/5 497/2/5 500/2/5
f 502/2/5 500/2/5 499/2/5
f 503/2/5 500/2/5 502/2/5
f 506/2/5 505/2/5 504/2/5
f 507/2/5 505/2/5 506/2/5
f 510/2/5 509/2/5 508/2/5
f 511/2/5 509/2/5 510/2/5
f 514/3/5 513/3/5 512/3/5
f 516/3/5 514/3/5 512/3/5
f 517/1/5 515/1/5 514/1/5
f 517/3/5 514/3/5 516/3/5
f 518/1/5 515/1/5 517/1/5
f 520/3/5 518/3/5 517/3/5
f 521/1/5 519/1/5 518/1/5
f 521/3/5 518/3/5 520/3/5
f 522/1/5 519/1/5 521/1/5
f 524/3/5 522/3/5 521/3/5
f 525/1/5 523/1/5 522/1/5
f 525/3/5 522/3/5 524/3/5
f 526/1/5 523/1/5 525/1/5
f 530/3/5 526/3/5 525/3/5
f 530/3/5 527/3/5 526/3/5
f 531/3/5 527/3/5 530/3/5
f 532/3/5 527/3/5 531/3/5
f 533/2/5 529/2/5 528/2/5
f 534/2/5 529/2/5 533/2/5
f 535/3/5 532/3/5 531/3/5
f 536/2/5 533/2/5 532/2/5
f 536/3/5 532/3/5 535/3/5
f 537/2/5 533/2/5 536/2/5
f 539/2/5 536/2/5 535/2/5
f 540/2/5 536/2/5 539/2/5
f 541/2/5 539/2/5 538/2/5
f 542/2/5 539/2/5 541/2/5
f 545/2/5 544/2/5 543/2/5
f 546/2/5 544/2/5 545/2/5
f 549/2/5 548/2/5 547/2/5
f 550/2/5 548/2/5 549/2/5
f 553/3/5 552/3/5 551/3/5
f 554/3/5 552/3/5 553/3/5
f 558/2/5 556/2/5 555/2/5
f 559/2/5 556/2/5 558/2/5
f 560/2/5 558/2/5 557/2/5
f 561/2/5 558/2/5 560/2/5
f 565/2/5 563/2/5 562/2/5
f 566/2/5 563/2/5 565/2/5
f 567/2/5 565/2/5 564/2/5
f 568/2/5 565/2/5 567/2/5
f 571/1/5 570/1/5 569/1/5
f 572/1/5 570/1/5 571/1/5
f 573/3/5 572/3/5 571/3/5
f 574/3/5 572/3/5 573/3/5
f 577/3/5 576/3/5 575/3/5
f 579/3/5 577/3/5 575/3/5
f 580/1/5 578/1/5 577/1/5
f 580/3/5 577/3/5 579/3/5
f 581/1/5 578/1/5 580/1/5
f 584/3/5 583/3/5 582/3/5
f 585/3/5 584/3/5 582/3/5
f 586/3/5 584/3/5 585/3/5
f 587/2/6 588/2/6 589/2/6
f 589/2/6 588/2/6 590/2/6
f 591/3/6 592/3/6 594/3/6
f 592/1/6 593/1/6 595/1/6
f 594/3/6 592/3/6 595/3/6
f 595/1/6 593/1/6 596/1/6
f 595/3/6 596/3/6 598/3/6
f 596/1/6 597/1/6 599/1/6
f 598/3/6 596/3/6 599/3/6
f 599/1/6 597/1/6 600/1/6
f 599/3/6 600/3/6 602/3/6
f 600/1/6 601/1/6 603/1/6
f 602/3/6 600/3/6 603/3/6
f 603/1/6 601/1/6 604/1/6
f 604/3/6 605/3/6 606/3/6
f 603/3/6 604/3/6 606/3/6
f 606/3/6 605/3/6 607/3/6
f 607/3/6 605/3/6 608/3/6
f 609/2/6 610/2/6 612/2/6
f 612/2/6 610/2/6 613/2/6
f 611/2/6 612/2/6 614/2/6
f 614/2/6 612/2/6 615/2/6
f 616/1/6 617/1/6 618/1/6
f 618/1/6 617/1/6 619/1/6
f 620/2/6 621/2/6 623/2/6
f 623/2/6 621/2/6 624/2/6
f 622/2/6 623/2/6 626/2/6
f 626/2/6 623/2/6 627/2/6
f 625/2/6 626/2/6 629/2/6
f 629/2/6 626/2/6 630/2/6
f 628/2/6 629/2/6 632/2/6
f 632/2/6 629/2/6 633/2/6
f 624/2/6 621/2/6 635/2/6
f 635/2/6 621/2/6 636/2/6
f 631/2/6 632/2/6 637/2/6
f 634/2/6 635/2/6 638/2/6
f 638/2/6 635/2/6 639/2/6
f 631/2/6 637/2/6 640/2/6
f 637/2/6 638/2/6 640/2/6
f 640/2/6 638/2/6 641/2/6
f 642/3/6 643/3/6 645/3/6
f 643/1/6 644/1/6 646/1/6
f 645/3/6 643/3/6 646/3/6
f 646/1/6 644/1/6 647/1/6
f 648/2/6 649/2/6 651/2/6
f 650/2/6 651/2/6 653/2/6
f 652/2/6 653/2/6 655/2/6
f 651/2/6 649/2/6 656/2/6
f 653/2/6 651/2/6 656/2/6
f 655/2/6 653/2/6 656/2/6
f 656/2/6 649/2/6 657/2/6
f 654/2/6 655/2/6 658/2/6
f 655/2/6 656/2/6 658/2/6
f 658/2/6 656/2/6 659/2/6
f 660/3/6 661/3/6 663/3/6
f 661/1/6 662/1/6 664/1/6
f 663/3/6 661/3/6 664/3/6
f 664/1/6 662/1/6 665/1/6
f 665/1/6 662/1/6 666/1/6
f 667/3/6 668/3/6 669/3/6
f 667/3/6 669/3/6 671/3/6
f 669/1/6 670/1/6 672/1/6
f 671/3/6 669/3/6 672/3/6
f 672/1/6 670/1/6 673/1/6
