# MagicaVoxel @ Ephtracy

# group
o 

# material
mtllib Red Crab-2.mtl
usemtl palette

# normals
vn -1 0 0
vn 1 0 0
vn 0 0 1
vn 0 0 -1
vn 0 -1 0
vn 0 1 0

# texcoords
vt 0.0917969 0.5
vt 0.853516 0.5
vt 0.986328 0.5
vt 0.994141 0.5

# verts
v 0.3 1.5 0.6
v 0.3 1.5 0.4
v 0.3 1.6 0.6
v 0.3 1.6 0.4
v 0.4 0.9 0.7
v 0.4 0.9 0.5
v 0.4 1 0.7
v 0.4 1 0.6
v 0.4 1 0.5
v 0.4 1.1 0.7
v 0.4 1.1 0.6
v 0.4 1.2 0.7
v 0.4 1.2 0.6
v 0.4 1.2 0.5
v 0.4 1.3 0.7
v 0.4 1.3 0.6
v 0.4 1.4 0.7
v 0.4 1.4 0.6
v 0.4 1.4 0.5
v 0.4 1.5 0.7
v 0.4 1.5 0.6
v 0.4 1.5 0.5
v 0.5 0.9 0.8
v 0.5 0.9 0.7
v 0.5 1 0.8
v 0.5 1 0.7
v 0.5 1.2 0.8
v 0.5 1.2 0.7
v 0.5 1.3 0.7
v 0.5 1.4 0.8
v 0.5 1.4 0.7
v 0.5 1.5 0.8
v 0.5 1.5 0.7
v 0.6 0.9 0.9
v 0.6 0.9 0.8
v 0.6 1 1.4
v 0.6 1 1.3
v 0.6 1 0.9
v 0.6 1 0.8
v 0.6 1.1 1.3
v 0.6 1.1 1.2
v 0.6 1.2 1.4
v 0.6 1.2 1.2
v 0.7 0.8 1.4
v 0.7 0.8 1.3
v 0.7 0.9 1.3
v 0.7 0.9 1.2
v 0.7 0.9 1
v 0.7 0.9 0.9
v 0.7 1 1.4
v 0.7 1 1.3
v 0.7 1 1
v 0.7 1 0.9
v 0.7 1.1 1.3
v 0.7 1.1 1.2
v 0.7 1.1 1.1
v 0.7 1.2 1.3
v 0.7 1.2 1.2
v 0.7 1.2 1.1
v 0.7 1.3 1.3
v 0.7 1.3 1.2
v 0.8 0.6 1.4
v 0.8 0.6 1.3
v 0.8 0.7 1.3
v 0.8 0.7 1.2
v 0.8 0.8 1.4
v 0.8 0.8 1.3
v 0.8 0.9 1.3
v 0.8 0.9 1.2
v 0.8 0.9 1.1
v 0.8 0.9 1
v 0.8 1 1
v 0.8 1.1 1.2
v 0.8 1.1 1.1
v 0.8 1.1 1
v 0.8 1.2 1.2
v 0.8 1.2 1.1
v 0.8 1.2 1
v 0.8 1.3 1.2
v 0.8 1.3 1.1
v 0.9 0.4 1.4
v 0.9 0.4 1.3
v 0.9 0.5 1.3
v 0.9 0.5 1.2
v 0.9 0.6 1.4
v 0.9 0.6 1.3
v 0.9 0.7 1.3
v 0.9 0.7 1.2
v 0.9 0.7 1.1
v 0.9 0.9 1.2
v 0.9 0.9 1.1
v 0.9 1.1 1
v 0.9 1.1 0.9
v 0.9 1.2 1.1
v 0.9 1.2 1
v 0.9 1.2 0.9
v 0.9 1.3 1.1
v 0.9 1.3 1
v 1 0.2 1.4
v 1 0.2 1.3
v 1 0.3 1.3
v 1 0.3 1.2
v 1 0.4 1.4
v 1 0.4 1.3
v 1 0.5 1.3
v 1 0.5 1.2
v 1 0.5 1.1
v 1 0.7 1.2
v 1 0.7 1.1
v 1 0.7 1
v 1 0.9 1.1
v 1 0.9 1
v 1 0.9 0.9
v 1 1.1 1
v 1 1.1 0.9
v 1 1.1 0.8
v 1 1.2 1
v 1 1.2 0.9
v 1 1.2 0.8
v 1 1.3 1
v 1 1.3 0.9
v 1.1 0 1.4
v 1.1 0 1.3
v 1.1 0.1 1.4
v 1.1 0.1 1.3
v 1.1 0.2 1.4
v 1.1 0.2 1.3
v 1.1 0.2 1.2
v 1.1 0.3 1.3
v 1.1 0.3 1.2
v 1.1 0.4 1.2
v 1.1 0.4 1.1
v 1.1 0.5 1.2
v 1.1 0.5 1.1
v 1.1 0.6 1.1
v 1.1 0.6 1
v 1.1 0.7 1.1
v 1.1 0.7 1
v 1.1 0.8 1
v 1.1 0.8 0.9
v 1.1 0.9 1
v 1.1 0.9 0.9
v 1.1 1 0.9
v 1.1 1 0.8
v 1.1 1.1 0.9
v 1.1 1.1 0.8
v 0.4 1.5 0.5
v 0.4 1.5 0.4
v 0.4 1.6 0.5
v 0.4 1.6 0.4
v 0.5 0.9 0.6
v 0.5 0.9 0.5
v 0.5 1 0.6
v 0.5 1 0.5
v 0.5 1.1 0.7
v 0.5 1.1 0.6
v 0.5 1.2 0.7
v 0.5 1.2 0.6
v 0.5 1.2 0.5
v 0.5 1.4 0.6
v 0.5 1.4 0.5
v 0.5 1.5 0.6
v 0.5 1.6 0.6
v 0.5 1.6 0.5
v 0.6 0.9 0.7
v 0.6 0.9 0.6
v 0.6 1 0.7
v 0.6 1 0.6
v 0.6 1.2 0.8
v 0.6 1.2 0.6
v 0.6 1.3 0.7
v 0.6 1.3 0.6
v 0.6 1.4 0.8
v 0.6 1.4 0.7
v 0.6 1.4 0.6
v 0.6 1.5 0.8
v 0.6 1.5 0.7
v 0.6 1.5 0.6
v 0.7 0.9 0.8
v 0.7 0.9 0.7
v 0.7 1 0.8
v 0.7 1 0.7
v 0.8 0.9 0.9
v 0.8 0.9 0.8
v 0.8 1 0.9
v 0.8 1 0.8
v 0.9 0.9 1
v 0.9 0.9 0.9
v 0.9 1 1
v 0.9 1 0.9
v 1 1.1 1.4
v 1 1.1 1.3
v 1 1.2 1.4
v 1 1.2 1.3
v 1 1.2 1.2
v 1 1.3 1.3
v 1 1.3 1.2
v 1.1 0.9 1.4
v 1.1 0.9 1.3
v 1.1 1.1 1.4
v 1.1 1.1 1.3
v 1.1 1.1 1.2
v 1.1 1.2 1.3
v 1.1 1.2 1.2
v 1.1 1.2 0.9
v 1.1 1.3 1.2
v 1.1 1.3 0.9
v 1.2 0 1.4
v 1.2 0 1.3
v 1.2 0.1 1.4
v 1.2 0.1 1.3
v 1.2 0.2 1.3
v 1.2 0.2 1.2
v 1.2 0.4 1.2
v 1.2 0.4 1.1
v 1.2 0.6 1.1
v 1.2 0.6 1
v 1.2 0.8 1
v 1.2 0.8 0.9
v 1.2 0.9 1.4
v 1.2 0.9 1.3
v 1.2 1 0.9
v 1.2 1 0.8
v 1.2 1.1 1.3
v 1.2 1.1 1.2
v 1.2 1.2 1.2
v 1.2 1.2 0.8
v 0.6 1 1.4
v 0.6 1.2 1.4
v 0.7 0.8 1.4
v 0.7 1 1.4
v 0.8 0.6 1.4
v 0.8 0.8 1.4
v 0.9 0.4 1.4
v 0.9 0.6 1.4
v 1 0.2 1.4
v 1 0.4 1.4
v 1 1.1 1.4
v 1 1.2 1.4
v 1.1 0 1.4
v 1.1 0.1 1.4
v 1.1 0.2 1.4
v 1.1 0.9 1.4
v 1.1 1.1 1.4
v 1.2 0 1.4
v 1.2 0.1 1.4
v 1.2 0.9 1.4
v 0.7 1.2 1.3
v 0.7 1.3 1.3
v 1 1.1 1.3
v 1 1.2 1.3
v 1 1.3 1.3
v 1.1 0.9 1.3
v 1.1 1.1 1.3
v 1.1 1.2 1.3
v 1.2 0.9 1.3
v 1.2 1.1 1.3
v 1 1.2 1.2
v 1 1.3 1.2
v 1.1 1.1 1.2
v 1.1 1.2 1.2
v 1.1 1.3 1.2
v 1.2 1.1 1.2
v 1.2 1.2 1.2
v 0.7 0.9 1
v 0.7 1 1
v 0.8 0.9 1
v 0.8 1 1
v 0.6 0.9 0.9
v 0.6 1 0.9
v 0.7 0.9 0.9
v 0.7 1 0.9
v 0.5 0.9 0.8
v 0.5 1 0.8
v 0.5 1.2 0.8
v 0.5 1.4 0.8
v 0.5 1.5 0.8
v 0.6 0.9 0.8
v 0.6 1 0.8
v 0.6 1.2 0.8
v 0.6 1.4 0.8
v 0.6 1.5 0.8
v 0.4 0.9 0.7
v 0.4 1 0.7
v 0.4 1.1 0.7
v 0.4 1.2 0.7
v 0.4 1.3 0.7
v 0.4 1.4 0.7
v 0.4 1.5 0.7
v 0.5 0.9 0.7
v 0.5 1 0.7
v 0.5 1.1 0.7
v 0.5 1.2 0.7
v 0.5 1.3 0.7
v 0.5 1.4 0.7
v 0.5 1.5 0.7
v 0.3 1.5 0.6
v 0.3 1.6 0.6
v 0.4 1 0.6
v 0.4 1.1 0.6
v 0.4 1.5 0.6
v 0.5 1 0.6
v 0.5 1.1 0.6
v 0.5 1.5 0.6
v 0.5 1.6 0.6
v 0.6 1 1.3
v 0.6 1.1 1.3
v 0.7 0.8 1.3
v 0.7 0.9 1.3
v 0.7 1 1.3
v 0.7 1.1 1.3
v 0.8 0.6 1.3
v 0.8 0.7 1.3
v 0.8 0.8 1.3
v 0.8 0.9 1.3
v 0.9 0.4 1.3
v 0.9 0.5 1.3
v 0.9 0.6 1.3
v 0.9 0.7 1.3
v 1 0.2 1.3
v 1 0.3 1.3
v 1 0.4 1.3
v 1 0.5 1.3
v 1.1 0 1.3
v 1.1 0.1 1.3
v 1.1 0.2 1.3
v 1.1 0.3 1.3
v 1.2 0 1.3
v 1.2 0.1 1.3
v 1.2 0.2 1.3
v 0.6 1.1 1.2
v 0.6 1.2 1.2
v 0.7 0.9 1.2
v 0.7 1.1 1.2
v 0.7 1.2 1.2
v 0.7 1.3 1.2
v 0.8 0.7 1.2
v 0.8 0.9 1.2
v 0.8 1.1 1.2
v 0.8 1.2 1.2
v 0.8 1.3 1.2
v 0.9 0.5 1.2
v 0.9 0.7 1.2
v 0.9 0.9 1.2
v 1 0.3 1.2
v 1 0.5 1.2
v 1 0.7 1.2
v 1.1 0.2 1.2
v 1.1 0.3 1.2
v 1.1 0.4 1.2
v 1.1 0.5 1.2
v 1.2 0.2 1.2
v 1.2 0.4 1.2
v 0.7 1.1 1.1
v 0.7 1.2 1.1
v 0.8 1.1 1.1
v 0.8 1.2 1.1
v 0.8 1.3 1.1
v 0.9 0.7 1.1
v 0.9 0.9 1.1
v 0.9 1.2 1.1
v 0.9 1.3 1.1
v 1 0.5 1.1
v 1 0.7 1.1
v 1 0.9 1.1
v 1.1 0.4 1.1
v 1.1 0.5 1.1
v 1.1 0.6 1.1
v 1.1 0.7 1.1
v 1.2 0.4 1.1
v 1.2 0.6 1.1
v 0.8 1 1
v 0.8 1.1 1
v 0.8 1.2 1
v 0.9 0.9 1
v 0.9 1 1
v 0.9 1.1 1
v 0.9 1.2 1
v 0.9 1.3 1
v 1 0.7 1
v 1 0.9 1
v 1 1.1 1
v 1 1.2 1
v 1 1.3 1
v 1.1 0.6 1
v 1.1 0.7 1
v 1.1 0.8 1
v 1.1 0.9 1
v 1.2 0.6 1
v 1.2 0.8 1
v 0.8 0.9 0.9
v 0.8 1 0.9
v 0.9 0.9 0.9
v 0.9 1 0.9
v 0.9 1.1 0.9
v 0.9 1.2 0.9
v 1 0.9 0.9
v 1 1.1 0.9
v 1 1.2 0.9
v 1 1.3 0.9
v 1.1 0.8 0.9
v 1.1 0.9 0.9
v 1.1 1 0.9
v 1.1 1.1 0.9
v 1.1 1.2 0.9
v 1.1 1.3 0.9
v 1.2 0.8 0.9
v 1.2 1 0.9
v 0.7 0.9 0.8
v 0.7 1 0.8
v 0.8 0.9 0.8
v 0.8 1 0.8
v 1 1.1 0.8
v 1 1.2 0.8
v 1.1 1 0.8
v 1.1 1.1 0.8
v 1.2 1 0.8
v 1.2 1.2 0.8
v 0.5 1.3 0.7
v 0.5 1.4 0.7
v 0.6 0.9 0.7
v 0.6 1 0.7
v 0.6 1.3 0.7
v 0.6 1.4 0.7
v 0.7 0.9 0.7
v 0.7 1 0.7
v 0.4 1.2 0.6
v 0.4 1.3 0.6
v 0.5 0.9 0.6
v 0.5 1 0.6
v 0.5 1.2 0.6
v 0.5 1.3 0.6
v 0.5 1.4 0.6
v 0.5 1.5 0.6
v 0.6 0.9 0.6
v 0.6 1 0.6
v 0.6 1.2 0.6
v 0.6 1.3 0.6
v 0.6 1.4 0.6
v 0.6 1.5 0.6
v 0.4 0.9 0.5
v 0.4 1 0.5
v 0.4 1.2 0.5
v 0.4 1.4 0.5
v 0.4 1.5 0.5
v 0.4 1.6 0.5
v 0.5 0.9 0.5
v 0.5 1 0.5
v 0.5 1.2 0.5
v 0.5 1.4 0.5
v 0.5 1.6 0.5
v 0.3 1.5 0.4
v 0.3 1.6 0.4
v 0.4 1.5 0.4
v 0.4 1.6 0.4
v 1.1 0 1.4
v 1.2 0 1.4
v 1.1 0 1.3
v 1.2 0 1.3
v 1 0.2 1.4
v 1.1 0.2 1.4
v 1 0.2 1.3
v 1.1 0.2 1.3
v 1.2 0.2 1.3
v 1.1 0.2 1.2
v 1.2 0.2 1.2
v 1 0.3 1.3
v 1.1 0.3 1.3
v 1 0.3 1.2
v 1.1 0.3 1.2
v 0.9 0.4 1.4
v 1 0.4 1.4
v 0.9 0.4 1.3
v 1 0.4 1.3
v 1.1 0.4 1.2
v 1.2 0.4 1.2
v 1.1 0.4 1.1
v 1.2 0.4 1.1
v 0.9 0.5 1.3
v 1 0.5 1.3
v 0.9 0.5 1.2
v 1 0.5 1.2
v 1.1 0.5 1.2
v 1 0.5 1.1
v 1.1 0.5 1.1
v 0.8 0.6 1.4
v 0.9 0.6 1.4
v 0.8 0.6 1.3
v 0.9 0.6 1.3
v 1.1 0.6 1.1
v 1.2 0.6 1.1
v 1.1 0.6 1
v 1.2 0.6 1
v 0.8 0.7 1.3
v 0.9 0.7 1.3
v 0.8 0.7 1.2
v 0.9 0.7 1.2
v 1 0.7 1.2
v 0.9 0.7 1.1
v 1 0.7 1.1
v 1.1 0.7 1.1
v 1 0.7 1
v 1.1 0.7 1
v 0.7 0.8 1.4
v 0.8 0.8 1.4
v 0.7 0.8 1.3
v 0.8 0.8 1.3
v 1.1 0.8 1
v 1.2 0.8 1
v 1.1 0.8 0.9
v 1.2 0.8 0.9
v 0.7 0.9 1.3
v 0.8 0.9 1.3
v 0.7 0.9 1.2
v 0.8 0.9 1.2
v 0.9 0.9 1.2
v 0.8 0.9 1.1
v 0.9 0.9 1.1
v 1 0.9 1.1
v 0.7 0.9 1
v 0.8 0.9 1
v 0.9 0.9 1
v 1 0.9 1
v 1.1 0.9 1
v 0.6 0.9 0.9
v 0.7 0.9 0.9
v 0.8 0.9 0.9
v 0.9 0.9 0.9
v 1 0.9 0.9
v 1.1 0.9 0.9
v 0.5 0.9 0.8
v 0.6 0.9 0.8
v 0.7 0.9 0.8
v 0.8 0.9 0.8
v 0.4 0.9 0.7
v 0.5 0.9 0.7
v 0.6 0.9 0.7
v 0.7 0.9 0.7
v 0.5 0.9 0.6
v 0.6 0.9 0.6
v 0.4 0.9 0.5
v 0.5 0.9 0.5
v 0.6 1 1.4
v 0.7 1 1.4
v 0.6 1 1.3
v 0.7 1 1.3
v 1.1 1 0.9
v 1.2 1 0.9
v 1.1 1 0.8
v 1.2 1 0.8
v 0.6 1.1 1.3
v 0.7 1.1 1.3
v 0.6 1.1 1.2
v 0.7 1.1 1.2
v 0.8 1.1 1.2
v 0.7 1.1 1.1
v 0.8 1.1 1.1
v 0.9 1.1 1
v 1 1.1 1
v 0.9 1.1 0.9
v 1 1.1 0.9
v 1.1 1.1 0.9
v 1 1.1 0.8
v 1.1 1.1 0.8
v 0.4 1.1 0.7
v 0.5 1.1 0.7
v 0.4 1.1 0.6
v 0.5 1.1 0.6
v 0.5 1.2 0.8
v 0.6 1.2 0.8
v 0.5 1.2 0.7
v 0.5 1.2 0.6
v 0.6 1.2 0.6
v 0.4 1.4 0.7
v 0.5 1.4 0.7
v 0.6 1.4 0.7
v 0.4 1.4 0.6
v 0.5 1.4 0.6
v 0.6 1.4 0.6
v 0.4 1.4 0.5
v 0.5 1.4 0.5
v 0.3 1.5 0.6
v 0.4 1.5 0.6
v 0.4 1.5 0.5
v 0.3 1.5 0.4
v 0.4 1.5 0.4
v 1.1 0.9 1.4
v 1.2 0.9 1.4
v 1.1 0.9 1.3
v 1.2 0.9 1.3
v 0.7 1 1
v 0.8 1 1
v 0.9 1 1
v 0.6 1 0.9
v 0.7 1 0.9
v 0.8 1 0.9
v 0.9 1 0.9
v 0.5 1 0.8
v 0.6 1 0.8
v 0.7 1 0.8
v 0.8 1 0.8
v 0.4 1 0.7
v 0.5 1 0.7
v 0.6 1 0.7
v 0.7 1 0.7
v 0.4 1 0.6
v 0.5 1 0.6
v 0.6 1 0.6
v 1 1.1 1.4
v 1.1 1.1 1.4
v 1 1.1 1.3
v 1.1 1.1 1.3
v 1.2 1.1 1.3
v 1.1 1.1 1.2
v 1.2 1.1 1.2
v 0.6 1.2 1.4
v 1 1.2 1.4
v 0.7 1.2 1.3
v 1 1.2 1.3
v 1.1 1.2 1.3
v 0.6 1.2 1.2
v 0.7 1.2 1.2
v 0.8 1.2 1.2
v 1 1.2 1.2
v 1.1 1.2 1.2
v 1.2 1.2 1.2
v 0.7 1.2 1.1
v 0.8 1.2 1.1
v 0.9 1.2 1.1
v 0.8 1.2 1
v 0.9 1.2 1
v 1 1.2 1
v 0.9 1.2 0.9
v 1 1.2 0.9
v 1.1 1.2 0.9
v 1 1.2 0.8
v 1.2 1.2 0.8
v 0.4 1.2 0.6
v 0.5 1.2 0.6
v 0.4 1.2 0.5
v 0.5 1.2 0.5
v 0.7 1.3 1.3
v 1 1.3 1.3
v 0.7 1.3 1.2
v 0.8 1.3 1.2
v 1 1.3 1.2
v 1.1 1.3 1.2
v 0.8 1.3 1.1
v 0.9 1.3 1.1
v 0.9 1.3 1
v 1 1.3 1
v 1 1.3 0.9
v 1.1 1.3 0.9
v 0.4 1.3 0.7
v 0.5 1.3 0.7
v 0.6 1.3 0.7
v 0.4 1.3 0.6
v 0.5 1.3 0.6
v 0.6 1.3 0.6
v 0.5 1.5 0.8
v 0.6 1.5 0.8
v 0.4 1.5 0.7
v 0.5 1.5 0.7
v 0.6 1.5 0.7
v 0.4 1.5 0.6
v 0.5 1.5 0.6
v 0.6 1.5 0.6
v 0.3 1.6 0.6
v 0.5 1.6 0.6
v 0.4 1.6 0.5
v 0.5 1.6 0.5
v 0.3 1.6 0.4
v 0.4 1.6 0.4

# faces
f 3/3/1 2/3/1 1/3/1
f 4/3/1 2/3/1 3/3/1
f 7/3/1 6/3/1 5/3/1
f 8/3/1 6/3/1 7/3/1
f 9/3/1 6/3/1 8/3/1
f 11/1/1 9/1/1 8/1/1
f 12/3/1 11/3/1 10/3/1
f 13/1/1 9/1/1 11/1/1
f 13/3/1 11/3/1 12/3/1
f 14/1/1 9/1/1 13/1/1
f 15/1/1 13/1/1 12/1/1
f 16/1/1 13/1/1 15/1/1
f 20/1/1 18/1/1 17/1/1
f 21/3/1 19/3/1 18/3/1
f 21/1/1 18/1/1 20/1/1
f 22/3/1 19/3/1 21/3/1
f 25/1/1 24/1/1 23/1/1
f 26/1/1 24/1/1 25/1/1
f 29/3/1 28/3/1 27/3/1
f 30/3/1 29/3/1 27/3/1
f 31/3/1 29/3/1 30/3/1
f 32/1/1 31/1/1 30/1/1
f 33/1/1 31/1/1 32/1/1
f 38/3/1 35/3/1 34/3/1
f 39/3/1 35/3/1 38/3/1
f 40/2/1 37/2/1 36/2/1
f 42/2/1 40/2/1 36/2/1
f 42/2/1 41/2/1 40/2/1
f 43/2/1 41/2/1 42/2/1
f 46/2/1 45/2/1 44/2/1
f 50/2/1 46/2/1 44/2/1
f 50/2/1 47/2/1 46/2/1
f 51/2/1 47/2/1 50/2/1
f 52/1/1 49/1/1 48/1/1
f 53/1/1 49/1/1 52/1/1
f 54/2/1 47/2/1 51/2/1
f 55/2/1 47/2/1 54/2/1
f 58/2/1 56/2/1 55/2/1
f 59/2/1 56/2/1 58/2/1
f 60/2/1 58/2/1 57/2/1
f 61/2/1 58/2/1 60/2/1
f 64/2/1 63/2/1 62/2/1
f 66/2/1 64/2/1 62/2/1
f 66/2/1 65/2/1 64/2/1
f 67/2/1 65/2/1 66/2/1
f 68/2/1 65/2/1 67/2/1
f 69/2/1 65/2/1 68/2/1
f 72/3/1 71/3/1 70/3/1
f 73/2/1 70/2/1 69/2/1
f 74/3/1 72/3/1 70/3/1
f 74/2/1 70/2/1 73/2/1
f 75/3/1 72/3/1 74/3/1
f 77/2/1 75/2/1 74/2/1
f 78/2/1 75/2/1 77/2/1
f 79/2/1 77/2/1 76/2/1
f 80/2/1 77/2/1 79/2/1
f 83/2/1 82/2/1 81/2/1
f 85/2/1 83/2/1 81/2/1
f 85/2/1 84/2/1 83/2/1
f 86/2/1 84/2/1 85/2/1
f 87/2/1 84/2/1 86/2/1
f 88/2/1 84/2/1 87/2/1
f 90/2/1 89/2/1 88/2/1
f 91/2/1 89/2/1 90/2/1
f 95/2/1 93/2/1 92/2/1
f 96/2/1 93/2/1 95/2/1
f 97/2/1 95/2/1 94/2/1
f 98/2/1 95/2/1 97/2/1
f 101/2/1 100/2/1 99/2/1
f 103/2/1 101/2/1 99/2/1
f 103/2/1 102/2/1 101/2/1
f 104/2/1 102/2/1 103/2/1
f 105/2/1 102/2/1 104/2/1
f 106/2/1 102/2/1 105/2/1
f 108/2/1 107/2/1 106/2/1
f 109/2/1 107/2/1 108/2/1
f 111/2/1 110/2/1 109/2/1
f 112/2/1 110/2/1 111/2/1
f 114/2/1 113/2/1 112/2/1
f 115/2/1 113/2/1 114/2/1
f 118/2/1 116/2/1 115/2/1
f 119/2/1 116/2/1 118/2/1
f 120/2/1 118/2/1 117/2/1
f 121/2/1 118/2/1 120/2/1
f 124/4/1 123/4/1 122/4/1
f 125/4/1 123/4/1 124/4/1
f 126/2/1 125/2/1 124/2/1
f 127/2/1 125/2/1 126/2/1
f 129/2/1 128/2/1 127/2/1
f 130/2/1 128/2/1 129/2/1
f 133/2/1 132/2/1 131/2/1
f 134/2/1 132/2/1 133/2/1
f 137/2/1 136/2/1 135/2/1
f 138/2/1 136/2/1 137/2/1
f 141/2/1 140/2/1 139/2/1
f 142/2/1 140/2/1 141/2/1
f 145/2/1 144/2/1 143/2/1
f 146/2/1 144/2/1 145/2/1
f 147/3/2 148/3/2 149/3/2
f 149/3/2 148/3/2 150/3/2
f 151/3/2 152/3/2 153/3/2
f 153/3/2 152/3/2 154/3/2
f 153/1/2 154/1/2 156/1/2
f 155/3/2 156/3/2 157/3/2
f 156/1/2 154/1/2 158/1/2
f 157/3/2 156/3/2 158/3/2
f 158/1/2 154/1/2 159/1/2
f 160/3/2 161/3/2 162/3/2
f 162/3/2 161/3/2 163/3/2
f 163/3/2 161/3/2 164/3/2
f 165/1/2 166/1/2 167/1/2
f 167/1/2 166/1/2 168/1/2
f 169/3/2 170/3/2 171/3/2
f 171/3/2 170/3/2 172/3/2
f 169/3/2 171/3/2 173/3/2
f 173/3/2 171/3/2 174/3/2
f 173/1/2 174/1/2 176/1/2
f 174/3/2 175/3/2 177/3/2
f 176/1/2 174/1/2 177/1/2
f 177/3/2 175/3/2 178/3/2
f 179/3/2 180/3/2 181/3/2
f 181/3/2 180/3/2 182/3/2
f 183/1/2 184/1/2 185/1/2
f 185/1/2 184/1/2 186/1/2
f 187/3/2 188/3/2 189/3/2
f 189/3/2 188/3/2 190/3/2
f 191/2/2 192/2/2 193/2/2
f 193/2/2 192/2/2 194/2/2
f 194/2/2 195/2/2 196/2/2
f 196/2/2 195/2/2 197/2/2
f 198/2/2 199/2/2 200/2/2
f 200/2/2 199/2/2 201/2/2
f 201/2/2 202/2/2 203/2/2
f 203/2/2 202/2/2 204/2/2
f 204/2/2 205/2/2 206/2/2
f 206/2/2 205/2/2 207/2/2
f 208/4/2 209/4/2 210/4/2
f 210/4/2 209/4/2 211/4/2
f 210/2/2 211/2/2 212/2/2
f 212/2/2 213/2/2 214/2/2
f 214/2/2 215/2/2 216/2/2
f 216/2/2 217/2/2 218/2/2
f 210/2/2 212/2/2 220/2/2
f 218/2/2 219/2/2 220/2/2
f 216/2/2 218/2/2 220/2/2
f 214/2/2 216/2/2 220/2/2
f 212/2/2 214/2/2 220/2/2
f 220/2/2 219/2/2 221/2/2
f 221/2/2 219/2/2 222/2/2
f 221/2/2 222/2/2 224/2/2
f 222/2/2 223/2/2 224/2/2
f 224/2/2 223/2/2 225/2/2
f 225/2/2 223/2/2 226/2/2
f 226/2/2 223/2/2 227/2/2
f 231/2/3 229/2/3 228/2/3
f 233/2/3 231/2/3 230/2/3
f 235/2/3 233/2/3 232/2/3
f 237/2/3 235/2/3 234/2/3
f 238/2/3 229/2/3 231/2/3
f 238/2/3 231/2/3 233/2/3
f 238/2/3 235/2/3 237/2/3
f 238/2/3 233/2/3 235/2/3
f 239/2/3 229/2/3 238/2/3
f 242/2/3 237/2/3 236/2/3
f 242/2/3 238/2/3 237/2/3
f 243/2/3 238/2/3 242/2/3
f 244/2/3 238/2/3 243/2/3
f 245/4/3 241/4/3 240/4/3
f 246/2/3 242/2/3 241/2/3
f 246/4/3 241/4/3 245/4/3
f 246/2/3 243/2/3 242/2/3
f 247/2/3 243/2/3 246/2/3
f 251/2/3 249/2/3 248/2/3
f 252/2/3 249/2/3 251/2/3
f 254/2/3 251/2/3 250/2/3
f 255/2/3 251/2/3 254/2/3
f 256/2/3 254/2/3 253/2/3
f 257/2/3 254/2/3 256/2/3
f 261/2/3 259/2/3 258/2/3
f 262/2/3 259/2/3 261/2/3
f 263/2/3 261/2/3 260/2/3
f 264/2/3 261/2/3 263/2/3
f 267/1/3 266/1/3 265/1/3
f 268/1/3 266/1/3 267/1/3
f 271/3/3 270/3/3 269/3/3
f 272/3/3 270/3/3 271/3/3
f 278/1/3 274/1/3 273/1/3
f 279/1/3 274/1/3 278/1/3
f 280/3/3 276/3/3 275/3/3
f 281/1/3 277/1/3 276/1/3
f 281/3/3 276/3/3 280/3/3
f 282/1/3 277/1/3 281/1/3
f 290/3/3 284/3/3 283/3/3
f 291/3/3 284/3/3 290/3/3
f 292/3/3 286/3/3 285/3/3
f 293/1/3 287/1/3 286/1/3
f 293/3/3 286/3/3 292/3/3
f 294/1/3 287/1/3 293/1/3
f 295/1/3 289/1/3 288/1/3
f 296/1/3 289/1/3 295/1/3
f 301/3/3 298/3/3 297/3/3
f 302/1/3 300/1/3 299/1/3
f 303/1/3 300/1/3 302/1/3
f 304/3/3 298/3/3 301/3/3
f 305/3/3 298/3/3 304/3/3
f 306/2/4 307/2/4 310/2/4
f 310/2/4 307/2/4 311/2/4
f 308/2/4 309/2/4 314/2/4
f 314/2/4 309/2/4 315/2/4
f 312/2/4 313/2/4 318/2/4
f 318/2/4 313/2/4 319/2/4
f 316/2/4 317/2/4 322/2/4
f 322/2/4 317/2/4 323/2/4
f 320/2/4 321/2/4 326/2/4
f 326/2/4 321/2/4 327/2/4
f 324/4/4 325/4/4 328/4/4
f 325/2/4 326/2/4 329/2/4
f 328/4/4 325/4/4 329/4/4
f 329/2/4 326/2/4 330/2/4
f 331/2/4 332/2/4 334/2/4
f 334/2/4 332/2/4 335/2/4
f 333/2/4 334/2/4 338/2/4
f 338/2/4 334/2/4 339/2/4
f 335/2/4 336/2/4 340/2/4
f 340/2/4 336/2/4 341/2/4
f 337/2/4 338/2/4 343/2/4
f 343/2/4 338/2/4 344/2/4
f 342/2/4 343/2/4 346/2/4
f 346/2/4 343/2/4 347/2/4
f 345/2/4 346/2/4 349/2/4
f 349/2/4 346/2/4 350/2/4
f 350/2/4 346/2/4 351/2/4
f 348/2/4 349/2/4 352/2/4
f 349/2/4 350/2/4 352/2/4
f 352/2/4 350/2/4 353/2/4
f 354/2/4 355/2/4 356/2/4
f 356/2/4 355/2/4 357/2/4
f 357/2/4 358/2/4 361/2/4
f 361/2/4 358/2/4 362/2/4
f 359/2/4 360/2/4 364/2/4
f 364/2/4 360/2/4 365/2/4
f 363/2/4 364/2/4 367/2/4
f 367/2/4 364/2/4 368/2/4
f 368/2/4 364/2/4 369/2/4
f 366/2/4 367/2/4 370/2/4
f 367/2/4 368/2/4 370/2/4
f 370/2/4 368/2/4 371/2/4
f 372/3/4 373/3/4 376/3/4
f 373/2/4 374/2/4 377/2/4
f 376/3/4 373/3/4 377/3/4
f 377/2/4 374/2/4 378/2/4
f 375/2/4 376/2/4 381/2/4
f 376/2/4 377/2/4 381/2/4
f 381/2/4 377/2/4 382/2/4
f 378/2/4 379/2/4 383/2/4
f 383/2/4 379/2/4 384/2/4
f 380/2/4 381/2/4 386/2/4
f 386/2/4 381/2/4 387/2/4
f 387/2/4 381/2/4 388/2/4
f 385/2/4 386/2/4 389/2/4
f 386/2/4 387/2/4 389/2/4
f 389/2/4 387/2/4 390/2/4
f 391/3/4 392/3/4 393/3/4
f 393/3/4 392/3/4 394/3/4
f 395/2/4 396/2/4 398/2/4
f 398/2/4 396/2/4 399/2/4
f 397/2/4 398/2/4 402/2/4
f 402/2/4 398/2/4 403/2/4
f 403/2/4 398/2/4 404/2/4
f 399/2/4 400/2/4 405/2/4
f 405/2/4 400/2/4 406/2/4
f 401/2/4 402/2/4 407/2/4
f 402/2/4 403/2/4 407/2/4
f 407/2/4 403/2/4 408/2/4
f 409/1/4 410/1/4 411/1/4
f 411/1/4 410/1/4 412/1/4
f 413/2/4 414/2/4 416/2/4
f 415/2/4 416/2/4 417/2/4
f 416/2/4 414/2/4 418/2/4
f 417/2/4 416/2/4 418/2/4
f 419/3/4 420/3/4 423/3/4
f 423/3/4 420/3/4 424/3/4
f 421/3/4 422/3/4 425/3/4
f 425/3/4 422/3/4 426/3/4
f 427/1/4 428/1/4 431/1/4
f 431/1/4 428/1/4 432/1/4
f 429/1/4 430/1/4 435/1/4
f 435/1/4 430/1/4 436/1/4
f 431/3/4 432/3/4 437/3/4
f 437/3/4 432/3/4 438/3/4
f 433/3/4 434/3/4 439/3/4
f 439/3/4 434/3/4 440/3/4
f 441/3/4 442/3/4 447/3/4
f 442/1/4 443/1/4 448/1/4
f 447/3/4 442/3/4 448/3/4
f 448/1/4 443/1/4 449/1/4
f 445/3/4 446/3/4 450/3/4
f 444/3/4 445/3/4 450/3/4
f 450/3/4 446/3/4 451/3/4
f 452/3/4 453/3/4 454/3/4
f 454/3/4 453/3/4 455/3/4
f 458/4/5 457/4/5 456/4/5
f 459/4/5 457/4/5 458/4/5
f 462/2/5 461/2/5 460/2/5
f 463/2/5 461/2/5 462/2/5
f 465/2/5 464/2/5 463/2/5
f 466/2/5 464/2/5 465/2/5
f 469/2/5 468/2/5 467/2/5
f 470/2/5 468/2/5 469/2/5
f 473/2/5 472/2/5 471/2/5
f 474/2/5 472/2/5 473/2/5
f 477/2/5 476/2/5 475/2/5
f 478/2/5 476/2/5 477/2/5
f 481/2/5 480/2/5 479/2/5
f 482/2/5 480/2/5 481/2/5
f 484/2/5 483/2/5 482/2/5
f 485/2/5 483/2/5 484/2/5
f 488/2/5 487/2/5 486/2/5
f 489/2/5 487/2/5 488/2/5
f 492/2/5 491/2/5 490/2/5
f 493/2/5 491/2/5 492/2/5
f 496/2/5 495/2/5 494/2/5
f 497/2/5 495/2/5 496/2/5
f 499/2/5 498/2/5 497/2/5
f 500/2/5 498/2/5 499/2/5
f 502/2/5 501/2/5 500/2/5
f 503/2/5 501/2/5 502/2/5
f 506/2/5 505/2/5 504/2/5
f 507/2/5 505/2/5 506/2/5
f 510/2/5 509/2/5 508/2/5
f 511/2/5 509/2/5 510/2/5
f 514/2/5 513/2/5 512/2/5
f 515/2/5 513/2/5 514/2/5
f 517/2/5 516/2/5 515/2/5
f 518/2/5 516/2/5 517/2/5
f 521/3/5 518/3/5 517/3/5
f 522/2/5 519/2/5 518/2/5
f 522/3/5 518/3/5 521/3/5
f 523/2/5 519/2/5 522/2/5
f 526/1/5 521/1/5 520/1/5
f 527/3/5 522/3/5 521/3/5
f 527/1/5 521/1/5 526/1/5
f 528/3/5 522/3/5 527/3/5
f 529/2/5 524/2/5 523/2/5
f 530/2/5 524/2/5 529/2/5
f 532/3/5 526/3/5 525/3/5
f 533/1/5 527/1/5 526/1/5
f 533/3/5 526/3/5 532/3/5
f 534/1/5 527/1/5 533/1/5
f 536/1/5 532/1/5 531/1/5
f 537/3/5 533/3/5 532/3/5
f 537/1/5 532/1/5 536/1/5
f 538/3/5 533/3/5 537/3/5
f 539/3/5 536/3/5 535/3/5
f 539/1/5 537/1/5 536/1/5
f 540/1/5 537/1/5 539/1/5
f 541/3/5 539/3/5 535/3/5
f 542/3/5 539/3/5 541/3/5
f 545/2/5 544/2/5 543/2/5
f 546/2/5 544/2/5 545/2/5
f 549/2/5 548/2/5 547/2/5
f 550/2/5 548/2/5 549/2/5
f 553/2/5 552/2/5 551/2/5
f 554/2/5 552/2/5 553/2/5
f 556/2/5 555/2/5 554/2/5
f 557/2/5 555/2/5 556/2/5
f 560/2/5 559/2/5 558/2/5
f 561/2/5 559/2/5 560/2/5
f 563/2/5 562/2/5 561/2/5
f 564/2/5 562/2/5 563/2/5
f 567/3/5 566/3/5 565/3/5
f 568/3/5 566/3/5 567/3/5
f 571/3/5 570/3/5 569/3/5
f 572/3/5 570/3/5 571/3/5
f 573/3/5 570/3/5 572/3/5
f 577/1/5 575/1/5 574/1/5
f 578/3/5 576/3/5 575/3/5
f 578/1/5 575/1/5 577/1/5
f 579/3/5 576/3/5 578/3/5
f 580/3/5 578/3/5 577/3/5
f 581/3/5 578/3/5 580/3/5
f 584/3/5 583/3/5 582/3/5
f 585/3/5 584/3/5 582/3/5
f 586/3/5 584/3/5 585/3/5
f 587/2/6 588/2/6 589/2/6
f 589/2/6 588/2/6 590/2/6
f 591/1/6 592/1/6 595/1/6
f 592/3/6 593/3/6 596/3/6
f 595/1/6 592/1/6 596/1/6
f 596/3/6 593/3/6 597/3/6
f 594/3/6 595/3/6 599/3/6
f 595/1/6 596/1/6 600/1/6
f 599/3/6 595/3/6 600/3/6
f 600/1/6 596/1/6 601/1/6
f 598/1/6 599/1/6 603/1/6
f 599/3/6 600/3/6 604/3/6
f 603/1/6 599/1/6 604/1/6
f 604/3/6 600/3/6 605/3/6
f 602/3/6 603/3/6 606/3/6
f 603/1/6 604/1/6 607/1/6
f 606/3/6 603/3/6 607/3/6
f 607/1/6 604/1/6 608/1/6
f 609/2/6 610/2/6 611/2/6
f 611/2/6 610/2/6 612/2/6
f 612/2/6 613/2/6 614/2/6
f 614/2/6 613/2/6 615/2/6
f 616/2/6 617/2/6 618/2/6
f 618/2/6 617/2/6 619/2/6
f 616/2/6 618/2/6 621/2/6
f 621/2/6 618/2/6 622/2/6
f 619/2/6 620/2/6 624/2/6
f 624/2/6 620/2/6 625/2/6
f 622/2/6 623/2/6 627/2/6
f 627/2/6 623/2/6 628/2/6
f 628/2/6 629/2/6 630/2/6
f 630/2/6 629/2/6 631/2/6
f 631/2/6 632/2/6 633/2/6
f 633/2/6 632/2/6 634/2/6
f 625/2/6 626/2/6 635/2/6
f 634/2/6 635/2/6 636/2/6
f 635/2/6 626/2/6 637/2/6
f 636/2/6 635/2/6 637/2/6
f 638/1/6 639/1/6 640/1/6
f 640/1/6 639/1/6 641/1/6
f 642/2/6 643/2/6 644/2/6
f 644/2/6 643/2/6 645/2/6
f 645/2/6 643/2/6 646/2/6
f 646/2/6 647/2/6 648/2/6
f 645/2/6 646/2/6 648/2/6
f 648/2/6 647/2/6 649/2/6
f 649/2/6 647/2/6 650/2/6
f 650/2/6 647/2/6 651/2/6
f 651/2/6 647/2/6 652/2/6
f 652/2/6 647/2/6 653/2/6
f 654/1/6 655/1/6 657/1/6
f 655/3/6 656/3/6 658/3/6
f 657/1/6 655/1/6 658/1/6
f 658/3/6 656/3/6 659/3/6
f 660/1/6 661/1/6 663/1/6
f 663/1/6 661/1/6 664/1/6
f 662/1/6 663/1/6 665/1/6
f 663/3/6 664/3/6 666/3/6
f 665/1/6 663/1/6 666/1/6
f 666/3/6 664/3/6 667/3/6
f 668/3/6 669/3/6 670/3/6
f 670/3/6 669/3/6 671/3/6
f 668/3/6 670/3/6 672/3/6
f 672/3/6 670/3/6 673/3/6
