# MagicaVoxel @ Ephtracy

# group
o 

# material
mtllib Player-4.mtl
usemtl palette

# normals
vn -1 0 0
vn 1 0 0
vn 0 0 1
vn 0 0 -1
vn 0 -1 0
vn 0 1 0

# texcoords
vt 0.146484 0.5
vt 0.306641 0.5
vt 0.431641 0.5
vt 0.595703 0.5
vt 0.658203 0.5
vt 0.771484 0.5
vt 0.923828 0.5

# verts
v 0.1 0.6 0.1
v 0.1 0.6 -0.1
v 0.1 1.7 0.1
v 0.1 1.7 -0.1
v 0.1 2 0.1
v 0.1 2 -0.1
v 0.1 3 0.1
v 0.1 3 -0.1
v 0.2 0.1 0.6
v 0.2 0.1 -0.1
v 0.2 0.3 0.6
v 0.2 0.3 0.1
v 0.2 0.4 0.1
v 0.2 0.4 -0.1
v 0.2 0.5 0.2
v 0.2 0.5 -0.2
v 0.2 0.6 0.1
v 0.2 0.6 -0.1
v 0.2 1.7 0.1
v 0.2 1.7 -0.1
v 0.2 1.8 0.2
v 0.2 1.8 -0.2
v 0.2 1.9 0.2
v 0.2 1.9 -0.2
v 0.2 2 0.2
v 0.2 2 0.1
v 0.2 2 -0.1
v 0.2 2 -0.2
v 0.2 3 0.1
v 0.2 3 -0.1
v 0.2 3.1 0.2
v 0.2 3.1 -0.2
v 0.3 0.1 0.7
v 0.3 0.1 0.6
v 0.3 0.1 -0.1
v 0.3 0.1 -0.2
v 0.3 0.3 0.7
v 0.3 0.3 0.6
v 0.3 0.3 0.1
v 0.3 0.3 -0.1
v 0.3 0.3 -0.2
v 0.3 0.4 0.6
v 0.3 0.4 0.1
v 0.3 0.4 -0.1
v 0.3 0.5 0.1
v 0.3 0.5 -0.1
v 0.3 0.6 0.3
v 0.3 0.6 0.2
v 0.3 0.6 -0.2
v 0.3 0.6 -0.3
v 0.3 1.7 0.3
v 0.3 1.7 0.2
v 0.3 1.7 -0.2
v 0.3 1.7 -0.3
v 0.3 1.8 0.1
v 0.3 1.8 -0.1
v 0.3 1.9 0.1
v 0.3 1.9 -0.1
v 0.3 2 0.3
v 0.3 2 0.2
v 0.3 2 -0.2
v 0.3 2 -0.3
v 0.3 3 0.3
v 0.3 3 0.2
v 0.3 3 -0.2
v 0.3 3 -0.3
v 0.3 3.1 0.1
v 0.3 3.1 -0.1
v 0.3 3.1 -0.2
v 0.3 3.2 0.1
v 0.3 3.2 -0.1
v 0.3 3.2 -0.2
v 0.4 0.1 0.4
v 0.4 0.1 0.2
v 0.4 0.2 0.4
v 0.4 0.2 0.2
v 0.3 0.1 0.4
v 0.3 0.1 0.2
v 0.3 0.2 0.4
v 0.3 0.2 0.2
v 0.4 3.1 0.1
v 0.4 3.1 -0.1
v 0.4 3.1 -0.2
v 0.4 3.2 0.1
v 0.4 3.2 -0.1
v 0.4 3.2 -0.2
v 0.5 0.1 0.7
v 0.5 0.1 0.6
v 0.5 0.1 -0.1
v 0.5 0.1 -0.2
v 0.5 0.3 0.7
v 0.5 0.3 0.6
v 0.5 0.3 0.5
v 0.5 0.3 -0.1
v 0.5 0.3 -0.2
v 0.5 0.4 0.6
v 0.5 0.4 0.1
v 0.5 0.5 0.1
v 0.5 0.5 -0.1
v 0.5 0.6 0.3
v 0.5 0.6 0.2
v 0.5 0.6 -0.2
v 0.5 0.6 -0.3
v 0.5 1.7 0.3
v 0.5 1.7 0.2
v 0.5 1.7 -0.2
v 0.5 1.7 -0.3
v 0.5 1.8 0.1
v 0.5 1.8 -0.1
v 0.5 1.9 0.1
v 0.5 1.9 -0.1
v 0.5 2 0.3
v 0.5 2 0.2
v 0.5 2 -0.2
v 0.5 2 -0.3
v 0.5 3 0.3
v 0.5 3 0.2
v 0.5 3 -0.2
v 0.5 3 -0.3
v 0.6 0.1 0.6
v 0.6 0.1 0.5
v 0.6 0.1 -0.1
v 0.6 0.3 0.6
v 0.6 0.3 0.5
v 0.6 0.3 -0.1
v 0.6 0.5 0.2
v 0.6 0.5 0.1
v 0.6 0.5 -0.1
v 0.6 0.5 -0.2
v 0.6 0.6 0.1
v 0.6 0.6 -0.1
v 0.6 1.7 0.1
v 0.6 1.7 -0.1
v 0.6 1.8 0.2
v 0.6 1.8 0.1
v 0.6 1.8 -0.1
v 0.6 1.8 -0.2
v 0.6 1.9 0.2
v 0.6 1.9 0.1
v 0.6 1.9 -0.1
v 0.6 1.9 -0.2
v 0.6 2 0.2
v 0.6 2 0.1
v 0.6 2 -0.1
v 0.6 2 -0.2
v 0.6 3 0.1
v 0.6 3 -0.1
v 0.6 3.1 0.2
v 0.6 3.1 0.1
v 0.6 3.1 -0.1
v 0.6 3.1 -0.2
v 0.7 0.6 0.1
v 0.7 0.6 -0.1
v 0.7 1.7 0.1
v 0.7 1.7 -0.1
v 0.7 2 0.1
v 0.7 2 -0.1
v 0.7 3 0.1
v 0.7 3 -0.1
v 0.3 0.1 0.7
v 0.3 0.3 0.7
v 0.5 0.1 0.7
v 0.5 0.3 0.7
v 0.2 0.1 0.6
v 0.2 0.3 0.6
v 0.3 0.1 0.6
v 0.3 0.3 0.6
v 0.3 0.4 0.6
v 0.5 0.1 0.6
v 0.5 0.3 0.6
v 0.5 0.4 0.6
v 0.6 0.1 0.6
v 0.6 0.3 0.6
v 0.3 0.6 0.3
v 0.3 1.7 0.3
v 0.3 2 0.3
v 0.3 3 0.3
v 0.5 0.6 0.3
v 0.5 1.7 0.3
v 0.5 2 0.3
v 0.5 3 0.3
v 0.2 0.5 0.2
v 0.2 1.8 0.2
v 0.2 1.9 0.2
v 0.2 2 0.2
v 0.2 3.1 0.2
v 0.3 0.1 0.2
v 0.3 0.2 0.2
v 0.3 0.6 0.2
v 0.3 1.7 0.2
v 0.3 2 0.2
v 0.3 3 0.2
v 0.4 0.1 0.2
v 0.4 0.2 0.2
v 0.5 0.6 0.2
v 0.5 1.7 0.2
v 0.5 2 0.2
v 0.5 3 0.2
v 0.6 0.5 0.2
v 0.6 1.8 0.2
v 0.6 1.9 0.2
v 0.6 2 0.2
v 0.6 3.1 0.2
v 0.1 0.6 0.1
v 0.1 1.7 0.1
v 0.1 2 0.1
v 0.1 3 0.1
v 0.2 0.3 0.1
v 0.2 0.4 0.1
v 0.2 0.6 0.1
v 0.2 1.7 0.1
v 0.2 2 0.1
v 0.2 3 0.1
v 0.3 0.3 0.1
v 0.3 0.4 0.1
v 0.3 0.5 0.1
v 0.3 1.8 0.1
v 0.3 1.9 0.1
v 0.3 3.1 0.1
v 0.3 3.2 0.1
v 0.4 1.8 0.1
v 0.4 1.9 0.1
v 0.4 3.1 0.1
v 0.4 3.2 0.1
v 0.5 0.4 0.1
v 0.5 0.5 0.1
v 0.5 1.8 0.1
v 0.5 1.9 0.1
v 0.6 0.6 0.1
v 0.6 1.7 0.1
v 0.6 2 0.1
v 0.6 3 0.1
v 0.7 0.6 0.1
v 0.7 1.7 0.1
v 0.7 2 0.1
v 0.7 3 0.1
v 0.3 0.1 0.4
v 0.3 0.2 0.4
v 0.4 0.1 0.4
v 0.4 0.2 0.4
v 0.1 0.6 -0.1
v 0.1 1.7 -0.1
v 0.1 2 -0.1
v 0.1 3 -0.1
v 0.2 0.1 -0.1
v 0.2 0.4 -0.1
v 0.2 0.6 -0.1
v 0.2 1.7 -0.1
v 0.2 2 -0.1
v 0.2 3 -0.1
v 0.3 0.1 -0.1
v 0.3 0.3 -0.1
v 0.3 0.4 -0.1
v 0.3 0.5 -0.1
v 0.3 1.8 -0.1
v 0.3 1.9 -0.1
v 0.4 1.8 -0.1
v 0.4 1.9 -0.1
v 0.5 0.1 -0.1
v 0.5 0.3 -0.1
v 0.5 0.5 -0.1
v 0.5 1.8 -0.1
v 0.5 1.9 -0.1
v 0.6 0.1 -0.1
v 0.6 0.3 -0.1
v 0.6 0.6 -0.1
v 0.6 1.7 -0.1
v 0.6 2 -0.1
v 0.6 3 -0.1
v 0.7 0.6 -0.1
v 0.7 1.7 -0.1
v 0.7 2 -0.1
v 0.7 3 -0.1
v 0.2 0.5 -0.2
v 0.2 1.8 -0.2
v 0.2 1.9 -0.2
v 0.2 2 -0.2
v 0.2 3.1 -0.2
v 0.3 0.1 -0.2
v 0.3 0.3 -0.2
v 0.3 0.6 -0.2
v 0.3 1.7 -0.2
v 0.3 2 -0.2
v 0.3 3 -0.2
v 0.3 3.1 -0.2
v 0.3 3.2 -0.2
v 0.4 3.1 -0.2
v 0.4 3.2 -0.2
v 0.5 0.1 -0.2
v 0.5 0.3 -0.2
v 0.5 0.6 -0.2
v 0.5 1.7 -0.2
v 0.5 2 -0.2
v 0.5 3 -0.2
v 0.6 0.5 -0.2
v 0.6 1.8 -0.2
v 0.6 1.9 -0.2
v 0.6 2 -0.2
v 0.6 3.1 -0.2
v 0.3 0.6 -0.3
v 0.3 1.7 -0.3
v 0.3 2 -0.3
v 0.3 3 -0.3
v 0.5 0.6 -0.3
v 0.5 1.7 -0.3
v 0.5 2 -0.3
v 0.5 3 -0.3
v 0.3 0.1 0.7
v 0.5 0.1 0.7
v 0.2 0.1 0.6
v 0.3 0.1 0.6
v 0.5 0.1 0.6
v 0.6 0.1 0.6
v 0.5 0.1 0.5
v 0.6 0.1 0.5
v 0.3 0.1 0.4
v 0.4 0.1 0.4
v 0.3 0.1 0.2
v 0.4 0.1 0.2
v 0.3 0.1 0.1
v 0.4 0.1 0.1
v 0.3 0.1 0
v 0.4 0.1 0
v 0.2 0.1 -0.1
v 0.3 0.1 -0.1
v 0.5 0.1 -0.1
v 0.6 0.1 -0.1
v 0.3 0.1 -0.2
v 0.5 0.1 -0.2
v 0.3 0.2 0.4
v 0.4 0.2 0.4
v 0.3 0.2 0.2
v 0.4 0.2 0.2
v 0.2 0.5 0.2
v 0.6 0.5 0.2
v 0.3 0.5 0.1
v 0.5 0.5 0.1
v 0.6 0.5 0.1
v 0.3 0.5 -0.1
v 0.5 0.5 -0.1
v 0.6 0.5 -0.1
v 0.2 0.5 -0.2
v 0.6 0.5 -0.2
v 0.3 0.6 0.3
v 0.5 0.6 0.3
v 0.3 0.6 0.2
v 0.5 0.6 0.2
v 0.1 0.6 0.1
v 0.2 0.6 0.1
v 0.6 0.6 0.1
v 0.7 0.6 0.1
v 0.1 0.6 -0.1
v 0.2 0.6 -0.1
v 0.6 0.6 -0.1
v 0.7 0.6 -0.1
v 0.3 0.6 -0.2
v 0.5 0.6 -0.2
v 0.3 0.6 -0.3
v 0.5 0.6 -0.3
v 0.2 1.9 0.2
v 0.6 1.9 0.2
v 0.3 1.9 0.1
v 0.4 1.9 0.1
v 0.5 1.9 0.1
v 0.6 1.9 0.1
v 0.3 1.9 -0.1
v 0.4 1.9 -0.1
v 0.5 1.9 -0.1
v 0.6 1.9 -0.1
v 0.2 1.9 -0.2
v 0.6 1.9 -0.2
v 0.3 2 0.3
v 0.5 2 0.3
v 0.3 2 0.2
v 0.5 2 0.2
v 0.1 2 0.1
v 0.2 2 0.1
v 0.6 2 0.1
v 0.7 2 0.1
v 0.1 2 -0.1
v 0.2 2 -0.1
v 0.6 2 -0.1
v 0.7 2 -0.1
v 0.3 2 -0.2
v 0.5 2 -0.2
v 0.3 2 -0.3
v 0.5 2 -0.3
v 0.3 0.3 0.7
v 0.5 0.3 0.7
v 0.2 0.3 0.6
v 0.3 0.3 0.6
v 0.5 0.3 0.6
v 0.6 0.3 0.6
v 0.5 0.3 0.5
v 0.6 0.3 0.5
v 0.2 0.3 0.1
v 0.3 0.3 0.1
v 0.3 0.3 -0.1
v 0.5 0.3 -0.1
v 0.6 0.3 -0.1
v 0.3 0.3 -0.2
v 0.5 0.3 -0.2
v 0.3 0.4 0.6
v 0.5 0.4 0.6
v 0.2 0.4 0.1
v 0.3 0.4 0.1
v 0.5 0.4 0.1
v 0.2 0.4 -0.1
v 0.3 0.4 -0.1
v 0.3 1.7 0.3
v 0.5 1.7 0.3
v 0.3 1.7 0.2
v 0.5 1.7 0.2
v 0.1 1.7 0.1
v 0.2 1.7 0.1
v 0.6 1.7 0.1
v 0.7 1.7 0.1
v 0.1 1.7 -0.1
v 0.2 1.7 -0.1
v 0.6 1.7 -0.1
v 0.7 1.7 -0.1
v 0.3 1.7 -0.2
v 0.5 1.7 -0.2
v 0.3 1.7 -0.3
v 0.5 1.7 -0.3
v 0.2 1.8 0.2
v 0.6 1.8 0.2
v 0.3 1.8 0.1
v 0.4 1.8 0.1
v 0.5 1.8 0.1
v 0.6 1.8 0.1
v 0.3 1.8 -0.1
v 0.4 1.8 -0.1
v 0.5 1.8 -0.1
v 0.6 1.8 -0.1
v 0.2 1.8 -0.2
v 0.6 1.8 -0.2
v 0.3 3 0.3
v 0.5 3 0.3
v 0.3 3 0.2
v 0.5 3 0.2
v 0.1 3 0.1
v 0.2 3 0.1
v 0.6 3 0.1
v 0.7 3 0.1
v 0.1 3 -0.1
v 0.2 3 -0.1
v 0.6 3 -0.1
v 0.7 3 -0.1
v 0.3 3 -0.2
v 0.5 3 -0.2
v 0.3 3 -0.3
v 0.5 3 -0.3
v 0.2 3.1 0.2
v 0.6 3.1 0.2
v 0.3 3.1 0.1
v 0.4 3.1 0.1
v 0.6 3.1 0.1
v 0.3 3.1 -0.1
v 0.4 3.1 -0.1
v 0.6 3.1 -0.1
v 0.2 3.1 -0.2
v 0.3 3.1 -0.2
v 0.4 3.1 -0.2
v 0.6 3.1 -0.2
v 0.3 3.2 0.1
v 0.4 3.2 0.1
v 0.3 3.2 -0.1
v 0.4 3.2 -0.1
v 0.3 3.2 -0.2
v 0.4 3.2 -0.2

# faces
f 3/7/1 2/7/1 1/7/1
f 4/7/1 2/7/1 3/7/1
f 7/7/1 6/7/1 5/7/1
f 8/7/1 6/7/1 7/7/1
f 11/7/1 10/7/1 9/7/1
f 12/7/1 10/7/1 11/7/1
f 13/7/1 10/7/1 12/7/1
f 14/7/1 10/7/1 13/7/1
f 17/7/1 16/7/1 15/7/1
f 18/7/1 16/7/1 17/7/1
f 19/7/1 17/7/1 15/7/1
f 20/7/1 16/7/1 18/7/1
f 21/7/1 19/7/1 15/7/1
f 21/7/1 20/7/1 19/7/1
f 22/7/1 16/7/1 20/7/1
f 22/7/1 20/7/1 21/7/1
f 25/1/1 24/1/1 23/1/1
f 26/1/1 24/1/1 25/1/1
f 27/1/1 24/1/1 26/1/1
f 28/1/1 24/1/1 27/1/1
f 29/7/1 26/7/1 25/7/1
f 30/7/1 28/7/1 27/7/1
f 31/7/1 29/7/1 25/7/1
f 31/7/1 30/7/1 29/7/1
f 32/7/1 28/7/1 30/7/1
f 32/7/1 30/7/1 31/7/1
f 37/7/1 34/7/1 33/7/1
f 38/7/1 34/7/1 37/7/1
f 40/7/1 36/7/1 35/7/1
f 41/7/1 36/7/1 40/7/1
f 42/7/1 39/7/1 38/7/1
f 43/7/1 39/7/1 42/7/1
f 45/7/1 44/7/1 43/7/1
f 46/7/1 44/7/1 45/7/1
f 51/7/1 48/7/1 47/7/1
f 52/7/1 48/7/1 51/7/1
f 53/7/1 50/7/1 49/7/1
f 54/7/1 50/7/1 53/7/1
f 57/7/1 56/7/1 55/7/1
f 58/7/1 56/7/1 57/7/1
f 63/7/1 60/7/1 59/7/1
f 64/7/1 60/7/1 63/7/1
f 65/7/1 62/7/1 61/7/1
f 66/7/1 62/7/1 65/7/1
f 70/6/1 68/6/1 67/6/1
f 71/7/1 69/7/1 68/7/1
f 71/6/1 68/6/1 70/6/1
f 72/7/1 69/7/1 71/7/1
f 75/7/1 74/7/1 73/7/1
f 76/7/1 74/7/1 75/7/1
f 77/7/2 78/7/2 79/7/2
f 79/7/2 78/7/2 80/7/2
f 81/6/2 82/6/2 84/6/2
f 82/7/2 83/7/2 85/7/2
f 84/6/2 82/6/2 85/6/2
f 85/7/2 83/7/2 86/7/2
f 87/7/2 88/7/2 91/7/2
f 91/7/2 88/7/2 92/7/2
f 89/7/2 90/7/2 94/7/2
f 94/7/2 90/7/2 95/7/2
f 92/7/2 93/7/2 96/7/2
f 93/7/2 94/7/2 96/7/2
f 96/7/2 94/7/2 97/7/2
f 97/7/2 94/7/2 98/7/2
f 98/7/2 94/7/2 99/7/2
f 100/7/2 101/7/2 104/7/2
f 104/7/2 101/7/2 105/7/2
f 102/7/2 103/7/2 106/7/2
f 106/7/2 103/7/2 107/7/2
f 108/6/2 109/6/2 110/6/2
f 110/6/2 109/6/2 111/6/2
f 112/7/2 113/7/2 116/7/2
f 116/7/2 113/7/2 117/7/2
f 114/7/2 115/7/2 118/7/2
f 118/7/2 115/7/2 119/7/2
f 120/7/2 121/7/2 123/7/2
f 121/6/2 122/6/2 124/6/2
f 123/7/2 121/7/2 124/7/2
f 124/6/2 122/6/2 125/6/2
f 127/6/2 128/6/2 130/6/2
f 126/7/2 127/7/2 130/7/2
f 128/7/2 129/7/2 131/7/2
f 130/6/2 128/6/2 131/6/2
f 126/7/2 130/7/2 132/7/2
f 131/7/2 129/7/2 133/7/2
f 126/7/2 132/7/2 134/7/2
f 132/6/2 133/6/2 135/6/2
f 134/7/2 132/7/2 135/7/2
f 133/7/2 129/7/2 136/7/2
f 135/6/2 133/6/2 136/6/2
f 136/7/2 129/7/2 137/7/2
f 138/1/2 139/1/2 142/1/2
f 139/6/2 140/6/2 143/6/2
f 142/1/2 139/1/2 143/1/2
f 140/1/2 141/1/2 144/1/2
f 143/6/2 140/6/2 144/6/2
f 144/1/2 141/1/2 145/1/2
f 142/7/2 143/7/2 146/7/2
f 144/7/2 145/7/2 147/7/2
f 142/7/2 146/7/2 148/7/2
f 146/6/2 147/6/2 149/6/2
f 148/7/2 146/7/2 149/7/2
f 147/7/2 145/7/2 150/7/2
f 149/6/2 147/6/2 150/6/2
f 150/7/2 145/7/2 151/7/2
f 152/6/2 153/6/2 154/6/2
f 154/6/2 153/6/2 155/6/2
f 156/6/2 157/6/2 158/6/2
f 158/6/2 157/6/2 159/6/2
f 162/7/3 161/7/3 160/7/3
f 163/7/3 161/7/3 162/7/3
f 166/7/3 165/7/3 164/7/3
f 167/7/3 165/7/3 166/7/3
f 170/7/3 168/7/3 167/7/3
f 171/7/3 168/7/3 170/7/3
f 172/7/3 170/7/3 169/7/3
f 173/7/3 170/7/3 172/7/3
f 178/7/3 175/7/3 174/7/3
f 179/7/3 175/7/3 178/7/3
f 180/7/3 177/7/3 176/7/3
f 181/7/3 177/7/3 180/7/3
f 189/7/3 183/7/3 182/7/3
f 190/7/3 183/7/3 189/7/3
f 191/1/3 185/1/3 184/1/3
f 191/7/3 186/7/3 185/7/3
f 192/7/3 186/7/3 191/7/3
f 193/7/3 188/7/3 187/7/3
f 194/7/3 188/7/3 193/7/3
f 195/7/3 189/7/3 182/7/3
f 196/7/3 183/7/3 190/7/3
f 197/1/3 191/1/3 184/1/3
f 198/7/3 186/7/3 192/7/3
f 199/7/3 195/7/3 182/7/3
f 199/7/3 196/7/3 195/7/3
f 200/7/3 183/7/3 196/7/3
f 200/7/3 196/7/3 199/7/3
f 201/1/3 197/1/3 184/1/3
f 202/7/3 198/7/3 197/7/3
f 202/1/3 197/1/3 201/1/3
f 203/7/3 186/7/3 198/7/3
f 203/7/3 198/7/3 202/7/3
f 210/7/3 205/7/3 204/7/3
f 211/7/3 205/7/3 210/7/3
f 212/7/3 207/7/3 206/7/3
f 213/7/3 207/7/3 212/7/3
f 214/7/3 209/7/3 208/7/3
f 215/7/3 209/7/3 214/7/3
f 221/7/3 218/7/3 217/7/3
f 222/7/3 218/7/3 221/7/3
f 223/6/3 220/6/3 219/6/3
f 224/6/3 220/6/3 223/6/3
f 225/7/3 216/7/3 215/7/3
f 226/7/3 216/7/3 225/7/3
f 227/6/3 222/6/3 221/6/3
f 228/6/3 222/6/3 227/6/3
f 233/6/3 230/6/3 229/6/3
f 234/6/3 230/6/3 233/6/3
f 235/6/3 232/6/3 231/6/3
f 236/6/3 232/6/3 235/6/3
f 237/7/4 238/7/4 239/7/4
f 239/7/4 238/7/4 240/7/4
f 241/7/4 242/7/4 247/7/4
f 247/7/4 242/7/4 248/7/4
f 243/7/4 244/7/4 249/7/4
f 249/7/4 244/7/4 250/7/4
f 245/7/4 246/7/4 251/7/4
f 251/7/4 246/7/4 252/7/4
f 252/7/4 246/7/4 253/7/4
f 255/7/4 256/7/4 257/7/4
f 257/7/4 256/7/4 258/7/4
f 253/7/4 254/7/4 260/7/4
f 252/7/4 253/7/4 260/7/4
f 260/7/4 254/7/4 261/7/4
f 257/6/4 258/6/4 262/6/4
f 262/6/4 258/6/4 263/6/4
f 259/6/4 260/6/4 264/6/4
f 264/6/4 260/6/4 265/6/4
f 266/6/4 267/6/4 270/6/4
f 270/6/4 267/6/4 271/6/4
f 268/6/4 269/6/4 272/6/4
f 272/6/4 269/6/4 273/6/4
f 274/7/4 275/7/4 281/7/4
f 281/7/4 275/7/4 282/7/4
f 276/1/4 277/1/4 283/1/4
f 277/7/4 278/7/4 283/7/4
f 283/7/4 278/7/4 284/7/4
f 284/7/4 278/7/4 285/7/4
f 285/7/4 286/7/4 287/7/4
f 284/7/4 285/7/4 287/7/4
f 287/7/4 286/7/4 288/7/4
f 279/7/4 280/7/4 289/7/4
f 289/7/4 280/7/4 290/7/4
f 274/7/4 281/7/4 291/7/4
f 282/7/4 275/7/4 292/7/4
f 276/1/4 283/1/4 293/1/4
f 284/7/4 287/7/4 294/7/4
f 274/7/4 291/7/4 295/7/4
f 291/7/4 292/7/4 295/7/4
f 292/7/4 275/7/4 296/7/4
f 295/7/4 292/7/4 296/7/4
f 276/1/4 293/1/4 297/1/4
f 293/7/4 294/7/4 298/7/4
f 297/1/4 293/1/4 298/1/4
f 294/7/4 287/7/4 299/7/4
f 298/7/4 294/7/4 299/7/4
f 300/7/4 301/7/4 304/7/4
f 304/7/4 301/7/4 305/7/4
f 302/7/4 303/7/4 306/7/4
f 306/7/4 303/7/4 307/7/4
f 311/7/5 309/7/5 308/7/5
f 312/7/5 309/7/5 311/7/5
f 314/7/5 311/7/5 310/7/5
f 314/7/5 313/7/5 312/7/5
f 314/7/5 312/7/5 311/7/5
f 315/7/5 313/7/5 314/7/5
f 316/7/5 314/7/5 310/7/5
f 317/7/5 314/7/5 316/7/5
f 318/7/5 316/7/5 310/7/5
f 319/7/5 314/7/5 317/7/5
f 320/7/5 318/7/5 310/7/5
f 320/7/5 319/7/5 318/7/5
f 321/7/5 314/7/5 319/7/5
f 321/7/5 319/7/5 320/7/5
f 322/7/5 320/7/5 310/7/5
f 322/5/5 321/5/5 320/5/5
f 323/7/5 314/7/5 321/7/5
f 323/5/5 321/5/5 322/5/5
f 324/7/5 322/7/5 310/7/5
f 324/7/5 323/7/5 322/7/5
f 325/7/5 323/7/5 324/7/5
f 326/6/5 315/6/5 314/6/5
f 326/7/5 323/7/5 325/7/5
f 326/7/5 314/7/5 323/7/5
f 327/6/5 315/6/5 326/6/5
f 328/7/5 326/7/5 325/7/5
f 329/7/5 326/7/5 328/7/5
f 332/7/5 331/7/5 330/7/5
f 333/7/5 331/7/5 332/7/5
f 336/7/5 335/7/5 334/7/5
f 337/7/5 335/7/5 336/7/5
f 338/7/5 335/7/5 337/7/5
f 339/7/5 336/7/5 334/7/5
f 340/6/5 338/6/5 337/6/5
f 341/6/5 338/6/5 340/6/5
f 342/7/5 339/7/5 334/7/5
f 342/7/5 340/7/5 339/7/5
f 342/7/5 341/7/5 340/7/5
f 343/7/5 341/7/5 342/7/5
f 346/7/5 345/7/5 344/7/5
f 347/7/5 345/7/5 346/7/5
f 352/7/5 349/7/5 348/7/5
f 353/7/5 349/7/5 352/7/5
f 354/6/5 351/6/5 350/6/5
f 355/6/5 351/6/5 354/6/5
f 358/7/5 357/7/5 356/7/5
f 359/7/5 357/7/5 358/7/5
f 362/1/5 361/1/5 360/1/5
f 363/1/5 361/1/5 362/1/5
f 364/1/5 361/1/5 363/1/5
f 365/1/5 361/1/5 364/1/5
f 366/1/5 362/1/5 360/1/5
f 368/6/5 365/6/5 364/6/5
f 369/6/5 365/6/5 368/6/5
f 370/1/5 367/1/5 366/1/5
f 370/1/5 366/1/5 360/1/5
f 370/1/5 369/1/5 368/1/5
f 370/1/5 368/1/5 367/1/5
f 371/1/5 369/1/5 370/1/5
f 374/7/5 373/7/5 372/7/5
f 375/7/5 373/7/5 374/7/5
f 380/7/5 377/7/5 376/7/5
f 381/7/5 377/7/5 380/7/5
f 382/6/5 379/6/5 378/6/5
f 383/6/5 379/6/5 382/6/5
f 386/7/5 385/7/5 384/7/5
f 387/7/5 385/7/5 386/7/5
f 388/7/6 389/7/6 391/7/6
f 391/7/6 389/7/6 392/7/6
f 392/7/6 393/7/6 394/7/6
f 394/7/6 393/7/6 395/7/6
f 390/7/6 391/7/6 396/7/6
f 396/7/6 391/7/6 397/7/6
f 394/6/6 395/6/6 399/6/6
f 399/6/6 395/6/6 400/6/6
f 398/7/6 399/7/6 401/7/6
f 401/7/6 399/7/6 402/7/6
f 403/7/6 404/7/6 406/7/6
f 406/7/6 404/7/6 407/7/6
f 405/7/6 406/7/6 408/7/6
f 408/7/6 406/7/6 409/7/6
f 410/7/6 411/7/6 412/7/6
f 412/7/6 411/7/6 413/7/6
f 414/7/6 415/7/6 418/7/6
f 418/7/6 415/7/6 419/7/6
f 416/6/6 417/6/6 420/6/6
f 420/6/6 417/6/6 421/6/6
f 422/7/6 423/7/6 424/7/6
f 424/7/6 423/7/6 425/7/6
f 426/7/6 427/7/6 428/7/6
f 428/7/6 427/7/6 429/7/6
f 429/7/6 427/7/6 430/7/6
f 430/7/6 427/7/6 431/7/6
f 426/7/6 428/7/6 432/7/6
f 430/6/6 431/6/6 434/6/6
f 434/6/6 431/6/6 435/6/6
f 432/7/6 433/7/6 436/7/6
f 426/7/6 432/7/6 436/7/6
f 434/7/6 435/7/6 436/7/6
f 433/7/6 434/7/6 436/7/6
f 436/7/6 435/7/6 437/7/6
f 438/7/6 439/7/6 440/7/6
f 440/7/6 439/7/6 441/7/6
f 442/7/6 443/7/6 446/7/6
f 446/7/6 443/7/6 447/7/6
f 444/6/6 445/6/6 448/6/6
f 448/6/6 445/6/6 449/6/6
f 450/7/6 451/7/6 452/7/6
f 452/7/6 451/7/6 453/7/6
f 454/7/6 455/7/6 456/7/6
f 456/7/6 455/7/6 457/7/6
f 457/7/6 455/7/6 458/7/6
f 454/7/6 456/7/6 459/7/6
f 457/6/6 458/6/6 460/6/6
f 460/6/6 458/6/6 461/6/6
f 454/7/6 459/7/6 462/7/6
f 462/7/6 459/7/6 463/7/6
f 460/7/6 461/7/6 464/7/6
f 464/7/6 461/7/6 465/7/6
f 466/6/6 467/6/6 468/6/6
f 468/6/6 467/6/6 469/6/6
f 468/7/6 469/7/6 470/7/6
f 470/7/6 469/7/6 471/7/6
