# MagicaVoxel @ Ephtracy

# group
o 

# material
mtllib Objects-2.mtl
usemtl palette

# normals
vn -1 0 0
vn 1 0 0
vn 0 0 1
vn 0 0 -1
vn 0 -1 0
vn 0 1 0

# texcoords
vt 0.146484 0.5
vt 0.615234 0.5
vt 0.771484 0.5
vt 0.779297 0.5
vt 0.958984 0.5
vt 0.974609 0.5
vt 0.986328 0.5

# verts
v -3.5 0.2 2
v -3.5 0.2 -2
v -3.5 1.7 2
v -3.5 1.7 -2
v -3.4 0.1 1.9
v -3.4 0.1 -1.9
v -3.4 0.2 1.9
v -3.4 0.2 -1.9
v -3.4 1.7 1.9
v -3.4 1.7 -1.9
v -3.4 1.8 1.9
v -3.4 1.8 -1.9
v -3.3 1.8 1.6
v -3.3 1.8 -1.6
v -3.3 1.9 1.6
v -3.3 1.9 -1.6
v -3.2 1.7 1.7
v -3.2 1.7 -1.7
v -3.2 1.8 1.7
v -3.2 1.8 1.6
v -3.2 1.8 -1.6
v -3.2 1.8 -1.7
v -3.2 1.9 1.7
v -3.2 1.9 1.6
v -3.2 1.9 -1.6
v -3.2 1.9 -1.7
v -3.1 1.8 1.8
v -3.1 1.8 1.7
v -3.1 1.8 -1.7
v -3.1 1.8 -1.8
v -3.1 1.9 1.8
v -3.1 1.9 1.7
v -3.1 1.9 -1.7
v -3.1 1.9 -1.8
v -1.2 1.8 0.3
v -1.2 1.8 -1.6
v -1.2 1.9 0.3
v -1.2 1.9 -1.6
v -1.1 1.8 0.4
v -1.1 1.8 0.3
v -1.1 1.8 -1.6
v -1.1 1.8 -1.7
v -1.1 1.9 0.4
v -1.1 1.9 0.3
v -1.1 1.9 -1.6
v -1.1 1.9 -1.7
v -1 1.8 0.5
v -1 1.8 0.4
v -1 1.8 -1.7
v -1 1.8 -1.8
v -1 1.9 0.5
v -1 1.9 0.4
v -1 1.9 -1.7
v -1 1.9 -1.8
v -0.9 1.8 0.6
v -0.9 1.8 0.5
v -0.9 1.9 0.6
v -0.9 1.9 0.5
v -0.8 1.8 0.7
v -0.8 1.8 0.6
v -0.8 1.9 0.7
v -0.8 1.9 0.6
v -0.7 1.8 0.8
v -0.7 1.8 0.7
v -0.7 1.9 0.8
v -0.7 1.9 0.7
v -0.6 1.8 0.9
v -0.6 1.8 0.8
v -0.6 1.9 0.9
v -0.6 1.9 0.8
v -0.5 1.8 1
v -0.5 1.8 0.9
v -0.5 1.9 1
v -0.5 1.9 0.9
v -0.4 1.8 1.1
v -0.4 1.8 1
v -0.4 1.9 1.1
v -0.4 1.9 1
v -0.3 1.8 1.2
v -0.3 1.8 1.1
v -0.3 1.9 1.2
v -0.3 1.9 1.1
v -0.2 1.8 1.3
v -0.2 1.8 1.2
v -0.2 1.9 1.3
v -0.2 1.9 1.2
v -0.0999999 1.8 1.4
v -0.0999999 1.8 1.3
v -0.0999999 1.9 1.4
v -0.0999999 1.9 1.3
v 2.38419e-07 1.8 1.5
v 2.38419e-07 1.8 1.4
v 2.38419e-07 1.9 1.5
v 2.38419e-07 1.9 1.4
v 0.1 1.8 1.6
v 0.1 1.8 1.5
v 0.1 1.9 1.6
v 0.1 1.9 1.5
v 0.2 1.8 1.7
v 0.2 1.8 1.6
v 0.2 1.9 1.7
v 0.2 1.9 1.6
v 0.3 1.8 1.8
v 0.3 1.8 1.7
v 0.3 1.9 1.8
v 0.3 1.9 1.7
v 3.3 1.7 1.8
v 3.3 1.7 -1.8
v 3.3 1.8 1.8
v 3.3 1.8 1.6
v 3.3 1.8 -1.6
v 3.3 1.8 -1.8
v -3.3 1.7 1.8
v -3.3 1.7 -1.8
v -3.3 1.8 1.8
v -3.3 1.8 1.6
v -3.3 1.8 -1.6
v -3.3 1.8 -1.8
v -1.6 1.8 1.8
v -1.6 1.8 1.7
v -1.6 1.8 -1.7
v -1.6 1.8 -1.8
v -1.6 1.9 1.8
v -1.6 1.9 1.7
v -1.6 1.9 -1.7
v -1.6 1.9 -1.8
v -1.5 1.8 1.7
v -1.5 1.8 1.6
v -1.5 1.8 -1.6
v -1.5 1.8 -1.7
v -1.5 1.9 1.7
v -1.5 1.9 1.6
v -1.5 1.9 -1.6
v -1.5 1.9 -1.7
v -1.4 1.8 1.6
v -1.4 1.8 -1.6
v -1.4 1.9 1.6
v -1.4 1.9 -1.6
v 3.1 1.8 1.8
v 3.1 1.8 1.7
v 3.1 1.8 -1.7
v 3.1 1.8 -1.8
v 3.1 1.9 1.8
v 3.1 1.9 1.7
v 3.1 1.9 -1.7
v 3.1 1.9 -1.8
v 3.2 1.7 1.7
v 3.2 1.7 -1.7
v 3.2 1.8 1.7
v 3.2 1.8 1.6
v 3.2 1.8 -1.6
v 3.2 1.8 -1.7
v 3.2 1.9 1.7
v 3.2 1.9 1.6
v 3.2 1.9 -1.6
v 3.2 1.9 -1.7
v 3.3 1.8 1.6
v 3.3 1.8 -1.6
v 3.3 1.9 1.6
v 3.3 1.9 -1.6
v 3.4 0.1 1.9
v 3.4 0.1 -1.9
v 3.4 0.2 1.9
v 3.4 0.2 -1.9
v 3.4 1.7 1.9
v 3.4 1.7 -1.9
v 3.4 1.8 1.9
v 3.4 1.8 -1.9
v 3.5 0.2 2
v 3.5 0.2 -2
v 3.5 1.7 2
v 3.5 1.7 -2
v -3.5 0.2 2
v -3.5 1.7 2
v -3.2 1 2
v -3.2 1.5 2
v -3.1 1.1 2
v -3.1 1.4 2
v -2.5 1.1 2
v -2.5 1.4 2
v -2.4 1.1 2
v -2.4 1.4 2
v -2.3 1.2 2
v -2.3 1.3 2
v -2.2 1.2 2
v -2.2 1.3 2
v -2.1 1.2 2
v -2.1 1.3 2
v -2 1.2 2
v -2 1.3 2
v -1.9 1.2 2
v -1.9 1.3 2
v -1.8 1.2 2
v -1.8 1.3 2
v -1.7 1.1 2
v -1.7 1.4 2
v -1.6 1 2
v -1.6 1.5 2
v 3.5 0.2 2
v 3.5 1.7 2
v -3.4 0.1 1.9
v -3.4 0.2 1.9
v -3.4 1.7 1.9
v -3.4 1.8 1.9
v 3.4 0.1 1.9
v 3.4 0.2 1.9
v 3.4 1.7 1.9
v 3.4 1.8 1.9
v -3.1 1.8 1.8
v -3.1 1.9 1.8
v -1.6 1.8 1.8
v -1.6 1.9 1.8
v 0.3 1.8 1.8
v 0.3 1.9 1.8
v 3.1 1.8 1.8
v 3.1 1.9 1.8
v -3.2 1.7 1.7
v -3.2 1.8 1.7
v -3.2 1.9 1.7
v -3.1 1.8 1.7
v -3.1 1.9 1.7
v -1.6 1.8 1.7
v -1.6 1.9 1.7
v -1.5 1.8 1.7
v -1.5 1.9 1.7
v 0.2 1.8 1.7
v 0.2 1.9 1.7
v 0.3 1.8 1.7
v 0.3 1.9 1.7
v 3.1 1.8 1.7
v 3.1 1.9 1.7
v 3.2 1.7 1.7
v 3.2 1.8 1.7
v 3.2 1.9 1.7
v -3.3 1.8 1.6
v -3.3 1.9 1.6
v -3.2 1.8 1.6
v -3.2 1.9 1.6
v -1.5 1.8 1.6
v -1.5 1.9 1.6
v -1.4 1.8 1.6
v -1.4 1.9 1.6
v 0.1 1.8 1.6
v 0.1 1.9 1.6
v 0.2 1.8 1.6
v 0.2 1.9 1.6
v 3.2 1.8 1.6
v 3.2 1.9 1.6
v 3.3 1.8 1.6
v 3.3 1.9 1.6
v 2.38419e-07 1.8 1.5
v 2.38419e-07 1.9 1.5
v 0.1 1.8 1.5
v 0.1 1.9 1.5
v -0.0999999 1.8 1.4
v -0.0999999 1.9 1.4
v 2.38419e-07 1.8 1.4
v 2.38419e-07 1.9 1.4
v -0.2 1.8 1.3
v -0.2 1.9 1.3
v -0.0999999 1.8 1.3
v -0.0999999 1.9 1.3
v -0.3 1.8 1.2
v -0.3 1.9 1.2
v -0.2 1.8 1.2
v -0.2 1.9 1.2
v -0.4 1.8 1.1
v -0.4 1.9 1.1
v -0.3 1.8 1.1
v -0.3 1.9 1.1
v -0.5 1.8 1
v -0.5 1.9 1
v -0.4 1.8 1
v -0.4 1.9 1
v -0.6 1.8 0.9
v -0.6 1.9 0.9
v -0.5 1.8 0.9
v -0.5 1.9 0.9
v -0.7 1.8 0.8
v -0.7 1.9 0.8
v -0.6 1.8 0.8
v -0.6 1.9 0.8
v -0.8 1.8 0.7
v -0.8 1.9 0.7
v -0.7 1.8 0.7
v -0.7 1.9 0.7
v -0.9 1.8 0.6
v -0.9 1.9 0.6
v -0.8 1.8 0.6
v -0.8 1.9 0.6
v -1 1.8 0.5
v -1 1.9 0.5
v -0.9 1.8 0.5
v -0.9 1.9 0.5
v -1.1 1.8 0.4
v -1.1 1.9 0.4
v -1 1.8 0.4
v -1 1.9 0.4
v -1.2 1.8 0.3
v -1.2 1.9 0.3
v -1.1 1.8 0.3
v -1.1 1.9 0.3
v -3.3 1.7 -1.8
v -3.3 1.8 -1.8
v -3.1 1.8 -1.8
v -1.6 1.8 -1.8
v -1 1.8 -1.8
v 3.1 1.8 -1.8
v 3.3 1.7 -1.8
v 3.3 1.8 -1.8
v -3.3 1.7 1.8
v -3.3 1.8 1.8
v -3.1 1.8 1.8
v -1.6 1.8 1.8
v 0.3 1.8 1.8
v 3.1 1.8 1.8
v 3.3 1.7 1.8
v 3.3 1.8 1.8
v -3.3 1.8 -1.6
v -3.3 1.9 -1.6
v -3.2 1.8 -1.6
v -3.2 1.9 -1.6
v -1.5 1.8 -1.6
v -1.5 1.9 -1.6
v -1.4 1.8 -1.6
v -1.4 1.9 -1.6
v -1.2 1.8 -1.6
v -1.2 1.9 -1.6
v -1.1 1.8 -1.6
v -1.1 1.9 -1.6
v 3.2 1.8 -1.6
v 3.2 1.9 -1.6
v 3.3 1.8 -1.6
v 3.3 1.9 -1.6
v -3.2 1.7 -1.7
v -3.2 1.8 -1.7
v -3.2 1.9 -1.7
v -3.1 1.8 -1.7
v -3.1 1.9 -1.7
v -1.6 1.8 -1.7
v -1.6 1.9 -1.7
v -1.5 1.8 -1.7
v -1.5 1.9 -1.7
v -1.1 1.8 -1.7
v -1.1 1.9 -1.7
v -1 1.8 -1.7
v -1 1.9 -1.7
v 3.1 1.8 -1.7
v 3.1 1.9 -1.7
v 3.2 1.7 -1.7
v 3.2 1.8 -1.7
v 3.2 1.9 -1.7
v -3.1 1.8 -1.8
v -3.1 1.9 -1.8
v -1.6 1.8 -1.8
v -1.6 1.9 -1.8
v -1 1.8 -1.8
v -1 1.9 -1.8
v 3.1 1.8 -1.8
v 3.1 1.9 -1.8
v -3.4 0.1 -1.9
v -3.4 0.2 -1.9
v -3.4 1.7 -1.9
v -3.4 1.8 -1.9
v 3.4 0.1 -1.9
v 3.4 0.2 -1.9
v 3.4 1.7 -1.9
v 3.4 1.8 -1.9
v -3.5 0.2 -2
v -3.5 1.7 -2
v 3.5 0.2 -2
v 3.5 1.7 -2
v -3.4 0.1 1.9
v 3.4 0.1 1.9
v -3.4 0.1 -1.9
v 3.4 0.1 -1.9
v -3.5 0.2 2
v 3.5 0.2 2
v -3.4 0.2 1.9
v 3.4 0.2 1.9
v -3.4 0.2 -1.9
v 3.4 0.2 -1.9
v -3.5 0.2 -2
v 3.5 0.2 -2
v -3.1 1.8 1.8
v -1.6 1.8 1.8
v 0.3 1.8 1.8
v 3.1 1.8 1.8
v -3.1 1.8 1.7
v -1.6 1.8 1.7
v 0.3 1.8 1.7
v 3.1 1.8 1.7
v -3.3 1.8 1.6
v -3.2 1.8 1.6
v 3.2 1.8 1.6
v 3.3 1.8 1.6
v -3.3 1.8 -1.6
v -3.2 1.8 -1.6
v 3.2 1.8 -1.6
v 3.3 1.8 -1.6
v -3.1 1.8 -1.7
v -1.6 1.8 -1.7
v -1 1.8 -1.7
v 3.1 1.8 -1.7
v -3.1 1.8 -1.8
v -1.6 1.8 -1.8
v -1 1.8 -1.8
v 3.1 1.8 -1.8
v -3.5 1.7 2
v 3.5 1.7 2
v -3.4 1.7 1.9
v 3.4 1.7 1.9
v -3.3 1.7 1.8
v 3.3 1.7 1.8
v -3.2 1.7 1.7
v 3.2 1.7 1.7
v -3.2 1.7 -1.7
v 3.2 1.7 -1.7
v -3.3 1.7 -1.8
v 3.3 1.7 -1.8
v -3.4 1.7 -1.9
v 3.4 1.7 -1.9
v -3.5 1.7 -2
v 3.5 1.7 -2
v -3.4 1.8 1.9
v 3.4 1.8 1.9
v -3.3 1.8 1.8
v -3.1 1.8 1.8
v -1.6 1.8 1.8
v 0.3 1.8 1.8
v 3.1 1.8 1.8
v 3.3 1.8 1.8
v -1.5 1.8 1.7
v 0.2 1.8 1.7
v -3.3 1.8 1.6
v -1.5 1.8 1.6
v -1.4 1.8 1.6
v 0.1 1.8 1.6
v 0.2 1.8 1.6
v 3.3 1.8 1.6
v 2.38419e-07 1.8 1.5
v 0.1 1.8 1.5
v -0.0999999 1.8 1.4
v 2.38419e-07 1.8 1.4
v -0.2 1.8 1.3
v -0.0999999 1.8 1.3
v -0.3 1.8 1.2
v -0.2 1.8 1.2
v -0.4 1.8 1.1
v -0.3 1.8 1.1
v -0.5 1.8 1
v -0.4 1.8 1
v -0.6 1.8 0.9
v -0.5 1.8 0.9
v -0.7 1.8 0.8
v -0.6 1.8 0.8
v -0.8 1.8 0.7
v -0.7 1.8 0.7
v -0.9 1.8 0.6
v -0.8 1.8 0.6
v -1 1.8 0.5
v -0.9 1.8 0.5
v -1.1 1.8 0.4
v -1 1.8 0.4
v -1.2 1.8 0.3
v -1.1 1.8 0.3
v -3.3 1.8 -1.6
v -1.5 1.8 -1.6
v -1.4 1.8 -1.6
v -1.2 1.8 -1.6
v -1.1 1.8 -1.6
v 3.3 1.8 -1.6
v -1.5 1.8 -1.7
v -1.1 1.8 -1.7
v -3.3 1.8 -1.8
v -3.1 1.8 -1.8
v -1.6 1.8 -1.8
v -1 1.8 -1.8
v 3.1 1.8 -1.8
v 3.3 1.8 -1.8
v -3.4 1.8 -1.9
v 3.4 1.8 -1.9
v -3.1 1.9 1.8
v -1.6 1.9 1.8
v 0.3 1.9 1.8
v 3.1 1.9 1.8
v -3.2 1.9 1.7
v -3.1 1.9 1.7
v -1.6 1.9 1.7
v -1.5 1.9 1.7
v 0.2 1.9 1.7
v 0.3 1.9 1.7
v 3.1 1.9 1.7
v 3.2 1.9 1.7
v -3.3 1.9 1.6
v -3.2 1.9 1.6
v -1.5 1.9 1.6
v -1.4 1.9 1.6
v 0.1 1.9 1.6
v 0.2 1.9 1.6
v 3.2 1.9 1.6
v 3.3 1.9 1.6
v 2.38419e-07 1.9 1.5
v 0.1 1.9 1.5
v -0.0999999 1.9 1.4
v 2.38419e-07 1.9 1.4
v -0.2 1.9 1.3
v -0.0999999 1.9 1.3
v -0.3 1.9 1.2
v -0.2 1.9 1.2
v -0.4 1.9 1.1
v -0.3 1.9 1.1
v -0.5 1.9 1
v -0.4 1.9 1
v -0.6 1.9 0.9
v -0.5 1.9 0.9
v -0.7 1.9 0.8
v -0.6 1.9 0.8
v -0.8 1.9 0.7
v -0.7 1.9 0.7
v -0.9 1.9 0.6
v -0.8 1.9 0.6
v -1 1.9 0.5
v -0.9 1.9 0.5
v -1.1 1.9 0.4
v -1 1.9 0.4
v -1.2 1.9 0.3
v -1.1 1.9 0.3
v -3.3 1.9 -1.6
v -3.2 1.9 -1.6
v -1.5 1.9 -1.6
v -1.4 1.9 -1.6
v -1.2 1.9 -1.6
v -1.1 1.9 -1.6
v 3.2 1.9 -1.6
v 3.3 1.9 -1.6
v -3.2 1.9 -1.7
v -3.1 1.9 -1.7
v -1.6 1.9 -1.7
v -1.5 1.9 -1.7
v -1.1 1.9 -1.7
v -1 1.9 -1.7
v 3.1 1.9 -1.7
v 3.2 1.9 -1.7
v -3.1 1.9 -1.8
v -1.6 1.9 -1.8
v -1 1.9 -1.8
v 3.1 1.9 -1.8

# faces
f 3/6/1 2/6/1 1/6/1
f 4/6/1 2/6/1 3/6/1
f 7/6/1 6/6/1 5/6/1
f 8/6/1 6/6/1 7/6/1
f 11/6/1 10/6/1 9/6/1
f 12/6/1 10/6/1 11/6/1
f 15/4/1 14/4/1 13/4/1
f 16/4/1 14/4/1 15/4/1
f 19/5/1 18/5/1 17/5/1
f 20/5/1 18/5/1 19/5/1
f 21/5/1 18/5/1 20/5/1
f 22/5/1 18/5/1 21/5/1
f 23/4/1 20/4/1 19/4/1
f 24/4/1 20/4/1 23/4/1
f 25/4/1 22/4/1 21/4/1
f 26/4/1 22/4/1 25/4/1
f 31/4/1 28/4/1 27/4/1
f 32/4/1 28/4/1 31/4/1
f 33/4/1 30/4/1 29/4/1
f 34/4/1 30/4/1 33/4/1
f 37/4/1 36/4/1 35/4/1
f 38/4/1 36/4/1 37/4/1
f 43/4/1 40/4/1 39/4/1
f 44/4/1 40/4/1 43/4/1
f 45/4/1 42/4/1 41/4/1
f 46/4/1 42/4/1 45/4/1
f 51/4/1 48/4/1 47/4/1
f 52/4/1 48/4/1 51/4/1
f 53/4/1 50/4/1 49/4/1
f 54/4/1 50/4/1 53/4/1
f 57/4/1 56/4/1 55/4/1
f 58/4/1 56/4/1 57/4/1
f 61/4/1 60/4/1 59/4/1
f 62/4/1 60/4/1 61/4/1
f 65/4/1 64/4/1 63/4/1
f 66/4/1 64/4/1 65/4/1
f 69/4/1 68/4/1 67/4/1
f 70/4/1 68/4/1 69/4/1
f 73/4/1 72/4/1 71/4/1
f 74/4/1 72/4/1 73/4/1
f 77/4/1 76/4/1 75/4/1
f 78/4/1 76/4/1 77/4/1
f 81/4/1 80/4/1 79/4/1
f 82/4/1 80/4/1 81/4/1
f 85/4/1 84/4/1 83/4/1
f 86/4/1 84/4/1 85/4/1
f 89/4/1 88/4/1 87/4/1
f 90/4/1 88/4/1 89/4/1
f 93/4/1 92/4/1 91/4/1
f 94/4/1 92/4/1 93/4/1
f 97/4/1 96/4/1 95/4/1
f 98/4/1 96/4/1 97/4/1
f 101/4/1 100/4/1 99/4/1
f 102/4/1 100/4/1 101/4/1
f 105/4/1 104/4/1 103/4/1
f 106/4/1 104/4/1 105/4/1
f 109/6/1 108/6/1 107/6/1
f 110/6/1 108/6/1 109/6/1
f 111/6/1 108/6/1 110/6/1
f 112/6/1 108/6/1 111/6/1
f 113/6/2 114/6/2 115/6/2
f 115/6/2 114/6/2 116/6/2
f 116/6/2 114/6/2 117/6/2
f 117/6/2 114/6/2 118/6/2
f 119/4/2 120/4/2 123/4/2
f 123/4/2 120/4/2 124/4/2
f 121/4/2 122/4/2 125/4/2
f 125/4/2 122/4/2 126/4/2
f 127/4/2 128/4/2 131/4/2
f 131/4/2 128/4/2 132/4/2
f 129/4/2 130/4/2 133/4/2
f 133/4/2 130/4/2 134/4/2
f 135/4/2 136/4/2 137/4/2
f 137/4/2 136/4/2 138/4/2
f 139/4/2 140/4/2 143/4/2
f 143/4/2 140/4/2 144/4/2
f 141/4/2 142/4/2 145/4/2
f 145/4/2 142/4/2 146/4/2
f 147/5/2 148/5/2 149/5/2
f 149/5/2 148/5/2 150/5/2
f 150/5/2 148/5/2 151/5/2
f 151/5/2 148/5/2 152/5/2
f 149/4/2 150/4/2 153/4/2
f 153/4/2 150/4/2 154/4/2
f 151/4/2 152/4/2 155/4/2
f 155/4/2 152/4/2 156/4/2
f 157/4/2 158/4/2 159/4/2
f 159/4/2 158/4/2 160/4/2
f 161/6/2 162/6/2 163/6/2
f 163/6/2 162/6/2 164/6/2
f 165/6/2 166/6/2 167/6/2
f 167/6/2 166/6/2 168/6/2
f 169/6/2 170/6/2 171/6/2
f 171/6/2 170/6/2 172/6/2
f 175/6/3 174/6/3 173/6/3
f 176/6/3 174/6/3 175/6/3
f 177/7/3 176/7/3 175/7/3
f 178/7/3 176/7/3 177/7/3
f 179/7/3 177/7/3 175/7/3
f 179/1/3 178/1/3 177/1/3
f 180/7/3 176/7/3 178/7/3
f 180/1/3 178/1/3 179/1/3
f 181/7/3 179/7/3 175/7/3
f 181/7/3 180/7/3 179/7/3
f 182/7/3 176/7/3 180/7/3
f 182/7/3 180/7/3 181/7/3
f 183/3/3 182/3/3 181/3/3
f 184/3/3 182/3/3 183/3/3
f 185/3/3 183/3/3 181/3/3
f 185/2/3 184/2/3 183/2/3
f 186/3/3 182/3/3 184/3/3
f 186/2/3 184/2/3 185/2/3
f 187/3/3 185/3/3 181/3/3
f 187/3/3 186/3/3 185/3/3
f 188/3/3 182/3/3 186/3/3
f 188/3/3 186/3/3 187/3/3
f 189/3/3 187/3/3 181/3/3
f 189/2/3 188/2/3 187/2/3
f 190/3/3 182/3/3 188/3/3
f 190/2/3 188/2/3 189/2/3
f 191/3/3 189/3/3 181/3/3
f 191/3/3 190/3/3 189/3/3
f 192/3/3 182/3/3 190/3/3
f 192/3/3 190/3/3 191/3/3
f 193/3/3 191/3/3 181/3/3
f 193/2/3 192/2/3 191/2/3
f 194/3/3 182/3/3 192/3/3
f 194/2/3 192/2/3 193/2/3
f 195/7/3 181/7/3 175/7/3
f 195/3/3 193/3/3 181/3/3
f 195/3/3 194/3/3 193/3/3
f 196/3/3 182/3/3 194/3/3
f 196/3/3 194/3/3 195/3/3
f 196/7/3 176/7/3 182/7/3
f 197/6/3 175/6/3 173/6/3
f 197/7/3 195/7/3 175/7/3
f 197/7/3 196/7/3 195/7/3
f 198/7/3 176/7/3 196/7/3
f 198/7/3 196/7/3 197/7/3
f 198/6/3 174/6/3 176/6/3
f 199/6/3 197/6/3 173/6/3
f 199/6/3 198/6/3 197/6/3
f 200/6/3 174/6/3 198/6/3
f 200/6/3 198/6/3 199/6/3
f 205/6/3 202/6/3 201/6/3
f 206/6/3 202/6/3 205/6/3
f 207/6/3 204/6/3 203/6/3
f 208/6/3 204/6/3 207/6/3
f 211/4/3 210/4/3 209/4/3
f 212/4/3 210/4/3 211/4/3
f 215/4/3 214/4/3 213/4/3
f 216/4/3 214/4/3 215/4/3
f 220/5/3 218/5/3 217/5/3
f 220/4/3 219/4/3 218/4/3
f 221/4/3 219/4/3 220/4/3
f 222/5/3 220/5/3 217/5/3
f 224/5/3 222/5/3 217/5/3
f 224/4/3 223/4/3 222/4/3
f 225/4/3 223/4/3 224/4/3
f 226/5/3 224/5/3 217/5/3
f 228/5/3 226/5/3 217/5/3
f 228/4/3 227/4/3 226/4/3
f 229/4/3 227/4/3 228/4/3
f 230/5/3 228/5/3 217/5/3
f 232/5/3 230/5/3 217/5/3
f 233/4/3 231/4/3 230/4/3
f 233/5/3 230/5/3 232/5/3
f 234/4/3 231/4/3 233/4/3
f 237/4/3 236/4/3 235/4/3
f 238/4/3 236/4/3 237/4/3
f 241/4/3 240/4/3 239/4/3
f 242/4/3 240/4/3 241/4/3
f 245/4/3 244/4/3 243/4/3
f 246/4/3 244/4/3 245/4/3
f 249/4/3 248/4/3 247/4/3
f 250/4/3 248/4/3 249/4/3
f 253/4/3 252/4/3 251/4/3
f 254/4/3 252/4/3 253/4/3
f 257/4/3 256/4/3 255/4/3
f 258/4/3 256/4/3 257/4/3
f 261/4/3 260/4/3 259/4/3
f 262/4/3 260/4/3 261/4/3
f 265/4/3 264/4/3 263/4/3
f 266/4/3 264/4/3 265/4/3
f 269/4/3 268/4/3 267/4/3
f 270/4/3 268/4/3 269/4/3
f 273/4/3 272/4/3 271/4/3
f 274/4/3 272/4/3 273/4/3
f 277/4/3 276/4/3 275/4/3
f 278/4/3 276/4/3 277/4/3
f 281/4/3 280/4/3 279/4/3
f 282/4/3 280/4/3 281/4/3
f 285/4/3 284/4/3 283/4/3
f 286/4/3 284/4/3 285/4/3
f 289/4/3 288/4/3 287/4/3
f 290/4/3 288/4/3 289/4/3
f 293/4/3 292/4/3 291/4/3
f 294/4/3 292/4/3 293/4/3
f 297/4/3 296/4/3 295/4/3
f 298/4/3 296/4/3 297/4/3
f 301/4/3 300/4/3 299/4/3
f 302/4/3 300/4/3 301/4/3
f 305/6/3 304/6/3 303/6/3
f 306/6/3 305/6/3 303/6/3
f 307/6/3 306/6/3 303/6/3
f 308/6/3 307/6/3 303/6/3
f 309/6/3 308/6/3 303/6/3
f 310/6/3 308/6/3 309/6/3
f 311/6/4 312/6/4 313/6/4
f 311/6/4 313/6/4 314/6/4
f 311/6/4 314/6/4 315/6/4
f 311/6/4 315/6/4 316/6/4
f 311/6/4 316/6/4 317/6/4
f 317/6/4 316/6/4 318/6/4
f 319/4/4 320/4/4 321/4/4
f 321/4/4 320/4/4 322/4/4
f 323/4/4 324/4/4 325/4/4
f 325/4/4 324/4/4 326/4/4
f 327/4/4 328/4/4 329/4/4
f 329/4/4 328/4/4 330/4/4
f 331/4/4 332/4/4 333/4/4
f 333/4/4 332/4/4 334/4/4
f 335/5/4 336/5/4 338/5/4
f 336/4/4 337/4/4 338/4/4
f 338/4/4 337/4/4 339/4/4
f 335/5/4 338/5/4 340/5/4
f 335/5/4 340/5/4 342/5/4
f 340/4/4 341/4/4 342/4/4
f 342/4/4 341/4/4 343/4/4
f 335/5/4 342/5/4 344/5/4
f 335/5/4 344/5/4 346/5/4
f 344/4/4 345/4/4 346/4/4
f 346/4/4 345/4/4 347/4/4
f 335/5/4 346/5/4 348/5/4
f 335/5/4 348/5/4 350/5/4
f 348/4/4 349/4/4 351/4/4
f 350/5/4 348/5/4 351/5/4
f 351/4/4 349/4/4 352/4/4
f 353/4/4 354/4/4 355/4/4
f 355/4/4 354/4/4 356/4/4
f 357/4/4 358/4/4 359/4/4
f 359/4/4 358/4/4 360/4/4
f 361/6/4 362/6/4 365/6/4
f 365/6/4 362/6/4 366/6/4
f 363/6/4 364/6/4 367/6/4
f 367/6/4 364/6/4 368/6/4
f 369/6/4 370/6/4 371/6/4
f 371/6/4 370/6/4 372/6/4
f 375/6/5 374/6/5 373/6/5
f 376/6/5 374/6/5 375/6/5
f 379/6/5 378/6/5 377/6/5
f 380/6/5 378/6/5 379/6/5
f 381/6/5 379/6/5 377/6/5
f 382/6/5 378/6/5 380/6/5
f 383/6/5 381/6/5 377/6/5
f 383/6/5 382/6/5 381/6/5
f 384/6/5 378/6/5 382/6/5
f 384/6/5 382/6/5 383/6/5
f 389/4/5 386/4/5 385/4/5
f 390/4/5 386/4/5 389/4/5
f 391/4/5 388/4/5 387/4/5
f 392/4/5 388/4/5 391/4/5
f 397/4/5 394/4/5 393/4/5
f 398/4/5 394/4/5 397/4/5
f 399/4/5 396/4/5 395/4/5
f 400/4/5 396/4/5 399/4/5
f 405/4/5 402/4/5 401/4/5
f 406/4/5 402/4/5 405/4/5
f 407/4/5 404/4/5 403/4/5
f 408/4/5 404/4/5 407/4/5
f 409/6/6 410/6/6 411/6/6
f 411/6/6 410/6/6 412/6/6
f 413/6/6 414/6/6 415/6/6
f 415/6/6 414/6/6 416/6/6
f 413/6/6 415/6/6 417/6/6
f 416/6/6 414/6/6 418/6/6
f 413/6/6 417/6/6 419/6/6
f 417/6/6 418/6/6 419/6/6
f 418/6/6 414/6/6 420/6/6
f 419/6/6 418/6/6 420/6/6
f 409/6/6 411/6/6 421/6/6
f 412/6/6 410/6/6 422/6/6
f 409/6/6 421/6/6 423/6/6
f 421/6/6 422/6/6 423/6/6
f 422/6/6 410/6/6 424/6/6
f 423/6/6 422/6/6 424/6/6
f 425/6/6 426/6/6 427/6/6
f 427/6/6 426/6/6 428/6/6
f 428/6/6 426/6/6 429/6/6
f 429/6/6 426/6/6 430/6/6
f 430/6/6 426/6/6 431/6/6
f 431/6/6 426/6/6 432/6/6
f 425/6/6 427/6/6 435/6/6
f 433/5/6 434/5/6 436/5/6
f 436/5/6 434/5/6 437/5/6
f 437/5/6 434/5/6 438/5/6
f 438/5/6 434/5/6 439/5/6
f 432/6/6 426/6/6 440/6/6
f 437/5/6 438/5/6 441/5/6
f 441/5/6 438/5/6 442/5/6
f 437/5/6 441/5/6 443/5/6
f 443/5/6 441/5/6 444/5/6
f 437/5/6 443/5/6 445/5/6
f 445/5/6 443/5/6 446/5/6
f 437/5/6 445/5/6 447/5/6
f 447/5/6 445/5/6 448/5/6
f 437/5/6 447/5/6 449/5/6
f 449/5/6 447/5/6 450/5/6
f 437/5/6 449/5/6 451/5/6
f 451/5/6 449/5/6 452/5/6
f 437/5/6 451/5/6 453/5/6
f 453/5/6 451/5/6 454/5/6
f 437/5/6 453/5/6 455/5/6
f 455/5/6 453/5/6 456/5/6
f 437/5/6 455/5/6 457/5/6
f 457/5/6 455/5/6 458/5/6
f 437/5/6 457/5/6 459/5/6
f 459/5/6 457/5/6 460/5/6
f 437/5/6 459/5/6 461/5/6
f 461/5/6 459/5/6 462/5/6
f 437/5/6 461/5/6 463/5/6
f 463/5/6 461/5/6 464/5/6
f 437/5/6 463/5/6 465/5/6
f 465/5/6 463/5/6 466/5/6
f 425/6/6 435/6/6 467/6/6
f 437/5/6 465/5/6 469/5/6
f 469/5/6 465/5/6 470/5/6
f 440/6/6 426/6/6 472/6/6
f 470/5/6 471/5/6 473/5/6
f 469/5/6 470/5/6 473/5/6
f 468/5/6 469/5/6 473/5/6
f 473/5/6 471/5/6 474/5/6
f 425/6/6 467/6/6 475/6/6
f 472/6/6 426/6/6 480/6/6
f 478/6/6 479/6/6 481/6/6
f 479/6/6 480/6/6 481/6/6
f 476/6/6 477/6/6 481/6/6
f 425/6/6 475/6/6 481/6/6
f 477/6/6 478/6/6 481/6/6
f 475/6/6 476/6/6 481/6/6
f 480/6/6 426/6/6 482/6/6
f 481/6/6 480/6/6 482/6/6
f 483/4/6 484/4/6 488/4/6
f 488/4/6 484/4/6 489/4/6
f 485/4/6 486/4/6 492/4/6
f 492/4/6 486/4/6 493/4/6
f 489/4/6 490/4/6 496/4/6
f 487/4/6 488/4/6 496/4/6
f 488/4/6 489/4/6 496/4/6
f 496/4/6 490/4/6 497/4/6
f 493/4/6 494/4/6 500/4/6
f 492/4/6 493/4/6 500/4/6
f 491/4/6 492/4/6 500/4/6
f 500/4/6 494/4/6 501/4/6
f 499/4/6 500/4/6 504/4/6
f 501/4/6 502/4/6 504/4/6
f 500/4/6 501/4/6 504/4/6
f 503/4/6 504/4/6 506/4/6
f 505/4/6 506/4/6 508/4/6
f 507/4/6 508/4/6 510/4/6
f 509/4/6 510/4/6 512/4/6
f 511/4/6 512/4/6 514/4/6
f 513/4/6 514/4/6 516/4/6
f 515/4/6 516/4/6 518/4/6
f 517/4/6 518/4/6 520/4/6
f 519/4/6 520/4/6 522/4/6
f 521/4/6 522/4/6 524/4/6
f 523/4/6 524/4/6 526/4/6
f 525/4/6 526/4/6 528/4/6
f 497/4/6 498/4/6 529/4/6
f 496/4/6 497/4/6 529/4/6
f 495/4/6 496/4/6 529/4/6
f 529/4/6 498/4/6 530/4/6
f 530/4/6 498/4/6 531/4/6
f 531/4/6 498/4/6 532/4/6
f 527/4/6 528/4/6 533/4/6
f 528/4/6 526/4/6 534/4/6
f 533/4/6 528/4/6 534/4/6
f 504/4/6 502/4/6 535/4/6
f 534/4/6 526/4/6 535/4/6
f 506/4/6 504/4/6 535/4/6
f 508/4/6 506/4/6 535/4/6
f 510/4/6 508/4/6 535/4/6
f 512/4/6 510/4/6 535/4/6
f 526/4/6 524/4/6 535/4/6
f 514/4/6 512/4/6 535/4/6
f 524/4/6 522/4/6 535/4/6
f 516/4/6 514/4/6 535/4/6
f 522/4/6 520/4/6 535/4/6
f 518/4/6 516/4/6 535/4/6
f 520/4/6 518/4/6 535/4/6
f 535/4/6 502/4/6 536/4/6
f 530/4/6 531/4/6 537/4/6
f 537/4/6 531/4/6 538/4/6
f 538/4/6 531/4/6 539/4/6
f 539/4/6 531/4/6 540/4/6
f 534/4/6 535/4/6 541/4/6
f 541/4/6 535/4/6 542/4/6
f 542/4/6 535/4/6 543/4/6
f 543/4/6 535/4/6 544/4/6
f 538/4/6 539/4/6 545/4/6
f 545/4/6 539/4/6 546/4/6
f 542/4/6 543/4/6 547/4/6
f 547/4/6 543/4/6 548/4/6
