# MagicaVoxel @ Ephtracy

# group
o 

# material
mtllib Start Room-4.mtl
usemtl palette

# normals
vn -1 0 0
vn 1 0 0
vn 0 0 1
vn 0 0 -1
vn 0 -1 0
vn 0 1 0

# texcoords
vt 0.587891 0.5
vt 0.990234 0.5
vt 0.994141 0.5

# verts
v -1 3.5 0.9
v -1 3.5 0.7
v -1 3.5 0.6
v -1 3.6 1.5
v -1 3.6 0.9
v -1 3.6 0.7
v -1 3.6 0.6
v -1 3.6 0.5
v -1 3.7 1.5
v -1 3.7 0.9
v -1 3.7 0.7
v -1 3.7 0.6
v -1 3.7 0.5
v -1 3.8 0.9
v -1 3.8 0.7
v -1 3.8 0.6
v -1 3.8 0.5
v -0.9 3.2 0.8
v -0.9 3.2 0.7
v -0.9 3.5 1.5
v -0.9 3.5 0.9
v -0.9 3.5 0.8
v -0.9 3.5 0.7
v -0.9 3.5 0.6
v -0.9 3.5 0.5
v -0.9 3.6 1.5
v -0.9 3.6 0.9
v -0.9 3.6 0.6
v -0.9 3.6 0.5
v -0.9 3.7 1.5
v -0.9 3.7 0.9
v -0.9 3.8 1.5
v -0.9 3.8 0.9
v -0.9 3.8 0.7
v -0.9 3.8 0.6
v -0.9 3.9 0.7
v -0.9 3.9 0.6
v -0.8 3.2 0.8
v -0.8 3.2 0.7
v -0.8 3.5 1.5
v -0.8 3.5 0.9
v -0.8 3.5 0.8
v -0.8 3.5 0.7
v -0.8 3.5 0.6
v -0.8 3.5 0.5
v -0.8 3.6 1.5
v -0.8 3.6 0.9
v -0.8 3.6 0.6
v -0.8 3.6 0.5
v -0.8 3.7 1.5
v -0.8 3.7 0.9
v -0.8 3.8 1.5
v -0.8 3.8 0.9
v -0.8 3.8 0.7
v -0.8 3.8 0.6
v -0.8 3.9 0.7
v -0.8 3.9 0.6
v -0.7 3.5 0.9
v -0.7 3.5 0.7
v -0.7 3.5 0.6
v -0.7 3.6 1.5
v -0.7 3.6 0.9
v -0.7 3.6 0.7
v -0.7 3.6 0.6
v -0.7 3.6 0.5
v -0.7 3.7 1.5
v -0.7 3.7 0.9
v -0.7 3.7 0.7
v -0.7 3.7 0.6
v -0.7 3.7 0.5
v -0.7 3.8 0.9
v -0.7 3.8 0.7
v -0.7 3.8 0.6
v -0.7 3.8 0.5
v -1 3.6 1.5
v -1 3.7 1.5
v -0.9 3.5 1.5
v -0.9 3.6 1.5
v -0.9 3.7 1.5
v -0.9 3.8 1.5
v -0.8 3.5 1.5
v -0.8 3.6 1.5
v -0.8 3.7 1.5
v -0.8 3.8 1.5
v -0.7 3.6 1.5
v -0.7 3.7 1.5
v -1 3.5 0.9
v -1 3.6 0.9
v -1 3.7 0.9
v -1 3.8 0.9
v -0.9 3.5 0.9
v -0.9 3.6 0.9
v -0.9 3.7 0.9
v -0.9 3.8 0.9
v -0.8 3.5 0.9
v -0.8 3.6 0.9
v -0.8 3.7 0.9
v -0.8 3.8 0.9
v -0.7 3.5 0.9
v -0.7 3.6 0.9
v -0.7 3.7 0.9
v -0.7 3.8 0.9
v -0.9 3.2 0.8
v -0.9 3.5 0.8
v -0.8 3.2 0.8
v -0.8 3.5 0.8
v -0.9 3.8 0.7
v -0.9 3.9 0.7
v -0.8 3.8 0.7
v -0.8 3.9 0.7
v -0.9 3.2 0.7
v -0.9 3.5 0.7
v -0.8 3.2 0.7
v -0.8 3.5 0.7
v -1 3.5 0.6
v -1 3.6 0.6
v -0.9 3.5 0.6
v -0.9 3.6 0.6
v -0.9 3.8 0.6
v -0.9 3.9 0.6
v -0.8 3.5 0.6
v -0.8 3.6 0.6
v -0.8 3.8 0.6
v -0.8 3.9 0.6
v -0.7 3.5 0.6
v -0.7 3.6 0.6
v -1 3.6 0.5
v -1 3.7 0.5
v -1 3.8 0.5
v -0.9 3.5 0.5
v -0.9 3.6 0.5
v -0.9 3.7 0.5
v -0.9 3.8 0.5
v -0.8 3.5 0.5
v -0.8 3.6 0.5
v -0.8 3.7 0.5
v -0.8 3.8 0.5
v -0.7 3.6 0.5
v -0.7 3.7 0.5
v -0.7 3.8 0.5
v -0.9 3.2 0.8
v -0.8 3.2 0.8
v -0.9 3.2 0.7
v -0.8 3.2 0.7
v -0.9 3.5 1.5
v -0.8 3.5 1.5
v -1 3.5 0.9
v -0.9 3.5 0.9
v -0.8 3.5 0.9
v -0.7 3.5 0.9
v -0.9 3.5 0.8
v -0.8 3.5 0.8
v -1 3.5 0.7
v -0.9 3.5 0.7
v -0.8 3.5 0.7
v -0.7 3.5 0.7
v -1 3.5 0.6
v -0.9 3.5 0.6
v -0.8 3.5 0.6
v -0.7 3.5 0.6
v -0.9 3.5 0.5
v -0.8 3.5 0.5
v -1 3.6 1.5
v -0.9 3.6 1.5
v -0.8 3.6 1.5
v -0.7 3.6 1.5
v -1 3.6 0.9
v -0.9 3.6 0.9
v -0.8 3.6 0.9
v -0.7 3.6 0.9
v -1 3.6 0.6
v -0.9 3.6 0.6
v -0.8 3.6 0.6
v -0.7 3.6 0.6
v -1 3.6 0.5
v -0.9 3.6 0.5
v -0.8 3.6 0.5
v -0.7 3.6 0.5
v -1 3.7 1.5
v -0.9 3.7 1.5
v -0.8 3.7 1.5
v -0.7 3.7 1.5
v -1 3.7 0.9
v -0.9 3.7 0.9
v -0.8 3.7 0.9
v -0.7 3.7 0.9
v -0.9 3.8 1.5
v -0.8 3.8 1.5
v -1 3.8 0.9
v -0.9 3.8 0.9
v -0.8 3.8 0.9
v -0.7 3.8 0.9
v -1 3.8 0.7
v -0.9 3.8 0.7
v -0.8 3.8 0.7
v -0.7 3.8 0.7
v -1 3.8 0.6
v -0.9 3.8 0.6
v -0.8 3.8 0.6
v -0.7 3.8 0.6
v -1 3.8 0.5
v -0.9 3.8 0.5
v -0.8 3.8 0.5
v -0.7 3.8 0.5
v -0.9 3.9 0.7
v -0.8 3.9 0.7
v -0.9 3.9 0.6
v -0.8 3.9 0.6

# faces
f 5/2/1 2/2/1 1/2/1
f 6/3/1 3/3/1 2/3/1
f 6/2/1 2/2/1 5/2/1
f 7/3/1 3/3/1 6/3/1
f 9/2/1 5/2/1 4/2/1
f 10/3/1 8/3/1 7/3/1
f 10/2/1 5/2/1 9/2/1
f 10/3/1 6/3/1 5/3/1
f 10/3/1 7/3/1 6/3/1
f 11/3/1 8/3/1 10/3/1
f 12/3/1 8/3/1 11/3/1
f 13/3/1 8/3/1 12/3/1
f 14/2/1 11/2/1 10/2/1
f 15/3/1 12/3/1 11/3/1
f 15/2/1 11/2/1 14/2/1
f 16/2/1 13/2/1 12/2/1
f 16/3/1 12/3/1 15/3/1
f 17/2/1 13/2/1 16/2/1
f 22/3/1 19/3/1 18/3/1
f 23/3/1 19/3/1 22/3/1
f 26/2/1 21/2/1 20/2/1
f 27/2/1 21/2/1 26/2/1
f 28/3/1 25/3/1 24/3/1
f 29/3/1 25/3/1 28/3/1
f 32/2/1 31/2/1 30/2/1
f 33/2/1 31/2/1 32/2/1
f 36/3/1 35/3/1 34/3/1
f 37/3/1 35/3/1 36/3/1
f 38/3/2 39/3/2 42/3/2
f 42/3/2 39/3/2 43/3/2
f 40/2/2 41/2/2 46/2/2
f 46/2/2 41/2/2 47/2/2
f 44/3/2 45/3/2 48/3/2
f 48/3/2 45/3/2 49/3/2
f 50/2/2 51/2/2 52/2/2
f 52/2/2 51/2/2 53/2/2
f 54/3/2 55/3/2 56/3/2
f 56/3/2 55/3/2 57/3/2
f 58/2/2 59/2/2 62/2/2
f 59/3/2 60/3/2 63/3/2
f 62/2/2 59/2/2 63/2/2
f 63/3/2 60/3/2 64/3/2
f 61/2/2 62/2/2 66/2/2
f 64/3/2 65/3/2 67/3/2
f 66/2/2 62/2/2 67/2/2
f 62/3/2 63/3/2 67/3/2
f 63/3/2 64/3/2 67/3/2
f 67/3/2 65/3/2 68/3/2
f 68/3/2 65/3/2 69/3/2
f 69/3/2 65/3/2 70/3/2
f 67/2/2 68/2/2 71/2/2
f 68/3/2 69/3/2 72/3/2
f 71/2/2 68/2/2 72/2/2
f 69/2/2 70/2/2 73/2/2
f 72/3/2 69/3/2 73/3/2
f 73/2/2 70/2/2 74/2/2
f 78/2/3 76/2/3 75/2/3
f 79/2/3 76/2/3 78/2/3
f 81/2/3 78/2/3 77/2/3
f 82/1/3 79/1/3 78/1/3
f 82/2/3 78/2/3 81/2/3
f 83/2/3 80/2/3 79/2/3
f 83/1/3 79/1/3 82/1/3
f 84/2/3 80/2/3 83/2/3
f 85/2/3 83/2/3 82/2/3
f 86/2/3 83/2/3 85/2/3
f 91/2/3 88/2/3 87/2/3
f 92/2/3 88/2/3 91/2/3
f 93/2/3 90/2/3 89/2/3
f 94/2/3 90/2/3 93/2/3
f 99/2/3 96/2/3 95/2/3
f 100/2/3 96/2/3 99/2/3
f 101/2/3 98/2/3 97/2/3
f 102/2/3 98/2/3 101/2/3
f 105/3/3 104/3/3 103/3/3
f 106/3/3 104/3/3 105/3/3
f 109/3/3 108/3/3 107/3/3
f 110/3/3 108/3/3 109/3/3
f 111/3/4 112/3/4 113/3/4
f 113/3/4 112/3/4 114/3/4
f 115/3/4 116/3/4 117/3/4
f 117/3/4 116/3/4 118/3/4
f 119/3/4 120/3/4 123/3/4
f 123/3/4 120/3/4 124/3/4
f 121/3/4 122/3/4 125/3/4
f 125/3/4 122/3/4 126/3/4
f 127/3/4 128/3/4 131/3/4
f 128/2/4 129/2/4 132/2/4
f 131/3/4 128/3/4 132/3/4
f 132/2/4 129/2/4 133/2/4
f 130/3/4 131/3/4 134/3/4
f 131/3/4 132/3/4 134/3/4
f 132/3/4 133/3/4 134/3/4
f 134/3/4 133/3/4 135/3/4
f 135/3/4 133/3/4 136/3/4
f 136/3/4 133/3/4 137/3/4
f 135/3/4 136/3/4 138/3/4
f 136/2/4 137/2/4 139/2/4
f 138/3/4 136/3/4 139/3/4
f 139/2/4 137/2/4 140/2/4
f 143/3/5 142/3/5 141/3/5
f 144/3/5 142/3/5 143/3/5
f 148/2/5 146/2/5 145/2/5
f 149/2/5 146/2/5 148/2/5
f 151/2/5 148/2/5 147/2/5
f 151/3/5 149/3/5 148/3/5
f 152/2/5 150/2/5 149/2/5
f 152/3/5 149/3/5 151/3/5
f 153/2/5 151/2/5 147/2/5
f 154/2/5 151/2/5 153/2/5
f 155/2/5 150/2/5 152/2/5
f 156/2/5 150/2/5 155/2/5
f 157/3/5 154/3/5 153/3/5
f 157/3/5 155/3/5 154/3/5
f 157/3/5 156/3/5 155/3/5
f 158/3/5 156/3/5 157/3/5
f 159/3/5 156/3/5 158/3/5
f 160/3/5 156/3/5 159/3/5
f 161/3/5 159/3/5 158/3/5
f 162/3/5 159/3/5 161/3/5
f 167/2/5 164/2/5 163/2/5
f 168/2/5 164/2/5 167/2/5
f 169/2/5 166/2/5 165/2/5
f 170/2/5 166/2/5 169/2/5
f 175/3/5 172/3/5 171/3/5
f 176/3/5 172/3/5 175/3/5
f 177/3/5 174/3/5 173/3/5
f 178/3/5 174/3/5 177/3/5
f 179/2/6 180/2/6 183/2/6
f 183/2/6 180/2/6 184/2/6
f 181/2/6 182/2/6 185/2/6
f 185/2/6 182/2/6 186/2/6
f 187/2/6 188/2/6 190/2/6
f 190/2/6 188/2/6 191/2/6
f 189/2/6 190/2/6 193/2/6
f 190/3/6 191/3/6 194/3/6
f 193/2/6 190/2/6 194/2/6
f 191/2/6 192/2/6 195/2/6
f 194/3/6 191/3/6 195/3/6
f 195/2/6 192/2/6 196/2/6
f 193/3/6 194/3/6 197/3/6
f 197/3/6 194/3/6 198/3/6
f 195/3/6 196/3/6 199/3/6
f 199/3/6 196/3/6 200/3/6
f 197/2/6 198/2/6 201/2/6
f 198/3/6 199/3/6 202/3/6
f 201/2/6 198/2/6 202/2/6
f 199/2/6 200/2/6 203/2/6
f 202/3/6 199/3/6 203/3/6
f 203/2/6 200/2/6 204/2/6
f 205/3/6 206/3/6 207/3/6
f 207/3/6 206/3/6 208/3/6
