# MagicaVoxel @ Ephtracy

# group
o 

# material
mtllib Lighter.mtl
usemtl palette

# normals
vn -1 0 0
vn 1 0 0
vn 0 0 1
vn 0 0 -1
vn 0 -1 0
vn 0 1 0

# texcoords
vt 0.0449219 0.5
vt 0.939453 0.5

# verts
v -5.3 1.1 -1.8
v -5.3 1.1 -1.9
v -5.3 1.6 -1.8
v -5.3 1.6 -1.9
v -5.2 1 -1.8
v -5.2 1 -1.9
v -5.2 1.1 -1.8
v -5.2 1.1 -1.9
v -5.2 1.3 -1.7
v -5.2 1.3 -1.8
v -5.2 1.3 -1.9
v -5.2 1.3 -2
v -5.2 1.6 -1.7
v -5.2 1.6 -1.8
v -5.2 1.6 -1.9
v -5.2 1.6 -2
v -5.1 0.9 -1.8
v -5.1 0.9 -1.9
v -5.1 1 -1.8
v -5.1 1 -1.9
v -5.1 1.1 -1.7
v -5.1 1.1 -1.8
v -5.1 1.1 -1.9
v -5.1 1.1 -2
v -5.1 1.2 -1.8
v -5.1 1.2 -1.9
v -5.1 1.2 -2
v -5.1 1.3 -1.6
v -5.1 1.3 -1.7
v -5.1 1.3 -1.8
v -5.1 1.3 -2
v -5.1 1.3 -2.1
v -5.1 1.6 -1.6
v -5.1 1.6 -1.7
v -5.1 1.6 -1.8
v -5.1 1.6 -1.9
v -5.1 1.6 -2
v -5.1 1.6 -2.1
v -5.1 1.7 -1.8
v -5.1 1.7 -1.9
v -5 0.7 -1.8
v -5 0.7 -1.9
v -5 0.9 -1.7
v -5 0.9 -1.8
v -5 0.9 -1.9
v -5 0.9 -2
v -5 1 -1.6
v -5 1 -1.7
v -5 1 -2
v -5 1 -2.1
v -5 1.1 -1.5
v -5 1.1 -1.6
v -5 1.1 -1.7
v -5 1.1 -1.8
v -5 1.1 -1.9
v -5 1.1 -2
v -5 1.1 -2.1
v -5 1.1 -2.2
v -5 1.2 -1.6
v -5 1.2 -1.7
v -5 1.2 -1.9
v -5 1.2 -2
v -5 1.2 -2.1
v -5 1.3 -1.6
v -5 1.3 -1.7
v -5 1.3 -1.9
v -5 1.3 -2.1
v -5 1.6 -1.5
v -5 1.6 -1.6
v -5 1.6 -1.7
v -5 1.6 -1.8
v -5 1.6 -1.9
v -5 1.6 -2
v -5 1.6 -2.1
v -5 1.6 -2.2
v -5 1.7 -1.7
v -5 1.7 -1.8
v -5 1.7 -1.9
v -5 1.7 -2
v -4.9 0.7 -1.8
v -4.9 0.7 -1.9
v -4.9 0.9 -1.7
v -4.9 0.9 -1.8
v -4.9 0.9 -1.9
v -4.9 0.9 -2
v -4.9 1 -1.6
v -4.9 1 -1.7
v -4.9 1 -2
v -4.9 1 -2.1
v -4.9 1.1 -1.5
v -4.9 1.1 -1.6
v -4.9 1.1 -1.7
v -4.9 1.1 -1.8
v -4.9 1.1 -1.9
v -4.9 1.1 -2
v -4.9 1.1 -2.1
v -4.9 1.1 -2.2
v -4.9 1.2 -1.6
v -4.9 1.2 -1.7
v -4.9 1.2 -2
v -4.9 1.2 -2.1
v -4.9 1.3 -1.6
v -4.9 1.3 -1.7
v -4.9 1.3 -2
v -4.9 1.3 -2.1
v -4.9 1.6 -1.5
v -4.9 1.6 -1.6
v -4.9 1.6 -1.7
v -4.9 1.6 -1.8
v -4.9 1.6 -1.9
v -4.9 1.6 -2
v -4.9 1.6 -2.1
v -4.9 1.6 -2.2
v -4.9 1.7 -1.7
v -4.9 1.7 -1.8
v -4.9 1.7 -1.9
v -4.9 1.7 -2
v -4.8 0.9 -1.8
v -4.8 0.9 -1.9
v -4.8 1 -1.8
v -4.8 1 -1.9
v -4.8 1.1 -1.7
v -4.8 1.1 -1.8
v -4.8 1.1 -1.9
v -4.8 1.1 -2
v -4.8 1.2 -1.8
v -4.8 1.2 -1.9
v -4.8 1.3 -1.6
v -4.8 1.3 -1.7
v -4.8 1.3 -1.8
v -4.8 1.3 -1.9
v -4.8 1.3 -2
v -4.8 1.3 -2.1
v -4.8 1.6 -1.6
v -4.8 1.6 -1.7
v -4.8 1.6 -1.8
v -4.8 1.6 -1.9
v -4.8 1.6 -2
v -4.8 1.6 -2.1
v -4.8 1.7 -1.8
v -4.8 1.7 -1.9
v -4.7 1 -1.8
v -4.7 1 -1.9
v -4.7 1.1 -1.8
v -4.7 1.1 -1.9
v -4.7 1.3 -1.7
v -4.7 1.3 -1.8
v -4.7 1.3 -1.9
v -4.7 1.3 -2
v -4.7 1.6 -1.7
v -4.7 1.6 -1.8
v -4.7 1.6 -1.9
v -4.7 1.6 -2
v -4.6 1.1 -1.8
v -4.6 1.1 -1.9
v -4.6 1.6 -1.8
v -4.6 1.6 -1.9
v -5 1.1 -1.5
v -5 1.6 -1.5
v -4.9 1.1 -1.5
v -4.9 1.6 -1.5
v -5.1 1.3 -1.6
v -5.1 1.6 -1.6
v -5 1 -1.6
v -5 1.1 -1.6
v -5 1.3 -1.6
v -5 1.6 -1.6
v -4.9 1 -1.6
v -4.9 1.1 -1.6
v -4.9 1.3 -1.6
v -4.9 1.6 -1.6
v -4.8 1.3 -1.6
v -4.8 1.6 -1.6
v -5.2 1.3 -1.7
v -5.2 1.6 -1.7
v -5.1 1.1 -1.7
v -5.1 1.3 -1.7
v -5.1 1.6 -1.7
v -5 0.9 -1.7
v -5 1 -1.7
v -5 1.1 -1.7
v -5 1.2 -1.7
v -5 1.3 -1.7
v -5 1.6 -1.7
v -5 1.7 -1.7
v -4.9 0.9 -1.7
v -4.9 1 -1.7
v -4.9 1.1 -1.7
v -4.9 1.2 -1.7
v -4.9 1.3 -1.7
v -4.9 1.6 -1.7
v -4.9 1.7 -1.7
v -4.8 1.1 -1.7
v -4.8 1.3 -1.7
v -4.8 1.6 -1.7
v -4.7 1.3 -1.7
v -4.7 1.6 -1.7
v -5.3 1.1 -1.8
v -5.3 1.6 -1.8
v -5.2 1 -1.8
v -5.2 1.1 -1.8
v -5.2 1.2 -1.8
v -5.2 1.3 -1.8
v -5.2 1.6 -1.8
v -5.1 0.9 -1.8
v -5.1 1 -1.8
v -5.1 1.1 -1.8
v -5.1 1.2 -1.8
v -5.1 1.3 -1.8
v -5.1 1.6 -1.8
v -5.1 1.7 -1.8
v -5 0.7 -1.8
v -5 0.9 -1.8
v -5 1.1 -1.8
v -5 1.6 -1.8
v -5 1.7 -1.8
v -4.9 0.7 -1.8
v -4.9 0.9 -1.8
v -4.9 1.1 -1.8
v -4.9 1.6 -1.8
v -4.9 1.7 -1.8
v -4.8 0.9 -1.8
v -4.8 1 -1.8
v -4.8 1.1 -1.8
v -4.8 1.2 -1.8
v -4.8 1.3 -1.8
v -4.8 1.6 -1.8
v -4.8 1.7 -1.8
v -4.7 1 -1.8
v -4.7 1.1 -1.8
v -4.7 1.2 -1.8
v -4.7 1.3 -1.8
v -4.7 1.6 -1.8
v -4.6 1.1 -1.8
v -4.6 1.6 -1.8
v -5.3 1.1 -1.9
v -5.3 1.6 -1.9
v -5.2 1 -1.9
v -5.2 1.1 -1.9
v -5.2 1.2 -1.9
v -5.2 1.3 -1.9
v -5.2 1.6 -1.9
v -5.1 0.9 -1.9
v -5.1 1 -1.9
v -5.1 1.1 -1.9
v -5.1 1.2 -1.9
v -5.1 1.6 -1.9
v -5.1 1.7 -1.9
v -5 0.7 -1.9
v -5 0.9 -1.9
v -5 1.1 -1.9
v -5 1.2 -1.9
v -5 1.3 -1.9
v -5 1.6 -1.9
v -5 1.7 -1.9
v -4.9 0.7 -1.9
v -4.9 0.9 -1.9
v -4.9 1.1 -1.9
v -4.9 1.6 -1.9
v -4.9 1.7 -1.9
v -4.8 0.9 -1.9
v -4.8 1 -1.9
v -4.8 1.1 -1.9
v -4.8 1.2 -1.9
v -4.8 1.3 -1.9
v -4.8 1.6 -1.9
v -4.8 1.7 -1.9
v -4.7 1 -1.9
v -4.7 1.1 -1.9
v -4.7 1.2 -1.9
v -4.7 1.3 -1.9
v -4.7 1.6 -1.9
v -4.6 1.1 -1.9
v -4.6 1.6 -1.9
v -5.2 1.3 -2
v -5.2 1.6 -2
v -5.1 1.1 -2
v -5.1 1.2 -2
v -5.1 1.3 -2
v -5.1 1.6 -2
v -5 0.9 -2
v -5 1 -2
v -5 1.1 -2
v -5 1.2 -2
v -5 1.6 -2
v -5 1.7 -2
v -4.9 0.9 -2
v -4.9 1 -2
v -4.9 1.1 -2
v -4.9 1.2 -2
v -4.9 1.3 -2
v -4.9 1.6 -2
v -4.9 1.7 -2
v -4.8 1.1 -2
v -4.8 1.3 -2
v -4.8 1.6 -2
v -4.7 1.3 -2
v -4.7 1.6 -2
v -5.1 1.3 -2.1
v -5.1 1.6 -2.1
v -5 1 -2.1
v -5 1.1 -2.1
v -5 1.3 -2.1
v -5 1.6 -2.1
v -4.9 1 -2.1
v -4.9 1.1 -2.1
v -4.9 1.3 -2.1
v -4.9 1.6 -2.1
v -4.8 1.3 -2.1
v -4.8 1.6 -2.1
v -5 1.1 -2.2
v -5 1.6 -2.2
v -4.9 1.1 -2.2
v -4.9 1.6 -2.2
v -5 0.7 -1.8
v -4.9 0.7 -1.8
v -5 0.7 -1.9
v -4.9 0.7 -1.9
v -5 0.9 -1.7
v -4.9 0.9 -1.7
v -5.1 0.9 -1.8
v -5 0.9 -1.8
v -4.9 0.9 -1.8
v -4.8 0.9 -1.8
v -5.1 0.9 -1.9
v -5 0.9 -1.9
v -4.9 0.9 -1.9
v -4.8 0.9 -1.9
v -5 0.9 -2
v -4.9 0.9 -2
v -5 1 -1.6
v -4.9 1 -1.6
v -5 1 -1.7
v -4.9 1 -1.7
v -5.2 1 -1.8
v -5.1 1 -1.8
v -4.8 1 -1.8
v -4.7 1 -1.8
v -5.2 1 -1.9
v -5.1 1 -1.9
v -4.8 1 -1.9
v -4.7 1 -1.9
v -5 1 -2
v -4.9 1 -2
v -5 1 -2.1
v -4.9 1 -2.1
v -5 1.1 -1.5
v -4.9 1.1 -1.5
v -5 1.1 -1.6
v -4.9 1.1 -1.6
v -5.1 1.1 -1.7
v -5 1.1 -1.7
v -4.9 1.1 -1.7
v -4.8 1.1 -1.7
v -5.3 1.1 -1.8
v -5.2 1.1 -1.8
v -5.1 1.1 -1.8
v -5 1.1 -1.8
v -4.9 1.1 -1.8
v -4.8 1.1 -1.8
v -4.7 1.1 -1.8
v -4.6 1.1 -1.8
v -5.3 1.1 -1.9
v -5.2 1.1 -1.9
v -5.1 1.1 -1.9
v -5 1.1 -1.9
v -4.9 1.1 -1.9
v -4.8 1.1 -1.9
v -4.7 1.1 -1.9
v -4.6 1.1 -1.9
v -5.1 1.1 -2
v -5 1.1 -2
v -4.9 1.1 -2
v -4.8 1.1 -2
v -5 1.1 -2.1
v -4.9 1.1 -2.1
v -5 1.1 -2.2
v -4.9 1.1 -2.2
v -5.1 1.3 -1.6
v -5 1.3 -1.6
v -4.9 1.3 -1.6
v -4.8 1.3 -1.6
v -5.2 1.3 -1.7
v -5.1 1.3 -1.7
v -5 1.3 -1.7
v -4.9 1.3 -1.7
v -4.8 1.3 -1.7
v -4.7 1.3 -1.7
v -5.2 1.3 -1.8
v -5.1 1.3 -1.8
v -4.8 1.3 -1.8
v -4.7 1.3 -1.8
v -5.2 1.3 -1.9
v -5 1.3 -1.9
v -4.8 1.3 -1.9
v -4.7 1.3 -1.9
v -5.2 1.3 -2
v -5.1 1.3 -2
v -4.9 1.3 -2
v -4.8 1.3 -2
v -4.7 1.3 -2
v -5.1 1.3 -2.1
v -5 1.3 -2.1
v -4.9 1.3 -2.1
v -4.8 1.3 -2.1
v -5.1 1.2 -1.9
v -5 1.2 -1.9
v -5.1 1.2 -2
v -5 1.2 -2
v -5 1.6 -1.5
v -4.9 1.6 -1.5
v -5.1 1.6 -1.6
v -5 1.6 -1.6
v -4.9 1.6 -1.6
v -4.8 1.6 -1.6
v -5.2 1.6 -1.7
v -5.1 1.6 -1.7
v -5 1.6 -1.7
v -4.9 1.6 -1.7
v -4.8 1.6 -1.7
v -4.7 1.6 -1.7
v -5.3 1.6 -1.8
v -5.2 1.6 -1.8
v -5.1 1.6 -1.8
v -5 1.6 -1.8
v -4.9 1.6 -1.8
v -4.8 1.6 -1.8
v -4.7 1.6 -1.8
v -4.6 1.6 -1.8
v -5.3 1.6 -1.9
v -5.2 1.6 -1.9
v -5.1 1.6 -1.9
v -5 1.6 -1.9
v -4.9 1.6 -1.9
v -4.8 1.6 -1.9
v -4.7 1.6 -1.9
v -4.6 1.6 -1.9
v -5.2 1.6 -2
v -5.1 1.6 -2
v -5 1.6 -2
v -4.9 1.6 -2
v -4.8 1.6 -2
v -4.7 1.6 -2
v -5.1 1.6 -2.1
v -5 1.6 -2.1
v -4.9 1.6 -2.1
v -4.8 1.6 -2.1
v -5 1.6 -2.2
v -4.9 1.6 -2.2
v -5 1.7 -1.7
v -4.9 1.7 -1.7
v -5.1 1.7 -1.8
v -5 1.7 -1.8
v -4.9 1.7 -1.8
v -4.8 1.7 -1.8
v -5.1 1.7 -1.9
v -5 1.7 -1.9
v -4.9 1.7 -1.9
v -4.8 1.7 -1.9
v -5 1.7 -2
v -4.9 1.7 -2

# faces
f 3/2/1 2/2/1 1/2/1
f 4/2/1 2/2/1 3/2/1
f 7/2/1 6/2/1 5/2/1
f 8/2/1 6/2/1 7/2/1
f 13/1/1 10/1/1 9/1/1
f 14/1/1 10/1/1 13/1/1
f 15/1/1 12/1/1 11/1/1
f 16/1/1 12/1/1 15/1/1
f 19/2/1 18/2/1 17/2/1
f 20/2/1 18/2/1 19/2/1
f 25/1/1 22/1/1 21/1/1
f 26/1/1 24/1/1 23/1/1
f 27/1/1 24/1/1 26/1/1
f 29/1/1 25/1/1 21/1/1
f 30/1/1 25/1/1 29/1/1
f 33/1/1 29/1/1 28/1/1
f 34/1/1 29/1/1 33/1/1
f 37/1/1 32/1/1 31/1/1
f 38/1/1 32/1/1 37/1/1
f 39/2/1 36/2/1 35/2/1
f 40/2/1 36/2/1 39/2/1
f 44/2/1 42/2/1 41/2/1
f 45/2/1 42/2/1 44/2/1
f 48/2/1 44/2/1 43/2/1
f 49/2/1 46/2/1 45/2/1
f 52/2/1 48/2/1 47/2/1
f 53/2/1 44/2/1 48/2/1
f 53/2/1 48/2/1 52/2/1
f 54/2/1 44/2/1 53/2/1
f 55/2/1 50/2/1 49/2/1
f 55/2/1 49/2/1 45/2/1
f 56/2/1 50/2/1 55/2/1
f 57/2/1 50/2/1 56/2/1
f 59/2/1 52/2/1 51/2/1
f 59/2/1 53/2/1 52/2/1
f 60/2/1 53/2/1 59/2/1
f 62/2/1 58/2/1 57/2/1
f 62/2/1 57/2/1 56/2/1
f 63/2/1 58/2/1 62/2/1
f 64/1/1 60/1/1 59/1/1
f 64/2/1 59/2/1 51/2/1
f 65/1/1 60/1/1 64/1/1
f 66/1/1 63/1/1 62/1/1
f 66/1/1 62/1/1 61/1/1
f 67/2/1 58/2/1 63/2/1
f 67/1/1 63/1/1 66/1/1
f 68/2/1 64/2/1 51/2/1
f 69/2/1 64/2/1 68/2/1
f 74/2/1 58/2/1 67/2/1
f 75/2/1 58/2/1 74/2/1
f 76/2/1 71/2/1 70/2/1
f 77/2/1 71/2/1 76/2/1
f 78/2/1 73/2/1 72/2/1
f 79/2/1 73/2/1 78/2/1
f 80/2/2 81/2/2 83/2/2
f 83/2/2 81/2/2 84/2/2
f 82/2/2 83/2/2 87/2/2
f 84/2/2 85/2/2 88/2/2
f 86/2/2 87/2/2 91/2/2
f 87/2/2 83/2/2 92/2/2
f 91/2/2 87/2/2 92/2/2
f 92/2/2 83/2/2 93/2/2
f 88/2/2 89/2/2 94/2/2
f 84/2/2 88/2/2 94/2/2
f 94/2/2 89/2/2 95/2/2
f 95/2/2 89/2/2 96/2/2
f 90/2/2 91/2/2 98/2/2
f 91/2/2 92/2/2 98/2/2
f 98/2/2 92/2/2 99/2/2
f 96/2/2 97/2/2 100/2/2
f 95/2/2 96/2/2 100/2/2
f 100/2/2 97/2/2 101/2/2
f 98/1/2 99/1/2 102/1/2
f 90/2/2 98/2/2 102/2/2
f 102/1/2 99/1/2 103/1/2
f 100/1/2 101/1/2 104/1/2
f 101/2/2 97/2/2 105/2/2
f 104/1/2 101/1/2 105/1/2
f 90/2/2 102/2/2 106/2/2
f 106/2/2 102/2/2 107/2/2
f 105/2/2 97/2/2 112/2/2
f 112/2/2 97/2/2 113/2/2
f 108/2/2 109/2/2 114/2/2
f 114/2/2 109/2/2 115/2/2
f 110/2/2 111/2/2 116/2/2
f 116/2/2 111/2/2 117/2/2
f 118/2/2 119/2/2 120/2/2
f 120/2/2 119/2/2 121/2/2
f 122/1/2 123/1/2 126/1/2
f 124/1/2 125/1/2 127/1/2
f 122/1/2 126/1/2 129/1/2
f 129/1/2 126/1/2 130/1/2
f 127/1/2 125/1/2 131/1/2
f 131/1/2 125/1/2 132/1/2
f 128/1/2 129/1/2 134/1/2
f 134/1/2 129/1/2 135/1/2
f 132/1/2 133/1/2 138/1/2
f 138/1/2 133/1/2 139/1/2
f 136/2/2 137/2/2 140/2/2
f 140/2/2 137/2/2 141/2/2
f 142/2/2 143/2/2 144/2/2
f 144/2/2 143/2/2 145/2/2
f 146/1/2 147/1/2 150/1/2
f 150/1/2 147/1/2 151/1/2
f 148/1/2 149/1/2 152/1/2
f 152/1/2 149/1/2 153/1/2
f 154/2/2 155/2/2 156/2/2
f 156/2/2 155/2/2 157/2/2
f 160/2/3 159/2/3 158/2/3
f 161/2/3 159/2/3 160/2/3
f 166/1/3 163/1/3 162/1/3
f 167/1/3 163/1/3 166/1/3
f 168/2/3 165/2/3 164/2/3
f 169/2/3 165/2/3 168/2/3
f 172/1/3 171/1/3 170/1/3
f 173/1/3 171/1/3 172/1/3
f 177/1/3 175/1/3 174/1/3
f 178/1/3 175/1/3 177/1/3
f 181/1/3 177/1/3 176/1/3
f 182/1/3 177/1/3 181/1/3
f 183/1/3 177/1/3 182/1/3
f 186/2/3 180/2/3 179/2/3
f 187/2/3 180/2/3 186/2/3
f 191/2/3 185/2/3 184/2/3
f 192/2/3 185/2/3 191/2/3
f 193/1/3 190/1/3 189/1/3
f 193/1/3 189/1/3 188/1/3
f 194/1/3 190/1/3 193/1/3
f 196/1/3 195/1/3 194/1/3
f 197/1/3 195/1/3 196/1/3
f 201/2/3 199/2/3 198/2/3
f 202/2/3 199/2/3 201/2/3
f 203/2/3 199/2/3 202/2/3
f 204/2/3 199/2/3 203/2/3
f 206/2/3 201/2/3 200/2/3
f 206/2/3 202/2/3 201/2/3
f 207/2/3 202/2/3 206/2/3
f 208/1/3 203/1/3 202/1/3
f 208/2/3 202/2/3 207/2/3
f 209/1/3 203/1/3 208/1/3
f 213/2/3 207/2/3 206/2/3
f 213/2/3 206/2/3 205/2/3
f 214/2/3 207/2/3 213/2/3
f 215/2/3 211/2/3 210/2/3
f 216/2/3 211/2/3 215/2/3
f 217/2/3 213/2/3 212/2/3
f 218/2/3 213/2/3 217/2/3
f 222/2/3 219/2/3 218/2/3
f 223/2/3 219/2/3 222/2/3
f 224/2/3 219/2/3 223/2/3
f 227/2/3 221/2/3 220/2/3
f 228/2/3 221/2/3 227/2/3
f 229/2/3 224/2/3 223/2/3
f 229/2/3 225/2/3 224/2/3
f 230/2/3 225/2/3 229/2/3
f 231/1/3 226/1/3 225/1/3
f 231/2/3 225/2/3 230/2/3
f 232/1/3 226/1/3 231/1/3
f 234/2/3 233/2/3 232/2/3
f 234/2/3 232/2/3 231/2/3
f 234/2/3 231/2/3 230/2/3
f 235/2/3 233/2/3 234/2/3
f 236/2/4 237/2/4 239/2/4
f 239/2/4 237/2/4 240/2/4
f 240/2/4 237/2/4 241/2/4
f 241/2/4 237/2/4 242/2/4
f 238/2/4 239/2/4 244/2/4
f 239/2/4 240/2/4 244/2/4
f 244/2/4 240/2/4 245/2/4
f 240/1/4 241/1/4 246/1/4
f 245/2/4 240/2/4 246/2/4
f 244/2/4 245/2/4 250/2/4
f 243/2/4 244/2/4 250/2/4
f 250/2/4 245/2/4 251/2/4
f 246/1/4 241/1/4 252/1/4
f 252/1/4 241/1/4 253/1/4
f 247/2/4 248/2/4 254/2/4
f 254/2/4 248/2/4 255/2/4
f 249/2/4 250/2/4 256/2/4
f 256/2/4 250/2/4 257/2/4
f 257/2/4 258/2/4 261/2/4
f 261/2/4 258/2/4 262/2/4
f 262/2/4 258/2/4 263/2/4
f 259/2/4 260/2/4 266/2/4
f 266/2/4 260/2/4 267/2/4
f 262/2/4 263/2/4 268/2/4
f 263/2/4 264/2/4 268/2/4
f 268/2/4 264/2/4 269/2/4
f 264/1/4 265/1/4 270/1/4
f 269/2/4 264/2/4 270/2/4
f 270/1/4 265/1/4 271/1/4
f 271/2/4 272/2/4 273/2/4
f 270/2/4 271/2/4 273/2/4
f 269/2/4 270/2/4 273/2/4
f 273/2/4 272/2/4 274/2/4
f 275/1/4 276/1/4 279/1/4
f 279/1/4 276/1/4 280/1/4
f 277/1/4 278/1/4 283/1/4
f 283/1/4 278/1/4 284/1/4
f 281/2/4 282/2/4 287/2/4
f 287/2/4 282/2/4 288/2/4
f 285/2/4 286/2/4 292/2/4
f 292/2/4 286/2/4 293/2/4
f 290/1/4 291/1/4 294/1/4
f 289/1/4 290/1/4 294/1/4
f 294/1/4 291/1/4 295/1/4
f 295/1/4 296/1/4 297/1/4
f 297/1/4 296/1/4 298/1/4
f 299/1/4 300/1/4 303/1/4
f 303/1/4 300/1/4 304/1/4
f 301/2/4 302/2/4 305/2/4
f 305/2/4 302/2/4 306/2/4
f 307/1/4 308/1/4 309/1/4
f 309/1/4 308/1/4 310/1/4
f 311/2/4 312/2/4 313/2/4
f 313/2/4 312/2/4 314/2/4
f 317/2/5 316/2/5 315/2/5
f 318/2/5 316/2/5 317/2/5
f 322/2/5 320/2/5 319/2/5
f 323/2/5 320/2/5 322/2/5
f 325/2/5 322/2/5 321/2/5
f 326/2/5 322/2/5 325/2/5
f 327/2/5 324/2/5 323/2/5
f 328/2/5 324/2/5 327/2/5
f 329/2/5 327/2/5 326/2/5
f 330/2/5 327/2/5 329/2/5
f 333/2/5 332/2/5 331/2/5
f 334/2/5 332/2/5 333/2/5
f 339/2/5 336/2/5 335/2/5
f 340/2/5 336/2/5 339/2/5
f 341/2/5 338/2/5 337/2/5
f 342/2/5 338/2/5 341/2/5
f 345/2/5 344/2/5 343/2/5
f 346/2/5 344/2/5 345/2/5
f 349/2/5 348/2/5 347/2/5
f 350/2/5 348/2/5 349/2/5
f 357/1/5 352/1/5 351/1/5
f 358/1/5 352/1/5 357/1/5
f 359/1/5 354/1/5 353/1/5
f 360/1/5 354/1/5 359/1/5
f 363/2/5 356/2/5 355/2/5
f 364/2/5 356/2/5 363/2/5
f 369/2/5 362/2/5 361/2/5
f 370/2/5 362/2/5 369/2/5
f 371/1/5 366/1/5 365/1/5
f 372/1/5 366/1/5 371/1/5
f 373/1/5 368/1/5 367/1/5
f 374/1/5 368/1/5 373/1/5
f 377/2/5 376/2/5 375/2/5
f 378/2/5 376/2/5 377/2/5
f 384/1/5 380/1/5 379/1/5
f 385/1/5 380/1/5 384/1/5
f 386/1/5 382/1/5 381/1/5
f 387/1/5 382/1/5 386/1/5
f 389/1/5 384/1/5 383/1/5
f 390/1/5 384/1/5 389/1/5
f 391/1/5 388/1/5 387/1/5
f 392/1/5 388/1/5 391/1/5
f 397/1/5 394/1/5 393/1/5
f 398/1/5 394/1/5 397/1/5
f 400/1/5 396/1/5 395/1/5
f 401/1/5 396/1/5 400/1/5
f 402/1/5 394/1/5 398/1/5
f 403/1/5 394/1/5 402/1/5
f 404/1/5 400/1/5 399/1/5
f 405/1/5 400/1/5 404/1/5
f 406/1/6 407/1/6 408/1/6
f 408/1/6 407/1/6 409/1/6
f 410/2/6 411/2/6 413/2/6
f 413/2/6 411/2/6 414/2/6
f 412/1/6 413/1/6 417/1/6
f 413/2/6 414/2/6 418/2/6
f 417/1/6 413/1/6 418/1/6
f 414/1/6 415/1/6 419/1/6
f 418/2/6 414/2/6 419/2/6
f 419/1/6 415/1/6 420/1/6
f 417/1/6 418/1/6 423/1/6
f 416/1/6 417/1/6 423/1/6
f 423/1/6 418/1/6 424/1/6
f 424/1/6 418/1/6 425/1/6
f 419/1/6 420/1/6 426/1/6
f 420/1/6 421/1/6 426/1/6
f 426/1/6 421/1/6 427/1/6
f 427/1/6 421/1/6 428/1/6
f 423/2/6 424/2/6 430/2/6
f 422/2/6 423/2/6 430/2/6
f 430/2/6 424/2/6 431/2/6
f 431/2/6 424/2/6 432/2/6
f 428/2/6 429/2/6 435/2/6
f 427/2/6 428/2/6 435/2/6
f 435/2/6 429/2/6 436/2/6
f 436/2/6 429/2/6 437/2/6
f 432/1/6 433/1/6 438/1/6
f 431/1/6 432/1/6 438/1/6
f 438/1/6 433/1/6 439/1/6
f 439/1/6 433/1/6 440/1/6
f 435/1/6 436/1/6 441/1/6
f 434/1/6 435/1/6 441/1/6
f 441/1/6 436/1/6 442/1/6
f 442/1/6 436/1/6 443/1/6
f 439/1/6 440/1/6 444/1/6
f 440/2/6 441/2/6 445/2/6
f 444/1/6 440/1/6 445/1/6
f 441/1/6 442/1/6 446/1/6
f 445/2/6 441/2/6 446/2/6
f 446/1/6 442/1/6 447/1/6
f 445/2/6 446/2/6 448/2/6
f 448/2/6 446/2/6 449/2/6
f 450/2/6 451/2/6 453/2/6
f 453/2/6 451/2/6 454/2/6
f 452/2/6 453/2/6 456/2/6
f 454/2/6 455/2/6 456/2/6
f 453/2/6 454/2/6 456/2/6
f 456/2/6 455/2/6 457/2/6
f 457/2/6 455/2/6 458/2/6
f 458/2/6 455/2/6 459/2/6
f 457/2/6 458/2/6 460/2/6
f 460/2/6 458/2/6 461/2/6
