# MagicaVoxel @ Ephtracy

# group
o 

# material
mtllib Walking Zombie-4.mtl
usemtl palette

# normals
vn -1 0 0
vn 1 0 0
vn 0 0 1
vn 0 0 -1
vn 0 -1 0
vn 0 1 0

# texcoords
vt 0.146484 0.5
vt 0.306641 0.5
vt 0.431641 0.5
vt 0.583984 0.5
vt 0.595703 0.5
vt 0.658203 0.5
vt 0.837891 0.5
vt 0.841797 0.5
vt 0.873047 0.5
vt 0.923828 0.5
vt 0.990234 0.5

# verts
v -0.6 0.6 0.8
v -0.6 0.6 0.6
v -0.6 1 0.7
v -0.6 1 0.6
v -0.6 1.5 0.7
v -0.6 1.5 0.6
v -0.6 1.7 0.8
v -0.6 1.7 0.6
v -0.6 2 0.8
v -0.6 2 0.6
v -0.6 3 0.8
v -0.6 3 0.6
v -0.5 0.1 0.8
v -0.5 0.1 0.2
v -0.5 0.1 0.1
v -0.5 0.2 0.7
v -0.5 0.2 0.6
v -0.5 0.3 0.8
v -0.5 0.3 0.7
v -0.5 0.3 0.6
v -0.5 0.3 0.2
v -0.5 0.3 0.1
v -0.5 0.5 0.9
v -0.5 0.5 0.8
v -0.5 0.5 0.6
v -0.5 0.5 0.5
v -0.5 0.6 0.8
v -0.5 0.6 0.6
v -0.5 1 0.6
v -0.5 1.5 0.6
v -0.5 1.6 0.6
v -0.5 1.6 0.5
v -0.5 1.7 0.8
v -0.5 1.7 0.6
v -0.5 1.8 0.9
v -0.5 1.8 0.8
v -0.5 1.8 0.6
v -0.5 1.8 0.5
v -0.5 1.9 0.9
v -0.5 1.9 0.8
v -0.5 1.9 0.6
v -0.5 1.9 0.5
v -0.5 2 0.9
v -0.5 2 0.8
v -0.5 2 0.6
v -0.5 2 0.5
v -0.5 3 0.8
v -0.5 3 0.6
v -0.5 3.1 0.9
v -0.5 3.1 0.8
v -0.5 3.1 0.6
v -0.5 3.1 0.5
v -0.4 0.1 0.9
v -0.4 0.1 0.8
v -0.4 0.1 0.1
v -0.4 0.1 0
v -0.4 0.3 0.9
v -0.4 0.3 0.8
v -0.4 0.3 0.7
v -0.4 0.3 0.6
v -0.4 0.3 0.4
v -0.4 0.3 0.3
v -0.4 0.3 0.2
v -0.4 0.3 0.1
v -0.4 0.3 0
v -0.4 0.4 0.6
v -0.4 0.4 0.4
v -0.4 0.4 0.3
v -0.4 0.4 0.1
v -0.4 0.5 0.8
v -0.4 0.5 0.6
v -0.4 0.6 1
v -0.4 0.6 0.9
v -0.4 0.6 0.5
v -0.4 0.6 0.4
v -0.4 0.8 0.5
v -0.4 0.8 0.4
v -0.4 1.4 0.5
v -0.4 1.4 0.4
v -0.4 1.6 0.5
v -0.4 1.7 1
v -0.4 1.7 0.9
v -0.4 1.7 0.5
v -0.4 1.7 0.4
v -0.4 1.8 0.8
v -0.4 1.8 0.7
v -0.4 1.8 0.6
v -0.4 1.9 0.8
v -0.4 1.9 0.7
v -0.4 1.9 0.6
v -0.4 2 1
v -0.4 2 0.9
v -0.4 2 0.5
v -0.4 2 0.4
v -0.4 2.2 0.5
v -0.4 2.2 0.4
v -0.4 3 1
v -0.4 3 0.9
v -0.4 3 0.5
v -0.4 3 0.4
v -0.3 3 1
v -0.3 3 0.9
v -0.3 3.1 1
v -0.3 3.1 0.9
v -0.3 3.1 0.8
v -0.3 3.1 0.6
v -0.3 3.2 0.9
v -0.3 3.2 0.8
v -0.3 3.2 0.6
v -0.2 0.1 0.5
v -0.2 0.1 0.3
v -0.2 0.2 0.5
v -0.2 0.2 0.3
v -0.3 0.1 0.5
v -0.3 0.1 0.3
v -0.3 0.2 0.5
v -0.3 0.2 0.3
v -0.2 0.1 0.9
v -0.2 0.1 0.8
v -0.2 0.1 0.1
v -0.2 0.1 0
v -0.2 0.3 0.9
v -0.2 0.3 0.8
v -0.2 0.3 0.6
v -0.2 0.3 0.1
v -0.2 0.3 0
v -0.2 0.4 0.8
v -0.2 0.4 0.6
v -0.2 0.4 0.1
v -0.2 0.5 0.8
v -0.2 0.5 0.6
v -0.2 0.6 1
v -0.2 0.6 0.9
v -0.2 0.6 0.5
v -0.2 0.6 0.4
v -0.2 1.6 0.5
v -0.2 1.6 0.4
v -0.2 1.7 1
v -0.2 1.7 0.9
v -0.2 1.7 0.5
v -0.2 1.7 0.4
v -0.2 1.8 0.8
v -0.2 1.8 0.7
v -0.2 1.8 0.6
v -0.2 1.9 0.8
v -0.2 1.9 0.7
v -0.2 1.9 0.6
v -0.2 2 1
v -0.2 2 0.9
v -0.2 2 0.5
v -0.2 2 0.4
v -0.2 2.2 0.5
v -0.2 2.2 0.4
v -0.2 2.8 1
v -0.2 2.8 0.9
v -0.2 3 1
v -0.2 3 0.9
v -0.2 3 0.5
v -0.2 3 0.4
v -0.2 3.1 1
v -0.2 3.1 0.9
v -0.2 3.1 0.8
v -0.2 3.1 0.6
v -0.2 3.2 0.9
v -0.2 3.2 0.8
v -0.2 3.2 0.6
v -0.1 0.1 0.8
v -0.1 0.1 0.1
v -0.1 0.3 0.6
v -0.1 0.3 0.1
v -0.1 0.4 0.8
v -0.1 0.4 0.6
v -0.1 0.5 0.9
v -0.1 0.5 0.5
v -0.1 0.6 0.8
v -0.1 0.6 0.6
v -0.1 1.7 0.8
v -0.1 1.7 0.6
v -0.1 1.8 0.9
v -0.1 1.8 0.5
v -0.1 1.9 0.9
v -0.1 1.9 0.8
v -0.1 1.9 0.6
v -0.1 1.9 0.5
v -0.1 2 0.9
v -0.1 2 0.8
v -0.1 2 0.7
v -0.1 2 0.6
v -0.1 2.1 0.6
v -0.1 2.2 0.6
v -0.1 2.2 0.5
v -0.1 2.8 1
v -0.1 2.8 0.9
v -0.1 2.9 0.9
v -0.1 2.9 0.8
v -0.1 3 1
v -0.1 3 0.9
v -0.1 3 0.8
v -0.1 3 0.6
v -0.1 3.1 0.8
v -0.1 3.1 0.5
v -5.96046e-08 0.6 0.8
v -5.96046e-08 0.6 0.6
v -5.96046e-08 1.7 0.8
v -5.96046e-08 1.7 0.6
v -5.96046e-08 2 0.8
v -5.96046e-08 2 0.7
v -5.96046e-08 2 0.6
v -5.96046e-08 2.1 0.7
v -5.96046e-08 2.1 0.6
v -5.96046e-08 2.9 0.9
v -5.96046e-08 2.9 0.8
v -5.96046e-08 3 0.8
v -5.96046e-08 3 0.6
v -5.96046e-08 3.1 0.9
v -5.96046e-08 3.1 0.8
v -0.4 0.6 1
v -0.4 1.7 1
v -0.4 2 1
v -0.4 3 1
v -0.3 3 1
v -0.3 3.1 1
v -0.2 0.6 1
v -0.2 1.7 1
v -0.2 2 1
v -0.2 2.8 1
v -0.2 3 1
v -0.2 3.1 1
v -0.1 2.8 1
v -0.1 3 1
v -0.5 0.5 0.9
v -0.5 1.8 0.9
v -0.5 1.9 0.9
v -0.5 2 0.9
v -0.5 3.1 0.9
v -0.4 0.1 0.9
v -0.4 0.3 0.9
v -0.4 0.6 0.9
v -0.4 1.7 0.9
v -0.4 2 0.9
v -0.4 3 0.9
v -0.3 3 0.9
v -0.3 3.1 0.9
v -0.3 3.2 0.9
v -0.2 0.1 0.9
v -0.2 0.3 0.9
v -0.2 0.6 0.9
v -0.2 1.7 0.9
v -0.2 2 0.9
v -0.2 2.8 0.9
v -0.2 3 0.9
v -0.2 3.1 0.9
v -0.2 3.2 0.9
v -0.1 0.5 0.9
v -0.1 1.8 0.9
v -0.1 1.9 0.9
v -0.1 2 0.9
v -0.1 2.8 0.9
v -0.1 2.9 0.9
v -0.1 3 0.9
v -0.1 3.1 0.9
v -5.96046e-08 2.9 0.9
v -5.96046e-08 3.1 0.9
v -0.6 0.6 0.8
v -0.6 1.7 0.8
v -0.6 2 0.8
v -0.6 3 0.8
v -0.5 0.1 0.8
v -0.5 0.3 0.8
v -0.5 0.6 0.8
v -0.5 1.7 0.8
v -0.5 2 0.8
v -0.5 3 0.8
v -0.4 0.1 0.8
v -0.4 0.3 0.8
v -0.4 0.5 0.8
v -0.4 1.8 0.8
v -0.4 1.9 0.8
v -0.3 1.8 0.8
v -0.3 1.9 0.8
v -0.2 0.1 0.8
v -0.2 0.3 0.8
v -0.2 0.4 0.8
v -0.2 0.5 0.8
v -0.2 1.8 0.8
v -0.2 1.9 0.8
v -0.1 0.1 0.8
v -0.1 0.4 0.8
v -0.1 0.6 0.8
v -0.1 1.7 0.8
v -0.1 2 0.8
v -0.1 2.9 0.8
v -5.96046e-08 0.6 0.8
v -5.96046e-08 1.7 0.8
v -5.96046e-08 2 0.8
v -5.96046e-08 2.9 0.8
v -0.3 0.1 0.3
v -0.3 0.2 0.3
v -0.2 0.1 0.3
v -0.2 0.2 0.3
v -0.1 3 0.8
v -0.1 3.1 0.8
v -5.96046e-08 3 0.8
v -5.96046e-08 3.1 0.8
v -0.6 0.6 0.6
v -0.6 1 0.6
v -0.6 1.5 0.6
v -0.6 1.7 0.6
v -0.6 2 0.6
v -0.6 3 0.6
v -0.5 0.6 0.6
v -0.5 1 0.6
v -0.5 1.5 0.6
v -0.5 1.6 0.6
v -0.5 1.7 0.6
v -0.5 2 0.6
v -0.5 3 0.6
v -0.4 0.4 0.6
v -0.4 0.5 0.6
v -0.4 1.8 0.6
v -0.4 1.9 0.6
v -0.3 3.1 0.6
v -0.3 3.2 0.6
v -0.2 0.3 0.6
v -0.2 0.4 0.6
v -0.2 0.5 0.6
v -0.2 1.8 0.6
v -0.2 1.9 0.6
v -0.2 3.1 0.6
v -0.2 3.2 0.6
v -0.1 0.3 0.6
v -0.1 0.4 0.6
v -0.1 0.6 0.6
v -0.1 1.7 0.6
v -0.1 2 0.6
v -0.1 2.1 0.6
v -0.1 2.2 0.6
v -0.1 3 0.6
v -5.96046e-08 0.6 0.6
v -5.96046e-08 1.7 0.6
v -5.96046e-08 2 0.6
v -5.96046e-08 2.1 0.6
v -5.96046e-08 3 0.6
v -0.5 0.5 0.5
v -0.5 1.6 0.5
v -0.5 1.8 0.5
v -0.5 1.9 0.5
v -0.5 2 0.5
v -0.5 3.1 0.5
v -0.4 0.5 0.5
v -0.4 0.6 0.5
v -0.4 0.8 0.5
v -0.4 1.4 0.5
v -0.4 1.6 0.5
v -0.4 1.7 0.5
v -0.4 1.8 0.5
v -0.4 2 0.5
v -0.4 2.2 0.5
v -0.4 3 0.5
v -0.3 0.1 0.5
v -0.3 0.2 0.5
v -0.3 0.6 0.5
v -0.2 0.1 0.5
v -0.2 0.2 0.5
v -0.2 0.6 0.5
v -0.2 1.6 0.5
v -0.2 1.7 0.5
v -0.2 1.8 0.5
v -0.2 2 0.5
v -0.2 2.2 0.5
v -0.2 3 0.5
v -0.1 0.5 0.5
v -0.1 1.8 0.5
v -0.1 1.9 0.5
v -0.1 2.2 0.5
v -0.1 3.1 0.5
v -0.4 0.6 0.4
v -0.4 0.8 0.4
v -0.4 1.4 0.4
v -0.4 1.7 0.4
v -0.4 2 0.4
v -0.4 2.2 0.4
v -0.4 3 0.4
v -0.3 0.6 0.4
v -0.3 0.8 0.4
v -0.3 1.4 0.4
v -0.3 1.6 0.4
v -0.2 0.6 0.4
v -0.2 1.6 0.4
v -0.2 1.7 0.4
v -0.2 2 0.4
v -0.2 2.2 0.4
v -0.2 3 0.4
v -0.5 0.1 0.1
v -0.5 0.3 0.1
v -0.4 0.1 0.1
v -0.4 0.3 0.1
v -0.4 0.4 0.1
v -0.2 0.1 0.1
v -0.2 0.3 0.1
v -0.2 0.4 0.1
v -0.1 0.1 0.1
v -0.1 0.3 0.1
v -0.4 0.1 0
v -0.4 0.3 0
v -0.2 0.1 0
v -0.2 0.3 0
v -0.4 0.1 0.9
v -0.2 0.1 0.9
v -0.5 0.1 0.8
v -0.4 0.1 0.8
v -0.2 0.1 0.8
v -0.1 0.1 0.8
v -0.3 0.1 0.7
v -0.2 0.1 0.7
v -0.3 0.1 0.6
v -0.2 0.1 0.6
v -0.3 0.1 0.5
v -0.2 0.1 0.5
v -0.3 0.1 0.3
v -0.2 0.1 0.3
v -0.5 0.1 0.2
v -0.4 0.1 0.2
v -0.5 0.1 0.1
v -0.4 0.1 0.1
v -0.2 0.1 0.1
v -0.1 0.1 0.1
v -0.4 0.1 0
v -0.2 0.1 0
v -0.3 0.2 0.5
v -0.2 0.2 0.5
v -0.3 0.2 0.3
v -0.2 0.2 0.3
v -0.5 0.5 0.9
v -0.1 0.5 0.9
v -0.5 0.5 0.8
v -0.4 0.5 0.8
v -0.2 0.5 0.8
v -0.5 0.5 0.6
v -0.4 0.5 0.6
v -0.2 0.5 0.6
v -0.5 0.5 0.5
v -0.4 0.5 0.5
v -0.1 0.5 0.5
v -0.4 0.6 1
v -0.2 0.6 1
v -0.4 0.6 0.9
v -0.2 0.6 0.9
v -0.6 0.6 0.8
v -0.5 0.6 0.8
v -0.1 0.6 0.8
v -5.96046e-08 0.6 0.8
v -0.6 0.6 0.6
v -0.5 0.6 0.6
v -0.1 0.6 0.6
v -5.96046e-08 0.6 0.6
v -0.4 0.6 0.5
v -0.3 0.6 0.5
v -0.2 0.6 0.5
v -0.4 0.6 0.4
v -0.3 0.6 0.4
v -0.2 0.6 0.4
v -0.5 1.9 0.9
v -0.1 1.9 0.9
v -0.5 1.9 0.8
v -0.4 1.9 0.8
v -0.3 1.9 0.8
v -0.2 1.9 0.8
v -0.1 1.9 0.8
v -0.4 1.9 0.7
v -0.2 1.9 0.7
v -0.5 1.9 0.6
v -0.4 1.9 0.6
v -0.2 1.9 0.6
v -0.1 1.9 0.6
v -0.5 1.9 0.5
v -0.1 1.9 0.5
v -0.4 2 1
v -0.2 2 1
v -0.4 2 0.9
v -0.2 2 0.9
v -0.6 2 0.8
v -0.5 2 0.8
v -0.1 2 0.8
v -5.96046e-08 2 0.8
v -0.1 2 0.7
v -5.96046e-08 2 0.7
v -0.6 2 0.6
v -0.5 2 0.6
v -0.1 2 0.6
v -5.96046e-08 2 0.6
v -0.4 2 0.5
v -0.2 2 0.5
v -0.4 2 0.4
v -0.2 2 0.4
v -0.2 2.8 1
v -0.1 2.8 1
v -0.2 2.8 0.9
v -0.1 2.8 0.9
v -0.1 2.9 0.9
v -5.96046e-08 2.9 0.9
v -0.1 2.9 0.8
v -5.96046e-08 2.9 0.8
v -0.4 0.3 0.9
v -0.2 0.3 0.9
v -0.5 0.3 0.8
v -0.4 0.3 0.8
v -0.2 0.3 0.8
v -0.5 0.3 0.7
v -0.4 0.3 0.7
v -0.5 0.3 0.6
v -0.4 0.3 0.6
v -0.2 0.3 0.6
v -0.1 0.3 0.6
v -0.4 0.3 0.4
v -0.4 0.3 0.3
v -0.5 0.3 0.2
v -0.4 0.3 0.2
v -0.5 0.3 0.1
v -0.4 0.3 0.1
v -0.2 0.3 0.1
v -0.1 0.3 0.1
v -0.4 0.3 0
v -0.2 0.3 0
v -0.2 0.4 0.8
v -0.1 0.4 0.8
v -0.4 0.4 0.6
v -0.2 0.4 0.6
v -0.1 0.4 0.6
v -0.4 0.4 0.4
v -0.3 0.4 0.4
v -0.4 0.4 0.3
v -0.3 0.4 0.3
v -0.4 0.4 0.1
v -0.2 0.4 0.1
v -0.4 1.7 1
v -0.2 1.7 1
v -0.4 1.7 0.9
v -0.2 1.7 0.9
v -0.6 1.7 0.8
v -0.5 1.7 0.8
v -0.1 1.7 0.8
v -5.96046e-08 1.7 0.8
v -0.6 1.7 0.6
v -0.5 1.7 0.6
v -0.1 1.7 0.6
v -5.96046e-08 1.7 0.6
v -0.4 1.7 0.5
v -0.2 1.7 0.5
v -0.4 1.7 0.4
v -0.2 1.7 0.4
v -0.5 1.8 0.9
v -0.1 1.8 0.9
v -0.5 1.8 0.8
v -0.4 1.8 0.8
v -0.3 1.8 0.8
v -0.2 1.8 0.8
v -0.4 1.8 0.7
v -0.2 1.8 0.7
v -0.5 1.8 0.6
v -0.4 1.8 0.6
v -0.2 1.8 0.6
v -0.5 1.8 0.5
v -0.4 1.8 0.5
v -0.2 1.8 0.5
v -0.1 1.8 0.5
v -0.4 3 1
v -0.3 3 1
v -0.2 3 1
v -0.1 3 1
v -0.4 3 0.9
v -0.3 3 0.9
v -0.2 3 0.9
v -0.1 3 0.9
v -0.6 3 0.8
v -0.5 3 0.8
v -0.1 3 0.8
v -5.96046e-08 3 0.8
v -0.6 3 0.6
v -0.5 3 0.6
v -0.1 3 0.6
v -5.96046e-08 3 0.6
v -0.4 3 0.5
v -0.2 3 0.5
v -0.4 3 0.4
v -0.2 3 0.4
v -0.3 3.1 1
v -0.2 3.1 1
v -0.5 3.1 0.9
v -0.3 3.1 0.9
v -0.2 3.1 0.9
v -0.1 3.1 0.9
v -5.96046e-08 3.1 0.9
v -0.5 3.1 0.8
v -0.3 3.1 0.8
v -0.2 3.1 0.8
v -0.1 3.1 0.8
v -5.96046e-08 3.1 0.8
v -0.5 3.1 0.6
v -0.3 3.1 0.6
v -0.2 3.1 0.6
v -0.5 3.1 0.5
v -0.1 3.1 0.5
v -0.3 3.2 0.9
v -0.2 3.2 0.9
v -0.3 3.2 0.8
v -0.2 3.2 0.8
v -0.3 3.2 0.6
v -0.2 3.2 0.6

# faces
f 3/7/1 2/7/1 1/7/1
f 4/7/1 2/7/1 3/7/1
f 5/7/1 3/7/1 1/7/1
f 5/8/1 4/8/1 3/8/1
f 6/8/1 4/8/1 5/8/1
f 7/7/1 5/7/1 1/7/1
f 7/7/1 6/7/1 5/7/1
f 8/7/1 6/7/1 7/7/1
f 11/7/1 10/7/1 9/7/1
f 12/7/1 10/7/1 11/7/1
f 16/7/1 14/7/1 13/7/1
f 17/7/1 14/7/1 16/7/1
f 18/7/1 16/7/1 13/7/1
f 19/8/1 17/8/1 16/8/1
f 19/7/1 16/7/1 18/7/1
f 20/7/1 14/7/1 17/7/1
f 20/8/1 17/8/1 19/8/1
f 21/11/1 15/11/1 14/11/1
f 21/7/1 14/7/1 20/7/1
f 22/11/1 15/11/1 21/11/1
f 27/11/1 24/11/1 23/11/1
f 27/7/1 25/7/1 24/7/1
f 28/8/1 26/8/1 25/8/1
f 28/7/1 25/7/1 27/7/1
f 29/8/1 26/8/1 28/8/1
f 30/8/1 26/8/1 29/8/1
f 31/8/1 26/8/1 30/8/1
f 32/8/1 26/8/1 31/8/1
f 33/11/1 27/11/1 23/11/1
f 34/11/1 32/11/1 31/11/1
f 35/11/1 33/11/1 23/11/1
f 36/7/1 34/7/1 33/7/1
f 36/11/1 33/11/1 35/11/1
f 37/11/1 32/11/1 34/11/1
f 37/7/1 34/7/1 36/7/1
f 38/11/1 32/11/1 37/11/1
f 43/9/1 40/9/1 39/9/1
f 44/7/1 41/7/1 40/7/1
f 44/9/1 40/9/1 43/9/1
f 45/8/1 42/8/1 41/8/1
f 45/7/1 41/7/1 44/7/1
f 46/8/1 42/8/1 45/8/1
f 47/11/1 44/11/1 43/11/1
f 48/11/1 46/11/1 45/11/1
f 49/11/1 47/11/1 43/11/1
f 50/7/1 48/7/1 47/7/1
f 50/11/1 47/11/1 49/11/1
f 51/11/1 46/11/1 48/11/1
f 51/7/1 48/7/1 50/7/1
f 52/11/1 46/11/1 51/11/1
f 57/11/1 54/11/1 53/11/1
f 58/11/1 54/11/1 57/11/1
f 64/11/1 56/11/1 55/11/1
f 65/11/1 56/11/1 64/11/1
f 66/11/1 59/11/1 58/11/1
f 66/11/1 60/11/1 59/11/1
f 66/11/1 61/11/1 60/11/1
f 67/8/1 62/8/1 61/8/1
f 67/11/1 61/11/1 66/11/1
f 68/11/1 63/11/1 62/11/1
f 68/8/1 62/8/1 67/8/1
f 68/11/1 64/11/1 63/11/1
f 69/11/1 64/11/1 68/11/1
f 70/11/1 66/11/1 58/11/1
f 71/11/1 66/11/1 70/11/1
f 76/8/1 75/8/1 74/8/1
f 77/8/1 75/8/1 76/8/1
f 78/11/1 77/11/1 76/11/1
f 79/11/1 77/11/1 78/11/1
f 80/8/1 79/8/1 78/8/1
f 81/11/1 73/11/1 72/11/1
f 82/11/1 73/11/1 81/11/1
f 83/8/1 79/8/1 80/8/1
f 84/8/1 79/8/1 83/8/1
f 88/7/1 86/7/1 85/7/1
f 89/8/1 87/8/1 86/8/1
f 89/7/1 86/7/1 88/7/1
f 90/8/1 87/8/1 89/8/1
f 95/8/1 94/8/1 93/8/1
f 96/8/1 94/8/1 95/8/1
f 97/11/1 92/11/1 91/11/1
f 98/11/1 92/11/1 97/11/1
f 99/11/1 96/11/1 95/11/1
f 100/11/1 96/11/1 99/11/1
f 103/4/1 102/4/1 101/4/1
f 104/4/1 102/4/1 103/4/1
f 107/11/1 105/11/1 104/11/1
f 108/7/1 106/7/1 105/7/1
f 108/11/1 105/11/1 107/11/1
f 109/7/1 106/7/1 108/7/1
f 112/11/1 111/11/1 110/11/1
f 113/11/1 111/11/1 112/11/1
f 114/10/2 115/10/2 116/10/2
f 116/10/2 115/10/2 117/10/2
f 118/11/2 119/11/2 122/11/2
f 122/11/2 119/11/2 123/11/2
f 120/11/2 121/11/2 125/11/2
f 125/11/2 121/11/2 126/11/2
f 124/11/2 125/11/2 128/11/2
f 128/11/2 125/11/2 129/11/2
f 127/11/2 128/11/2 130/11/2
f 130/11/2 128/11/2 131/11/2
f 134/11/2 135/11/2 136/11/2
f 136/11/2 135/11/2 137/11/2
f 132/11/2 133/11/2 138/11/2
f 138/11/2 133/11/2 139/11/2
f 136/8/2 137/8/2 140/8/2
f 140/8/2 137/8/2 141/8/2
f 142/11/2 143/11/2 145/11/2
f 143/8/2 144/8/2 146/8/2
f 145/11/2 143/11/2 146/11/2
f 146/8/2 144/8/2 147/8/2
f 150/8/2 151/8/2 152/8/2
f 152/8/2 151/8/2 153/8/2
f 148/11/2 149/11/2 154/11/2
f 154/11/2 149/11/2 155/11/2
f 152/11/2 153/11/2 158/11/2
f 158/11/2 153/11/2 159/11/2
f 156/4/2 157/4/2 160/4/2
f 160/4/2 157/4/2 161/4/2
f 161/11/2 162/11/2 164/11/2
f 162/7/2 163/7/2 165/7/2
f 164/11/2 162/11/2 165/11/2
f 165/7/2 163/7/2 166/7/2
f 167/11/2 168/11/2 169/11/2
f 169/11/2 168/11/2 170/11/2
f 167/11/2 169/11/2 171/11/2
f 171/11/2 169/11/2 172/11/2
f 173/11/2 174/11/2 175/11/2
f 175/11/2 174/11/2 176/11/2
f 173/11/2 175/11/2 177/11/2
f 176/11/2 174/11/2 178/11/2
f 173/11/2 177/11/2 179/11/2
f 177/11/2 178/11/2 179/11/2
f 178/11/2 174/11/2 180/11/2
f 179/11/2 178/11/2 180/11/2
f 181/9/2 182/9/2 185/9/2
f 182/1/2 183/1/2 186/1/2
f 185/9/2 182/9/2 186/9/2
f 186/1/2 183/1/2 187/1/2
f 183/8/2 184/8/2 188/8/2
f 187/1/2 183/1/2 188/1/2
f 188/8/2 184/8/2 189/8/2
f 189/8/2 184/8/2 190/8/2
f 190/8/2 184/8/2 191/8/2
f 185/11/2 186/11/2 193/11/2
f 193/11/2 186/11/2 194/11/2
f 192/4/2 193/4/2 194/4/2
f 194/11/2 186/11/2 195/11/2
f 192/4/2 194/4/2 196/4/2
f 196/4/2 194/4/2 197/4/2
f 190/11/2 191/11/2 199/11/2
f 198/11/2 199/11/2 200/11/2
f 199/11/2 191/11/2 201/11/2
f 200/11/2 199/11/2 201/11/2
f 202/11/2 203/11/2 204/11/2
f 204/11/2 203/11/2 205/11/2
f 206/11/2 207/11/2 209/11/2
f 207/8/2 208/8/2 209/8/2
f 209/8/2 208/8/2 210/8/2
f 206/11/2 209/11/2 212/11/2
f 209/11/2 210/11/2 212/11/2
f 212/11/2 210/11/2 213/11/2
f 211/4/2 212/4/2 213/4/2
f 213/11/2 210/11/2 214/11/2
f 211/4/2 213/4/2 215/4/2
f 215/4/2 213/4/2 216/4/2
f 221/11/3 220/11/3 219/11/3
f 223/11/3 218/11/3 217/11/3
f 224/11/3 218/11/3 223/11/3
f 225/11/3 221/11/3 219/11/3
f 226/11/3 221/11/3 225/11/3
f 227/4/3 222/4/3 221/4/3
f 227/11/3 221/11/3 226/11/3
f 228/4/3 222/4/3 227/4/3
f 229/4/3 227/4/3 226/4/3
f 230/4/3 227/4/3 229/4/3
f 238/11/3 232/11/3 231/11/3
f 239/11/3 232/11/3 238/11/3
f 240/9/3 234/9/3 233/9/3
f 240/11/3 235/11/3 234/11/3
f 241/11/3 235/11/3 240/11/3
f 242/11/3 235/11/3 241/11/3
f 243/11/3 235/11/3 242/11/3
f 245/11/3 237/11/3 236/11/3
f 246/11/3 237/11/3 245/11/3
f 247/11/3 238/11/3 231/11/3
f 248/11/3 232/11/3 239/11/3
f 249/9/3 240/9/3 233/9/3
f 252/11/3 244/11/3 243/11/3
f 253/11/3 244/11/3 252/11/3
f 254/11/3 247/11/3 231/11/3
f 254/11/3 248/11/3 247/11/3
f 255/11/3 232/11/3 248/11/3
f 255/11/3 248/11/3 254/11/3
f 256/9/3 249/9/3 233/9/3
f 257/11/3 250/11/3 249/11/3
f 257/9/3 249/9/3 256/9/3
f 258/11/3 250/11/3 257/11/3
f 260/11/3 252/11/3 251/11/3
f 261/11/3 252/11/3 260/11/3
f 262/4/3 261/4/3 260/4/3
f 262/4/3 260/4/3 259/4/3
f 263/4/3 261/4/3 262/4/3
f 270/7/3 265/7/3 264/7/3
f 271/7/3 265/7/3 270/7/3
f 272/7/3 267/7/3 266/7/3
f 273/7/3 267/7/3 272/7/3
f 274/7/3 269/7/3 268/7/3
f 275/7/3 269/7/3 274/7/3
f 279/7/3 278/7/3 277/7/3
f 280/7/3 278/7/3 279/7/3
f 282/11/3 276/11/3 275/11/3
f 283/11/3 276/11/3 282/11/3
f 284/11/3 276/11/3 283/11/3
f 285/11/3 280/11/3 279/11/3
f 286/11/3 280/11/3 285/11/3
f 287/11/3 282/11/3 281/11/3
f 287/11/3 283/11/3 282/11/3
f 288/11/3 283/11/3 287/11/3
f 293/11/3 290/11/3 289/11/3
f 294/11/3 290/11/3 293/11/3
f 295/11/3 292/11/3 291/11/3
f 296/11/3 292/11/3 295/11/3
f 299/10/3 298/10/3 297/10/3
f 300/10/3 298/10/3 299/10/3
f 301/4/4 302/4/4 303/4/4
f 303/4/4 302/4/4 304/4/4
f 305/7/4 306/7/4 311/7/4
f 306/8/4 307/8/4 312/8/4
f 311/7/4 306/7/4 312/7/4
f 307/7/4 308/7/4 313/7/4
f 312/8/4 307/8/4 313/8/4
f 313/7/4 308/7/4 314/7/4
f 314/7/4 308/7/4 315/7/4
f 309/7/4 310/7/4 316/7/4
f 316/7/4 310/7/4 317/7/4
f 318/11/4 319/11/4 325/11/4
f 325/11/4 319/11/4 326/11/4
f 320/8/4 321/8/4 327/8/4
f 327/8/4 321/8/4 328/8/4
f 322/7/4 323/7/4 329/7/4
f 329/7/4 323/7/4 330/7/4
f 324/11/4 325/11/4 331/11/4
f 331/11/4 325/11/4 332/11/4
f 333/11/4 334/11/4 339/11/4
f 339/11/4 334/11/4 340/11/4
f 335/8/4 336/8/4 341/8/4
f 337/11/4 338/11/4 342/11/4
f 341/8/4 336/8/4 342/8/4
f 336/11/4 337/11/4 342/11/4
f 342/11/4 338/11/4 343/11/4
f 344/8/4 345/8/4 350/8/4
f 350/8/4 345/8/4 351/8/4
f 351/8/4 345/8/4 352/8/4
f 352/8/4 345/8/4 353/8/4
f 345/11/4 346/11/4 354/11/4
f 353/8/4 345/8/4 354/8/4
f 354/11/4 346/11/4 355/11/4
f 355/11/4 346/11/4 356/11/4
f 348/11/4 349/11/4 357/11/4
f 347/8/4 348/8/4 357/8/4
f 357/11/4 349/11/4 358/11/4
f 358/11/4 349/11/4 359/11/4
f 350/11/4 351/11/4 362/11/4
f 360/10/4 361/10/4 363/10/4
f 363/10/4 361/10/4 364/10/4
f 350/11/4 362/11/4 365/11/4
f 355/8/4 356/8/4 367/8/4
f 367/8/4 356/8/4 368/8/4
f 347/8/4 357/8/4 369/8/4
f 359/11/4 349/11/4 371/11/4
f 365/11/4 366/11/4 372/11/4
f 367/11/4 368/11/4 372/11/4
f 350/11/4 365/11/4 372/11/4
f 366/11/4 367/11/4 372/11/4
f 372/11/4 368/11/4 373/11/4
f 369/8/4 370/8/4 374/8/4
f 347/8/4 369/8/4 374/8/4
f 370/11/4 371/11/4 375/11/4
f 374/8/4 370/8/4 375/8/4
f 371/11/4 349/11/4 376/11/4
f 375/11/4 371/11/4 376/11/4
f 377/8/4 378/8/4 384/8/4
f 378/11/4 379/11/4 385/11/4
f 384/8/4 378/8/4 385/8/4
f 379/8/4 380/8/4 386/8/4
f 385/11/4 379/11/4 386/11/4
f 386/8/4 380/8/4 387/8/4
f 384/11/4 385/11/4 388/11/4
f 385/11/4 386/11/4 388/11/4
f 386/11/4 387/11/4 388/11/4
f 387/8/4 380/8/4 389/8/4
f 388/11/4 387/11/4 389/11/4
f 389/8/4 380/8/4 390/8/4
f 381/8/4 382/8/4 391/8/4
f 382/11/4 383/11/4 392/11/4
f 391/8/4 382/8/4 392/8/4
f 392/11/4 383/11/4 393/11/4
f 394/11/4 395/11/4 396/11/4
f 396/11/4 395/11/4 397/11/4
f 397/11/4 398/11/4 400/11/4
f 400/11/4 398/11/4 401/11/4
f 399/11/4 400/11/4 402/11/4
f 402/11/4 400/11/4 403/11/4
f 404/11/4 405/11/4 406/11/4
f 406/11/4 405/11/4 407/11/4
f 411/11/5 409/11/5 408/11/5
f 412/11/5 409/11/5 411/11/5
f 414/10/5 412/10/5 411/10/5
f 415/11/5 413/11/5 412/11/5
f 415/10/5 412/10/5 414/10/5
f 416/10/5 414/10/5 411/10/5
f 416/6/5 415/6/5 414/6/5
f 417/11/5 413/11/5 415/11/5
f 417/6/5 415/6/5 416/6/5
f 418/10/5 416/10/5 411/10/5
f 418/10/5 417/10/5 416/10/5
f 419/11/5 413/11/5 417/11/5
f 419/10/5 417/10/5 418/10/5
f 420/10/5 418/10/5 411/10/5
f 421/11/5 413/11/5 419/11/5
f 422/7/5 411/7/5 410/7/5
f 423/10/5 421/10/5 420/10/5
f 423/7/5 411/7/5 422/7/5
f 423/10/5 420/10/5 411/10/5
f 424/11/5 423/11/5 422/11/5
f 425/10/5 421/10/5 423/10/5
f 425/11/5 423/11/5 424/11/5
f 426/11/5 413/11/5 421/11/5
f 426/10/5 421/10/5 425/10/5
f 427/11/5 413/11/5 426/11/5
f 428/11/5 426/11/5 425/11/5
f 429/11/5 426/11/5 428/11/5
f 432/10/5 431/10/5 430/10/5
f 433/10/5 431/10/5 432/10/5
f 436/11/5 435/11/5 434/11/5
f 437/11/5 435/11/5 436/11/5
f 438/11/5 435/11/5 437/11/5
f 439/7/5 437/7/5 436/7/5
f 440/7/5 437/7/5 439/7/5
f 441/11/5 435/11/5 438/11/5
f 442/8/5 440/8/5 439/8/5
f 443/11/5 441/11/5 440/11/5
f 443/8/5 440/8/5 442/8/5
f 444/11/5 435/11/5 441/11/5
f 444/11/5 441/11/5 443/11/5
f 447/11/5 446/11/5 445/11/5
f 448/11/5 446/11/5 447/11/5
f 453/7/5 450/7/5 449/7/5
f 454/7/5 450/7/5 453/7/5
f 455/11/5 452/11/5 451/11/5
f 456/11/5 452/11/5 455/11/5
f 460/8/5 458/8/5 457/8/5
f 461/11/5 459/11/5 458/11/5
f 461/8/5 458/8/5 460/8/5
f 462/11/5 459/11/5 461/11/5
f 465/9/5 464/9/5 463/9/5
f 466/9/5 464/9/5 465/9/5
f 467/9/5 464/9/5 466/9/5
f 468/9/5 464/9/5 467/9/5
f 469/9/5 464/9/5 468/9/5
f 470/7/5 466/7/5 465/7/5
f 471/1/5 469/1/5 468/1/5
f 472/7/5 470/7/5 465/7/5
f 473/7/5 470/7/5 472/7/5
f 474/1/5 469/1/5 471/1/5
f 475/1/5 469/1/5 474/1/5
f 476/8/5 473/8/5 472/8/5
f 476/8/5 474/8/5 473/8/5
f 476/8/5 475/8/5 474/8/5
f 477/8/5 475/8/5 476/8/5
f 480/11/5 479/11/5 478/11/5
f 481/11/5 479/11/5 480/11/5
f 486/11/5 485/11/5 484/11/5
f 487/11/5 485/11/5 486/11/5
f 488/7/5 483/7/5 482/7/5
f 489/7/5 483/7/5 488/7/5
f 490/8/5 487/8/5 486/8/5
f 491/8/5 487/8/5 490/8/5
f 494/8/5 493/8/5 492/8/5
f 495/8/5 493/8/5 494/8/5
f 498/4/5 497/4/5 496/4/5
f 499/4/5 497/4/5 498/4/5
f 502/4/5 501/4/5 500/4/5
f 503/4/5 501/4/5 502/4/5
f 504/11/6 505/11/6 507/11/6
f 507/11/6 505/11/6 508/11/6
f 506/7/6 507/7/6 509/7/6
f 509/7/6 507/7/6 510/7/6
f 509/8/6 510/8/6 511/8/6
f 511/8/6 510/8/6 512/8/6
f 511/7/6 512/7/6 515/7/6
f 511/7/6 515/7/6 516/7/6
f 511/7/6 516/7/6 517/7/6
f 517/7/6 516/7/6 518/7/6
f 517/11/6 518/11/6 519/11/6
f 519/11/6 518/11/6 520/11/6
f 513/11/6 514/11/6 521/11/6
f 521/11/6 514/11/6 522/11/6
f 520/11/6 521/11/6 523/11/6
f 523/11/6 521/11/6 524/11/6
f 525/11/6 526/11/6 528/11/6
f 528/11/6 526/11/6 529/11/6
f 527/11/6 528/11/6 530/11/6
f 530/11/6 528/11/6 531/11/6
f 530/8/6 531/8/6 532/8/6
f 531/11/6 528/11/6 533/11/6
f 532/8/6 531/8/6 533/8/6
f 532/11/6 533/11/6 534/11/6
f 533/11/6 528/11/6 535/11/6
f 534/11/6 533/11/6 535/11/6
f 536/11/6 537/11/6 538/11/6
f 538/11/6 537/11/6 539/11/6
f 540/7/6 541/7/6 544/7/6
f 544/7/6 541/7/6 545/7/6
f 542/11/6 543/11/6 546/11/6
f 546/11/6 543/11/6 547/11/6
f 548/8/6 549/8/6 550/8/6
f 550/8/6 549/8/6 551/8/6
f 552/11/6 553/11/6 554/11/6
f 554/11/6 553/11/6 555/11/6
f 555/11/6 553/11/6 556/11/6
f 556/11/6 553/11/6 557/11/6
f 554/7/6 555/7/6 558/7/6
f 557/11/6 553/11/6 559/11/6
f 554/7/6 558/7/6 560/7/6
f 560/7/6 558/7/6 561/7/6
f 559/11/6 553/11/6 562/11/6
f 560/11/6 561/11/6 563/11/6
f 561/8/6 562/8/6 564/8/6
f 563/11/6 561/11/6 564/11/6
f 562/11/6 553/11/6 565/11/6
f 564/8/6 562/8/6 565/8/6
f 565/11/6 553/11/6 566/11/6
f 567/11/6 568/11/6 571/11/6
f 571/11/6 568/11/6 572/11/6
f 569/4/6 570/4/6 573/4/6
f 573/4/6 570/4/6 574/4/6
f 575/7/6 576/7/6 579/7/6
f 579/7/6 576/7/6 580/7/6
f 577/11/6 578/11/6 581/11/6
f 581/11/6 578/11/6 582/11/6
f 583/11/6 584/11/6 585/11/6
f 585/11/6 584/11/6 586/11/6
f 587/4/6 588/4/6 590/4/6
f 590/4/6 588/4/6 591/4/6
f 589/11/6 590/11/6 594/11/6
f 594/11/6 590/11/6 595/11/6
f 591/11/6 592/11/6 596/11/6
f 592/4/6 593/4/6 597/4/6
f 596/11/6 592/11/6 597/11/6
f 597/4/6 593/4/6 598/4/6
f 594/7/6 595/7/6 599/7/6
f 599/7/6 595/7/6 600/7/6
f 596/11/6 597/11/6 601/11/6
f 599/11/6 600/11/6 602/11/6
f 600/11/6 601/11/6 602/11/6
f 601/11/6 597/11/6 603/11/6
f 602/11/6 601/11/6 603/11/6
f 604/11/6 605/11/6 606/11/6
f 606/11/6 605/11/6 607/11/6
f 606/7/6 607/7/6 608/7/6
f 608/7/6 607/7/6 609/7/6
