# MagicaVoxel @ Ephtracy

# group
o 

# material
mtllib Walking Zombie-3.mtl
usemtl palette

# normals
vn -1 0 0
vn 1 0 0
vn 0 0 1
vn 0 0 -1
vn 0 -1 0
vn 0 1 0

# texcoords
vt 0.146484 0.5
vt 0.306641 0.5
vt 0.431641 0.5
vt 0.583984 0.5
vt 0.595703 0.5
vt 0.771484 0.5
vt 0.837891 0.5
vt 0.841797 0.5
vt 0.873047 0.5
vt 0.923828 0.5
vt 0.990234 0.5

# verts
v 0.1 0.6 0.8
v 0.1 0.6 0.6
v 0.1 1.7 0.8
v 0.1 1.7 0.6
v 0.1 2 0.8
v 0.1 2 0.7
v 0.1 2 0.6
v 0.1 2.1 0.8
v 0.1 2.1 0.7
v 0.1 3 0.8
v 0.1 3 0.6
v 0.2 0.1 0.8
v 0.2 0.1 0.1
v 0.2 0.3 0.6
v 0.2 0.3 0.1
v 0.2 0.4 0.8
v 0.2 0.4 0.6
v 0.2 0.5 0.9
v 0.2 0.5 0.5
v 0.2 0.6 0.8
v 0.2 0.6 0.6
v 0.2 1.7 0.8
v 0.2 1.7 0.6
v 0.2 1.8 0.9
v 0.2 1.8 0.5
v 0.2 1.9 0.9
v 0.2 1.9 0.5
v 0.2 2 0.9
v 0.2 2 0.8
v 0.2 2 0.7
v 0.2 2 0.6
v 0.2 2 0.5
v 0.2 2.1 0.8
v 0.2 3 0.8
v 0.2 3 0.6
v 0.2 3.1 0.9
v 0.2 3.1 0.5
v 0.3 0.1 0.9
v 0.3 0.1 0.8
v 0.3 0.1 0.1
v 0.3 0.1 0
v 0.3 0.3 0.9
v 0.3 0.3 0.8
v 0.3 0.3 0.6
v 0.3 0.3 0.1
v 0.3 0.3 0
v 0.3 0.4 0.8
v 0.3 0.4 0.6
v 0.3 0.4 0.1
v 0.3 0.5 0.8
v 0.3 0.5 0.6
v 0.3 0.6 1
v 0.3 0.6 0.9
v 0.3 0.6 0.5
v 0.3 0.6 0.4
v 0.3 1.7 1
v 0.3 1.7 0.9
v 0.3 1.7 0.5
v 0.3 1.7 0.4
v 0.3 1.8 0.8
v 0.3 1.8 0.6
v 0.3 1.9 0.8
v 0.3 1.9 0.6
v 0.3 2 1
v 0.3 2 0.9
v 0.3 2 0.5
v 0.3 2 0.4
v 0.3 2.7 0.5
v 0.3 2.7 0.4
v 0.3 2.8 1.1
v 0.3 2.8 1
v 0.3 2.8 0.5
v 0.3 2.8 0.4
v 0.3 2.9 0.5
v 0.3 2.9 0.4
v 0.3 3 1.1
v 0.3 3 1
v 0.3 3 0.9
v 0.3 3 0.5
v 0.3 3 0.4
v 0.3 3.1 1
v 0.3 3.1 0.9
v 0.4 2.7 1.1
v 0.4 2.7 1
v 0.4 2.8 1.1
v 0.4 2.8 1
v 0.4 3.1 0.9
v 0.4 3.1 0.8
v 0.4 3.1 0.7
v 0.4 3.1 0.6
v 0.4 3.2 0.9
v 0.4 3.2 0.7
v 0.4 3.2 0.6
v 0.4 2.9 1.1
v 0.4 2.9 1
v 0.4 3 1.1
v 0.4 3 1
v 0.5 0.1 0.9
v 0.5 0.1 0.8
v 0.5 0.1 0.1
v 0.5 0.1 0
v 0.5 0.3 0.9
v 0.5 0.3 0.8
v 0.5 0.3 0.2
v 0.5 0.3 0.1
v 0.5 0.3 0
v 0.5 0.4 0.6
v 0.5 0.4 0.1
v 0.5 0.5 0.8
v 0.5 0.5 0.6
v 0.5 0.6 1
v 0.5 0.6 0.9
v 0.5 0.6 0.5
v 0.5 0.6 0.4
v 0.5 1.7 1
v 0.5 1.7 0.9
v 0.5 1.7 0.5
v 0.5 1.7 0.4
v 0.5 1.8 0.8
v 0.5 1.8 0.6
v 0.5 1.9 0.8
v 0.5 1.9 0.6
v 0.5 2 1
v 0.5 2 0.9
v 0.5 2 0.5
v 0.5 2 0.4
v 0.5 2.1 0.5
v 0.5 2.1 0.4
v 0.5 2.2 0.5
v 0.5 2.3 0.5
v 0.5 2.3 0.4
v 0.5 2.7 1.1
v 0.5 2.7 1
v 0.5 2.7 0.9
v 0.5 2.7 0.5
v 0.5 2.7 0.4
v 0.5 2.8 1
v 0.5 2.8 0.9
v 0.5 2.9 1.1
v 0.5 2.9 1
v 0.5 3 1
v 0.5 3 0.9
v 0.5 3 0.5
v 0.5 3 0.4
v 0.5 3.1 0.7
v 0.5 3.1 0.6
v 0.5 3.2 0.7
v 0.5 3.2 0.6
v 0.6 0.1 0.8
v 0.6 0.1 0.2
v 0.6 0.1 0.1
v 0.6 0.3 0.8
v 0.6 0.3 0.2
v 0.6 0.3 0.1
v 0.6 0.5 0.9
v 0.6 0.5 0.8
v 0.6 0.5 0.6
v 0.6 0.5 0.5
v 0.6 0.6 0.8
v 0.6 0.6 0.6
v 0.6 1.7 0.8
v 0.6 1.7 0.6
v 0.6 1.8 0.9
v 0.6 1.8 0.8
v 0.6 1.8 0.6
v 0.6 1.8 0.5
v 0.6 1.9 0.9
v 0.6 1.9 0.8
v 0.6 1.9 0.6
v 0.6 1.9 0.5
v 0.6 2 0.9
v 0.6 2 0.8
v 0.6 2 0.7
v 0.6 2 0.6
v 0.6 2 0.5
v 0.6 2.1 0.6
v 0.6 2.1 0.5
v 0.6 2.2 0.6
v 0.6 2.2 0.5
v 0.6 2.3 0.6
v 0.6 2.3 0.5
v 0.6 2.4 0.6
v 0.6 2.6 0.9
v 0.6 2.6 0.8
v 0.6 2.6 0.6
v 0.6 2.7 1
v 0.6 2.7 0.9
v 0.6 2.8 1
v 0.6 2.8 0.9
v 0.6 2.8 0.8
v 0.6 2.9 0.9
v 0.6 2.9 0.8
v 0.6 3 1
v 0.6 3 0.9
v 0.6 3 0.7
v 0.6 3 0.6
v 0.6 3.1 1
v 0.6 3.1 0.9
v 0.6 3.1 0.8
v 0.6 3.1 0.7
v 0.6 3.1 0.5
v 0.6 3.2 0.8
v 0.6 3.2 0.7
v 0.7 0.6 0.8
v 0.7 0.6 0.6
v 0.7 1.7 0.8
v 0.7 1.7 0.6
v 0.7 2 0.8
v 0.7 2 0.7
v 0.7 2 0.6
v 0.7 2.1 0.7
v 0.7 2.1 0.6
v 0.7 2.2 0.7
v 0.7 2.2 0.6
v 0.7 2.4 0.7
v 0.7 2.4 0.6
v 0.7 2.6 0.9
v 0.7 2.6 0.8
v 0.7 2.6 0.7
v 0.7 2.6 0.6
v 0.7 2.8 0.9
v 0.7 2.8 0.8
v 0.7 2.9 0.9
v 0.7 2.9 0.8
v 0.7 2.9 0.7
v 0.7 2.9 0.6
v 0.7 3 0.8
v 0.7 3 0.7
v 0.7 3.1 0.8
v 0.7 3.1 0.7
v 0.7 3.2 0.9
v 0.7 3.2 0.8
v 0.8 2.9 0.7
v 0.8 2.9 0.6
v 0.8 3 0.7
v 0.8 3 0.6
v 0.3 2.8 1.1
v 0.3 3 1.1
v 0.4 2.7 1.1
v 0.4 2.8 1.1
v 0.4 2.9 1.1
v 0.4 3 1.1
v 0.5 2.7 1.1
v 0.5 2.9 1.1
v 0.3 0.6 1
v 0.3 1.7 1
v 0.3 2 1
v 0.3 2.8 1
v 0.3 3 1
v 0.3 3.1 1
v 0.4 2.7 1
v 0.4 2.8 1
v 0.4 2.9 1
v 0.4 3 1
v 0.5 0.6 1
v 0.5 1.7 1
v 0.5 2 1
v 0.5 2.7 1
v 0.5 2.8 1
v 0.5 2.9 1
v 0.5 3 1
v 0.6 2.7 1
v 0.6 2.8 1
v 0.6 3 1
v 0.6 3.1 1
v 0.2 0.5 0.9
v 0.2 1.8 0.9
v 0.2 1.9 0.9
v 0.2 2 0.9
v 0.2 3.1 0.9
v 0.3 0.1 0.9
v 0.3 0.3 0.9
v 0.3 0.6 0.9
v 0.3 1.7 0.9
v 0.3 2 0.9
v 0.3 3 0.9
v 0.3 3.1 0.9
v 0.4 3.1 0.9
v 0.4 3.2 0.9
v 0.5 0.1 0.9
v 0.5 0.3 0.9
v 0.5 0.6 0.9
v 0.5 1.7 0.9
v 0.5 2 0.9
v 0.5 2.7 0.9
v 0.5 2.8 0.9
v 0.5 3 0.9
v 0.6 0.5 0.9
v 0.6 1.8 0.9
v 0.6 1.9 0.9
v 0.6 2 0.9
v 0.6 2.6 0.9
v 0.6 2.7 0.9
v 0.6 2.8 0.9
v 0.6 2.9 0.9
v 0.6 3 0.9
v 0.6 3.1 0.9
v 0.7 2.6 0.9
v 0.7 2.8 0.9
v 0.7 2.9 0.9
v 0.7 3.2 0.9
v 0.1 0.6 0.8
v 0.1 1.7 0.8
v 0.1 2 0.8
v 0.1 2.1 0.8
v 0.1 3 0.8
v 0.2 0.1 0.8
v 0.2 0.4 0.8
v 0.2 0.6 0.8
v 0.2 1.7 0.8
v 0.2 2 0.8
v 0.2 2.1 0.8
v 0.2 3 0.8
v 0.3 0.1 0.8
v 0.3 0.3 0.8
v 0.3 0.4 0.8
v 0.3 0.5 0.8
v 0.3 1.8 0.8
v 0.3 1.9 0.8
v 0.4 1.8 0.8
v 0.4 1.9 0.8
v 0.5 0.1 0.8
v 0.5 0.3 0.8
v 0.5 0.5 0.8
v 0.5 1.8 0.8
v 0.5 1.9 0.8
v 0.6 0.1 0.8
v 0.6 0.3 0.8
v 0.6 0.6 0.8
v 0.6 1.7 0.8
v 0.6 2 0.8
v 0.6 2.6 0.8
v 0.6 2.8 0.8
v 0.6 2.9 0.8
v 0.7 0.6 0.8
v 0.7 1.7 0.8
v 0.7 2 0.8
v 0.7 2.6 0.8
v 0.7 2.8 0.8
v 0.7 2.9 0.8
v 0.7 2.9 0.7
v 0.7 3 0.7
v 0.8 2.9 0.7
v 0.8 3 0.7
v 0.6 3.1 0.8
v 0.6 3.2 0.8
v 0.7 3.1 0.8
v 0.7 3.2 0.8
v 0.5 3.1 0.7
v 0.5 3.2 0.7
v 0.6 3 0.7
v 0.6 3.1 0.7
v 0.6 3.2 0.7
v 0.7 3 0.7
v 0.7 3.1 0.7
v 0.1 0.6 0.6
v 0.1 1.7 0.6
v 0.1 2 0.6
v 0.1 3 0.6
v 0.2 0.3 0.6
v 0.2 0.4 0.6
v 0.2 0.6 0.6
v 0.2 1.7 0.6
v 0.2 2 0.6
v 0.2 3 0.6
v 0.3 0.3 0.6
v 0.3 0.4 0.6
v 0.3 0.5 0.6
v 0.3 1.8 0.6
v 0.3 1.9 0.6
v 0.4 1.8 0.6
v 0.4 1.9 0.6
v 0.4 3.1 0.6
v 0.4 3.2 0.6
v 0.5 0.4 0.6
v 0.5 0.5 0.6
v 0.5 1.8 0.6
v 0.5 1.9 0.6
v 0.5 3.1 0.6
v 0.5 3.2 0.6
v 0.6 0.6 0.6
v 0.6 1.7 0.6
v 0.6 2 0.6
v 0.6 2.1 0.6
v 0.6 2.2 0.6
v 0.6 2.3 0.6
v 0.6 2.4 0.6
v 0.6 2.6 0.6
v 0.6 3 0.6
v 0.7 0.6 0.6
v 0.7 1.7 0.6
v 0.7 2 0.6
v 0.7 2.1 0.6
v 0.7 2.2 0.6
v 0.7 2.4 0.6
v 0.7 2.6 0.6
v 0.7 2.9 0.6
v 0.7 3 0.6
v 0.8 2.9 0.6
v 0.8 3 0.6
v 0.2 0.5 0.5
v 0.2 1.8 0.5
v 0.2 1.9 0.5
v 0.2 2 0.5
v 0.2 3.1 0.5
v 0.3 0.6 0.5
v 0.3 1.7 0.5
v 0.3 2 0.5
v 0.3 2.7 0.5
v 0.3 2.8 0.5
v 0.3 2.9 0.5
v 0.3 3 0.5
v 0.3 3.1 0.5
v 0.5 0.6 0.5
v 0.5 1.7 0.5
v 0.5 2 0.5
v 0.5 2.1 0.5
v 0.5 2.2 0.5
v 0.5 2.3 0.5
v 0.5 2.7 0.5
v 0.5 3 0.5
v 0.6 0.5 0.5
v 0.6 1.8 0.5
v 0.6 1.9 0.5
v 0.6 2 0.5
v 0.6 2.1 0.5
v 0.6 2.2 0.5
v 0.6 2.3 0.5
v 0.6 3.1 0.5
v 0.3 0.6 0.4
v 0.3 1.7 0.4
v 0.3 2 0.4
v 0.3 2.7 0.4
v 0.3 2.8 0.4
v 0.3 2.9 0.4
v 0.3 3 0.4
v 0.4 2.1 0.4
v 0.4 2.3 0.4
v 0.4 2.8 0.4
v 0.4 2.9 0.4
v 0.5 0.6 0.4
v 0.5 1.7 0.4
v 0.5 2 0.4
v 0.5 2.1 0.4
v 0.5 2.3 0.4
v 0.5 2.7 0.4
v 0.5 3 0.4
v 0.2 0.1 0.1
v 0.2 0.3 0.1
v 0.3 0.1 0.1
v 0.3 0.3 0.1
v 0.3 0.4 0.1
v 0.5 0.1 0.1
v 0.5 0.3 0.1
v 0.5 0.4 0.1
v 0.6 0.1 0.1
v 0.6 0.3 0.1
v 0.3 0.1 0
v 0.3 0.3 0
v 0.5 0.1 0
v 0.5 0.3 0
v 0.3 0.1 0.9
v 0.5 0.1 0.9
v 0.2 0.1 0.8
v 0.3 0.1 0.8
v 0.5 0.1 0.8
v 0.6 0.1 0.8
v 0.5 0.1 0.2
v 0.6 0.1 0.2
v 0.2 0.1 0.1
v 0.3 0.1 0.1
v 0.5 0.1 0.1
v 0.6 0.1 0.1
v 0.3 0.1 0
v 0.5 0.1 0
v 0.2 0.5 0.9
v 0.6 0.5 0.9
v 0.3 0.5 0.8
v 0.5 0.5 0.8
v 0.6 0.5 0.8
v 0.3 0.5 0.6
v 0.5 0.5 0.6
v 0.6 0.5 0.6
v 0.2 0.5 0.5
v 0.6 0.5 0.5
v 0.3 0.6 1
v 0.5 0.6 1
v 0.3 0.6 0.9
v 0.5 0.6 0.9
v 0.1 0.6 0.8
v 0.2 0.6 0.8
v 0.6 0.6 0.8
v 0.7 0.6 0.8
v 0.1 0.6 0.6
v 0.2 0.6 0.6
v 0.6 0.6 0.6
v 0.7 0.6 0.6
v 0.3 0.6 0.5
v 0.5 0.6 0.5
v 0.3 0.6 0.4
v 0.5 0.6 0.4
v 0.2 1.9 0.9
v 0.6 1.9 0.9
v 0.3 1.9 0.8
v 0.4 1.9 0.8
v 0.5 1.9 0.8
v 0.6 1.9 0.8
v 0.3 1.9 0.6
v 0.4 1.9 0.6
v 0.5 1.9 0.6
v 0.6 1.9 0.6
v 0.2 1.9 0.5
v 0.6 1.9 0.5
v 0.3 2 1
v 0.5 2 1
v 0.3 2 0.9
v 0.5 2 0.9
v 0.1 2 0.8
v 0.2 2 0.8
v 0.6 2 0.8
v 0.7 2 0.8
v 0.1 2 0.7
v 0.2 2 0.7
v 0.6 2 0.7
v 0.7 2 0.7
v 0.1 2 0.6
v 0.2 2 0.6
v 0.6 2 0.6
v 0.7 2 0.6
v 0.3 2 0.5
v 0.5 2 0.5
v 0.3 2 0.4
v 0.5 2 0.4
v 0.6 2.6 0.9
v 0.7 2.6 0.9
v 0.6 2.6 0.8
v 0.7 2.6 0.8
v 0.4 2.7 1.1
v 0.5 2.7 1.1
v 0.4 2.7 1
v 0.5 2.7 1
v 0.6 2.7 1
v 0.5 2.7 0.9
v 0.6 2.7 0.9
v 0.3 2.8 1.1
v 0.4 2.8 1.1
v 0.3 2.8 1
v 0.4 2.8 1
v 0.6 2.9 0.9
v 0.7 2.9 0.9
v 0.6 2.9 0.8
v 0.7 2.9 0.8
v 0.7 2.9 0.7
v 0.8 2.9 0.7
v 0.7 2.9 0.6
v 0.8 2.9 0.6
v 0.5 3 1
v 0.6 3 1
v 0.5 3 0.9
v 0.6 3 0.9
v 0.3 0.3 0.9
v 0.5 0.3 0.9
v 0.3 0.3 0.8
v 0.5 0.3 0.8
v 0.6 0.3 0.8
v 0.2 0.3 0.6
v 0.3 0.3 0.6
v 0.5 0.3 0.2
v 0.6 0.3 0.2
v 0.2 0.3 0.1
v 0.3 0.3 0.1
v 0.5 0.3 0.1
v 0.6 0.3 0.1
v 0.3 0.3 0
v 0.5 0.3 0
v 0.2 0.4 0.8
v 0.3 0.4 0.8
v 0.2 0.4 0.6
v 0.3 0.4 0.6
v 0.5 0.4 0.6
v 0.3 0.4 0.1
v 0.5 0.4 0.1
v 0.3 1.7 1
v 0.5 1.7 1
v 0.3 1.7 0.9
v 0.5 1.7 0.9
v 0.1 1.7 0.8
v 0.2 1.7 0.8
v 0.6 1.7 0.8
v 0.7 1.7 0.8
v 0.1 1.7 0.6
v 0.2 1.7 0.6
v 0.6 1.7 0.6
v 0.7 1.7 0.6
v 0.3 1.7 0.5
v 0.5 1.7 0.5
v 0.3 1.7 0.4
v 0.5 1.7 0.4
v 0.2 1.8 0.9
v 0.6 1.8 0.9
v 0.3 1.8 0.8
v 0.4 1.8 0.8
v 0.5 1.8 0.8
v 0.6 1.8 0.8
v 0.3 1.8 0.6
v 0.4 1.8 0.6
v 0.5 1.8 0.6
v 0.6 1.8 0.6
v 0.2 1.8 0.5
v 0.6 1.8 0.5
v 0.5 2.8 1
v 0.6 2.8 1
v 0.5 2.8 0.9
v 0.6 2.8 0.9
v 0.7 2.8 0.9
v 0.6 2.8 0.8
v 0.7 2.8 0.8
v 0.4 2.9 1.1
v 0.5 2.9 1.1
v 0.4 2.9 1
v 0.5 2.9 1
v 0.3 3 1.1
v 0.4 3 1.1
v 0.3 3 1
v 0.4 3 1
v 0.1 3 0.8
v 0.2 3 0.8
v 0.6 3 0.7
v 0.7 3 0.7
v 0.8 3 0.7
v 0.1 3 0.6
v 0.2 3 0.6
v 0.6 3 0.6
v 0.7 3 0.6
v 0.8 3 0.6
v 0.3 3 0.5
v 0.5 3 0.5
v 0.3 3 0.4
v 0.5 3 0.4
v 0.3 3.1 1
v 0.6 3.1 1
v 0.2 3.1 0.9
v 0.3 3.1 0.9
v 0.4 3.1 0.9
v 0.6 3.1 0.9
v 0.3 3.1 0.8
v 0.4 3.1 0.8
v 0.6 3.1 0.8
v 0.7 3.1 0.8
v 0.3 3.1 0.7
v 0.4 3.1 0.7
v 0.5 3.1 0.7
v 0.6 3.1 0.7
v 0.7 3.1 0.7
v 0.3 3.1 0.6
v 0.4 3.1 0.6
v 0.5 3.1 0.6
v 0.2 3.1 0.5
v 0.3 3.1 0.5
v 0.6 3.1 0.5
v 0.4 3.2 0.9
v 0.7 3.2 0.9
v 0.6 3.2 0.8
v 0.7 3.2 0.8
v 0.4 3.2 0.7
v 0.5 3.2 0.7
v 0.6 3.2 0.7
v 0.4 3.2 0.6
v 0.5 3.2 0.6

# faces
f 3/11/1 2/11/1 1/11/1
f 4/11/1 2/11/1 3/11/1
f 8/8/1 6/8/1 5/8/1
f 9/11/1 7/11/1 6/11/1
f 9/8/1 6/8/1 8/8/1
f 10/11/1 9/11/1 8/11/1
f 11/11/1 7/11/1 9/11/1
f 11/11/1 9/11/1 10/11/1
f 14/11/1 13/11/1 12/11/1
f 15/11/1 13/11/1 14/11/1
f 16/11/1 14/11/1 12/11/1
f 17/11/1 14/11/1 16/11/1
f 20/11/1 19/11/1 18/11/1
f 21/11/1 19/11/1 20/11/1
f 22/11/1 20/11/1 18/11/1
f 23/11/1 19/11/1 21/11/1
f 24/11/1 22/11/1 18/11/1
f 24/11/1 23/11/1 22/11/1
f 25/11/1 19/11/1 23/11/1
f 25/11/1 23/11/1 24/11/1
f 28/9/1 27/9/1 26/9/1
f 29/9/1 27/9/1 28/9/1
f 30/9/1 27/9/1 29/9/1
f 31/9/1 27/9/1 30/9/1
f 32/9/1 27/9/1 31/9/1
f 33/11/1 29/11/1 28/11/1
f 34/11/1 33/11/1 28/11/1
f 35/11/1 32/11/1 31/11/1
f 36/11/1 34/11/1 28/11/1
f 36/11/1 35/11/1 34/11/1
f 37/11/1 32/11/1 35/11/1
f 37/11/1 35/11/1 36/11/1
f 42/11/1 39/11/1 38/11/1
f 43/11/1 39/11/1 42/11/1
f 45/11/1 41/11/1 40/11/1
f 46/11/1 41/11/1 45/11/1
f 48/11/1 45/11/1 44/11/1
f 49/11/1 45/11/1 48/11/1
f 50/11/1 48/11/1 47/11/1
f 51/11/1 48/11/1 50/11/1
f 56/11/1 53/11/1 52/11/1
f 57/11/1 53/11/1 56/11/1
f 58/11/1 55/11/1 54/11/1
f 59/11/1 55/11/1 58/11/1
f 62/11/1 61/11/1 60/11/1
f 63/11/1 61/11/1 62/11/1
f 68/11/1 67/11/1 66/11/1
f 69/11/1 67/11/1 68/11/1
f 71/11/1 65/11/1 64/11/1
f 72/8/1 69/8/1 68/8/1
f 73/8/1 69/8/1 72/8/1
f 74/11/1 73/11/1 72/11/1
f 75/11/1 73/11/1 74/11/1
f 76/4/1 71/4/1 70/4/1
f 77/11/1 65/11/1 71/11/1
f 77/4/1 71/4/1 76/4/1
f 78/11/1 65/11/1 77/11/1
f 79/8/1 75/8/1 74/8/1
f 80/8/1 75/8/1 79/8/1
f 81/4/1 78/4/1 77/4/1
f 82/4/1 78/4/1 81/4/1
f 85/4/1 84/4/1 83/4/1
f 86/4/1 84/4/1 85/4/1
f 91/4/1 88/4/1 87/4/1
f 91/4/1 89/4/1 88/4/1
f 92/8/1 90/8/1 89/8/1
f 92/4/1 89/4/1 91/4/1
f 93/8/1 90/8/1 92/8/1
f 94/4/2 95/4/2 96/4/2
f 96/4/2 95/4/2 97/4/2
f 98/11/2 99/11/2 102/11/2
f 102/11/2 99/11/2 103/11/2
f 100/11/2 101/11/2 105/11/2
f 105/11/2 101/11/2 106/11/2
f 103/11/2 104/11/2 107/11/2
f 104/11/2 105/11/2 107/11/2
f 107/11/2 105/11/2 108/11/2
f 103/11/2 107/11/2 109/11/2
f 109/11/2 107/11/2 110/11/2
f 111/11/2 112/11/2 115/11/2
f 115/11/2 112/11/2 116/11/2
f 113/11/2 114/11/2 117/11/2
f 117/11/2 114/11/2 118/11/2
f 119/7/2 120/7/2 121/7/2
f 121/7/2 120/7/2 122/7/2
f 125/11/2 126/11/2 127/11/2
f 127/11/2 126/11/2 128/11/2
f 127/8/2 128/8/2 129/8/2
f 129/8/2 128/8/2 130/8/2
f 130/8/2 128/8/2 131/8/2
f 123/11/2 124/11/2 133/11/2
f 133/11/2 124/11/2 134/11/2
f 130/11/2 131/11/2 135/11/2
f 135/11/2 131/11/2 136/11/2
f 132/4/2 133/4/2 137/4/2
f 132/4/2 137/4/2 139/4/2
f 137/11/2 138/11/2 140/11/2
f 139/4/2 137/4/2 140/4/2
f 140/11/2 138/11/2 141/11/2
f 141/11/2 138/11/2 142/11/2
f 135/8/2 136/8/2 143/8/2
f 143/8/2 136/8/2 144/8/2
f 145/8/2 146/8/2 147/8/2
f 147/8/2 146/8/2 148/8/2
f 149/7/2 150/7/2 152/7/2
f 150/11/2 151/11/2 153/11/2
f 152/7/2 150/7/2 153/7/2
f 153/11/2 151/11/2 154/11/2
f 155/11/2 156/11/2 159/11/2
f 156/7/2 157/7/2 159/7/2
f 157/11/2 158/11/2 160/11/2
f 159/7/2 157/7/2 160/7/2
f 155/11/2 159/11/2 161/11/2
f 160/11/2 158/11/2 162/11/2
f 155/11/2 161/11/2 163/11/2
f 161/7/2 162/7/2 164/7/2
f 163/11/2 161/11/2 164/11/2
f 162/11/2 158/11/2 165/11/2
f 164/7/2 162/7/2 165/7/2
f 165/11/2 158/11/2 166/11/2
f 167/9/2 168/9/2 171/9/2
f 168/7/2 169/7/2 172/7/2
f 171/9/2 168/9/2 172/9/2
f 172/7/2 169/7/2 173/7/2
f 169/9/2 170/9/2 174/9/2
f 173/7/2 169/7/2 174/7/2
f 174/9/2 170/9/2 175/9/2
f 174/11/2 175/11/2 176/11/2
f 176/11/2 175/11/2 177/11/2
f 176/8/2 177/8/2 178/8/2
f 178/8/2 177/8/2 179/8/2
f 178/11/2 179/11/2 180/11/2
f 180/11/2 179/11/2 181/11/2
f 180/8/2 181/8/2 182/8/2
f 171/11/2 172/11/2 183/11/2
f 183/11/2 172/11/2 184/11/2
f 182/8/2 181/8/2 185/8/2
f 186/4/2 187/4/2 188/4/2
f 188/4/2 187/4/2 189/4/2
f 189/11/2 190/11/2 191/11/2
f 191/11/2 190/11/2 192/11/2
f 185/8/2 181/8/2 196/8/2
f 193/4/2 194/4/2 197/4/2
f 197/4/2 194/4/2 198/4/2
f 195/8/2 196/8/2 200/8/2
f 196/8/2 181/8/2 201/8/2
f 200/8/2 196/8/2 201/8/2
f 199/4/2 200/4/2 202/4/2
f 202/4/2 200/4/2 203/4/2
f 204/7/2 205/7/2 206/7/2
f 206/7/2 205/7/2 207/7/2
f 208/7/2 209/7/2 211/7/2
f 209/8/2 210/8/2 211/8/2
f 211/8/2 210/8/2 212/8/2
f 208/7/2 211/7/2 213/7/2
f 211/7/2 212/7/2 213/7/2
f 213/7/2 212/7/2 214/7/2
f 208/7/2 213/7/2 215/7/2
f 213/8/2 214/8/2 215/8/2
f 215/8/2 214/8/2 216/8/2
f 208/7/2 215/7/2 218/7/2
f 215/7/2 216/7/2 218/7/2
f 218/7/2 216/7/2 219/7/2
f 219/7/2 216/7/2 220/7/2
f 217/4/2 218/4/2 221/4/2
f 218/7/2 219/7/2 222/7/2
f 221/4/2 218/4/2 222/4/2
f 222/7/2 219/7/2 224/7/2
f 219/8/2 220/8/2 225/8/2
f 224/7/2 219/7/2 225/7/2
f 225/8/2 220/8/2 226/8/2
f 223/4/2 224/4/2 227/4/2
f 224/7/2 225/7/2 227/7/2
f 227/7/2 225/7/2 228/7/2
f 223/4/2 227/4/2 229/4/2
f 227/4/2 228/4/2 229/4/2
f 229/4/2 228/4/2 230/4/2
f 223/4/2 229/4/2 231/4/2
f 231/4/2 229/4/2 232/4/2
f 233/4/2 234/4/2 235/4/2
f 235/4/2 234/4/2 236/4/2
f 240/4/3 238/4/3 237/4/3
f 241/4/3 238/4/3 240/4/3
f 242/4/3 238/4/3 241/4/3
f 243/4/3 240/4/3 239/4/3
f 243/4/3 241/4/3 240/4/3
f 244/4/3 241/4/3 243/4/3
f 251/11/3 248/11/3 247/11/3
f 252/11/3 248/11/3 251/11/3
f 254/4/3 250/4/3 249/4/3
f 255/11/3 246/11/3 245/11/3
f 256/11/3 246/11/3 255/11/3
f 257/11/3 251/11/3 247/11/3
f 258/11/3 251/11/3 257/11/3
f 260/11/3 254/11/3 253/11/3
f 261/4/3 250/4/3 254/4/3
f 261/11/3 254/11/3 260/11/3
f 262/4/3 259/4/3 258/4/3
f 263/4/3 259/4/3 262/4/3
f 264/4/3 250/4/3 261/4/3
f 265/4/3 250/4/3 264/4/3
f 273/11/3 267/11/3 266/11/3
f 274/11/3 267/11/3 273/11/3
f 275/9/3 269/9/3 268/9/3
f 275/11/3 270/11/3 269/11/3
f 276/11/3 270/11/3 275/11/3
f 277/11/3 270/11/3 276/11/3
f 280/11/3 272/11/3 271/11/3
f 281/11/3 272/11/3 280/11/3
f 282/11/3 273/11/3 266/11/3
f 283/11/3 267/11/3 274/11/3
f 284/9/3 275/9/3 268/9/3
f 288/11/3 282/11/3 266/11/3
f 288/11/3 283/11/3 282/11/3
f 289/11/3 267/11/3 283/11/3
f 289/11/3 283/11/3 288/11/3
f 290/9/3 284/9/3 268/9/3
f 291/11/3 285/11/3 284/11/3
f 291/9/3 284/9/3 290/9/3
f 292/11/3 285/11/3 291/11/3
f 293/11/3 285/11/3 292/11/3
f 294/11/3 287/11/3 286/11/3
f 295/11/3 287/11/3 294/11/3
f 296/11/3 287/11/3 295/11/3
f 297/4/3 279/4/3 278/4/3
f 298/4/3 293/4/3 292/4/3
f 298/4/3 294/4/3 293/4/3
f 299/4/3 294/4/3 298/4/3
f 300/4/3 296/4/3 295/4/3
f 300/4/3 297/4/3 296/4/3
f 301/4/3 279/4/3 297/4/3
f 301/4/3 297/4/3 300/4/3
f 309/11/3 303/11/3 302/11/3
f 310/11/3 303/11/3 309/11/3
f 311/8/3 305/8/3 304/8/3
f 312/11/3 306/11/3 305/11/3
f 312/8/3 305/8/3 311/8/3
f 313/11/3 306/11/3 312/11/3
f 314/11/3 308/11/3 307/11/3
f 315/11/3 308/11/3 314/11/3
f 316/11/3 308/11/3 315/11/3
f 320/11/3 319/11/3 318/11/3
f 321/11/3 319/11/3 320/11/3
f 323/11/3 317/11/3 316/11/3
f 323/11/3 316/11/3 315/11/3
f 324/11/3 317/11/3 323/11/3
f 325/7/3 321/7/3 320/7/3
f 326/7/3 321/7/3 325/7/3
f 327/7/3 323/7/3 322/7/3
f 328/7/3 323/7/3 327/7/3
f 335/7/3 330/7/3 329/7/3
f 336/7/3 330/7/3 335/7/3
f 337/7/3 332/7/3 331/7/3
f 338/7/3 332/7/3 337/7/3
f 339/7/3 334/7/3 333/7/3
f 340/7/3 334/7/3 339/7/3
f 343/4/3 342/4/3 341/4/3
f 344/4/3 342/4/3 343/4/3
f 345/4/4 346/4/4 347/4/4
f 347/4/4 346/4/4 348/4/4
f 349/4/4 350/4/4 352/4/4
f 352/4/4 350/4/4 353/4/4
f 351/4/4 352/4/4 354/4/4
f 354/4/4 352/4/4 355/4/4
f 356/11/4 357/11/4 362/11/4
f 362/11/4 357/11/4 363/11/4
f 358/11/4 359/11/4 364/11/4
f 364/11/4 359/11/4 365/11/4
f 360/11/4 361/11/4 366/11/4
f 366/11/4 361/11/4 367/11/4
f 369/11/4 370/11/4 371/11/4
f 371/11/4 370/11/4 372/11/4
f 367/11/4 368/11/4 375/11/4
f 375/11/4 368/11/4 376/11/4
f 371/7/4 372/7/4 377/7/4
f 377/7/4 372/7/4 378/7/4
f 373/8/4 374/8/4 379/8/4
f 379/8/4 374/8/4 380/8/4
f 381/7/4 382/7/4 390/7/4
f 390/7/4 382/7/4 391/7/4
f 383/8/4 384/8/4 392/8/4
f 384/7/4 385/7/4 393/7/4
f 392/8/4 384/8/4 393/8/4
f 385/8/4 386/8/4 394/8/4
f 393/7/4 385/7/4 394/7/4
f 386/8/4 387/8/4 394/8/4
f 387/7/4 388/7/4 395/7/4
f 394/8/4 387/8/4 395/8/4
f 388/8/4 389/8/4 396/8/4
f 395/7/4 388/7/4 396/7/4
f 396/8/4 389/8/4 397/8/4
f 397/8/4 389/8/4 398/8/4
f 397/4/4 398/4/4 399/4/4
f 399/4/4 398/4/4 400/4/4
f 401/11/4 402/11/4 406/11/4
f 406/11/4 402/11/4 407/11/4
f 404/11/4 405/11/4 408/11/4
f 403/9/4 404/9/4 408/9/4
f 408/11/4 405/11/4 409/11/4
f 409/11/4 405/11/4 410/11/4
f 410/11/4 405/11/4 411/11/4
f 411/11/4 405/11/4 412/11/4
f 412/11/4 405/11/4 413/11/4
f 401/11/4 406/11/4 414/11/4
f 407/11/4 402/11/4 415/11/4
f 403/9/4 408/9/4 416/9/4
f 412/8/4 413/8/4 421/8/4
f 401/11/4 414/11/4 422/11/4
f 414/11/4 415/11/4 422/11/4
f 415/11/4 402/11/4 423/11/4
f 422/11/4 415/11/4 423/11/4
f 403/9/4 416/9/4 424/9/4
f 416/11/4 417/11/4 425/11/4
f 424/9/4 416/9/4 425/9/4
f 417/8/4 418/8/4 426/8/4
f 425/11/4 417/11/4 426/11/4
f 418/11/4 419/11/4 427/11/4
f 426/8/4 418/8/4 427/8/4
f 420/8/4 421/8/4 428/8/4
f 427/11/4 419/11/4 428/11/4
f 419/8/4 420/8/4 428/8/4
f 421/8/4 413/8/4 429/8/4
f 428/8/4 421/8/4 429/8/4
f 432/11/4 433/11/4 437/11/4
f 437/11/4 433/11/4 438/11/4
f 433/8/4 434/8/4 439/8/4
f 434/11/4 435/11/4 439/11/4
f 435/8/4 436/8/4 440/8/4
f 439/11/4 435/11/4 440/11/4
f 430/11/4 431/11/4 441/11/4
f 441/11/4 431/11/4 442/11/4
f 432/11/4 437/11/4 443/11/4
f 437/8/4 438/8/4 444/8/4
f 443/11/4 437/11/4 444/11/4
f 438/11/4 433/11/4 445/11/4
f 444/8/4 438/8/4 445/8/4
f 433/8/4 439/8/4 446/8/4
f 445/11/4 433/11/4 446/11/4
f 439/8/4 440/8/4 446/8/4
f 440/8/4 436/8/4 447/8/4
f 446/8/4 440/8/4 447/8/4
f 448/11/4 449/11/4 450/11/4
f 450/11/4 449/11/4 451/11/4
f 451/11/4 452/11/4 454/11/4
f 454/11/4 452/11/4 455/11/4
f 453/11/4 454/11/4 456/11/4
f 456/11/4 454/11/4 457/11/4
f 458/11/4 459/11/4 460/11/4
f 460/11/4 459/11/4 461/11/4
f 465/11/5 463/11/5 462/11/5
f 466/11/5 463/11/5 465/11/5
f 468/10/5 466/10/5 465/10/5
f 468/7/5 467/7/5 466/7/5
f 469/7/5 467/7/5 468/7/5
f 470/11/5 465/11/5 464/11/5
f 471/10/5 468/10/5 465/10/5
f 471/11/5 465/11/5 470/11/5
f 472/11/5 469/11/5 468/11/5
f 472/10/5 468/10/5 471/10/5
f 473/11/5 469/11/5 472/11/5
f 474/11/5 472/11/5 471/11/5
f 475/11/5 472/11/5 474/11/5
f 478/11/5 477/11/5 476/11/5
f 479/11/5 477/11/5 478/11/5
f 480/11/5 477/11/5 479/11/5
f 481/11/5 478/11/5 476/11/5
f 482/7/5 480/7/5 479/7/5
f 483/7/5 480/7/5 482/7/5
f 484/11/5 481/11/5 476/11/5
f 484/11/5 482/11/5 481/11/5
f 484/11/5 483/11/5 482/11/5
f 485/11/5 483/11/5 484/11/5
f 488/11/5 487/11/5 486/11/5
f 489/11/5 487/11/5 488/11/5
f 494/11/5 491/11/5 490/11/5
f 495/11/5 491/11/5 494/11/5
f 496/7/5 493/7/5 492/7/5
f 497/7/5 493/7/5 496/7/5
f 500/11/5 499/11/5 498/11/5
f 501/11/5 499/11/5 500/11/5
f 504/9/5 503/9/5 502/9/5
f 505/9/5 503/9/5 504/9/5
f 506/9/5 503/9/5 505/9/5
f 507/9/5 503/9/5 506/9/5
f 508/9/5 504/9/5 502/9/5
f 510/7/5 507/7/5 506/7/5
f 511/7/5 507/7/5 510/7/5
f 512/9/5 509/9/5 508/9/5
f 512/9/5 508/9/5 502/9/5
f 512/9/5 511/9/5 510/9/5
f 512/9/5 510/9/5 509/9/5
f 513/9/5 511/9/5 512/9/5
f 516/11/5 515/11/5 514/11/5
f 517/11/5 515/11/5 516/11/5
f 522/8/5 519/8/5 518/8/5
f 523/8/5 519/8/5 522/8/5
f 524/7/5 521/7/5 520/7/5
f 525/7/5 521/7/5 524/7/5
f 526/11/5 523/11/5 522/11/5
f 527/11/5 523/11/5 526/11/5
f 528/8/5 525/8/5 524/8/5
f 529/8/5 525/8/5 528/8/5
f 532/11/5 531/11/5 530/11/5
f 533/11/5 531/11/5 532/11/5
f 536/4/5 535/4/5 534/4/5
f 537/4/5 535/4/5 536/4/5
f 540/4/5 539/4/5 538/4/5
f 541/4/5 539/4/5 540/4/5
f 543/4/5 542/4/5 541/4/5
f 544/4/5 542/4/5 543/4/5
f 547/4/5 546/4/5 545/4/5
f 548/4/5 546/4/5 547/4/5
f 551/4/5 550/4/5 549/4/5
f 552/4/5 550/4/5 551/4/5
f 555/4/5 554/4/5 553/4/5
f 556/4/5 554/4/5 555/4/5
f 559/4/5 558/4/5 557/4/5
f 560/4/5 558/4/5 559/4/5
f 561/11/6 562/11/6 563/11/6
f 563/11/6 562/11/6 564/11/6
f 564/7/6 565/7/6 568/7/6
f 568/7/6 565/7/6 569/7/6
f 566/11/6 567/11/6 570/11/6
f 570/11/6 567/11/6 571/11/6
f 568/11/6 569/11/6 572/11/6
f 572/11/6 569/11/6 573/11/6
f 571/11/6 572/11/6 574/11/6
f 574/11/6 572/11/6 575/11/6
f 576/11/6 577/11/6 578/11/6
f 578/11/6 577/11/6 579/11/6
f 579/11/6 580/11/6 581/11/6
f 581/11/6 580/11/6 582/11/6
f 583/11/6 584/11/6 585/11/6
f 585/11/6 584/11/6 586/11/6
f 587/11/6 588/11/6 591/11/6
f 591/11/6 588/11/6 592/11/6
f 589/7/6 590/7/6 593/7/6
f 593/7/6 590/7/6 594/7/6
f 595/11/6 596/11/6 597/11/6
f 597/11/6 596/11/6 598/11/6
f 599/11/6 600/11/6 601/11/6
f 601/11/6 600/11/6 602/11/6
f 602/11/6 600/11/6 603/11/6
f 603/11/6 600/11/6 604/11/6
f 599/11/6 601/11/6 605/11/6
f 603/7/6 604/7/6 607/7/6
f 607/7/6 604/7/6 608/7/6
f 605/11/6 606/11/6 609/11/6
f 599/11/6 605/11/6 609/11/6
f 607/11/6 608/11/6 609/11/6
f 606/11/6 607/11/6 609/11/6
f 609/11/6 608/11/6 610/11/6
f 611/4/6 612/4/6 613/4/6
f 613/4/6 612/4/6 614/4/6
f 614/4/6 615/4/6 616/4/6
f 616/4/6 615/4/6 617/4/6
f 618/4/6 619/4/6 620/4/6
f 620/4/6 619/4/6 621/4/6
f 622/4/6 623/4/6 624/4/6
f 624/4/6 623/4/6 625/4/6
f 626/11/6 627/11/6 631/11/6
f 631/11/6 627/11/6 632/11/6
f 628/8/6 629/8/6 633/8/6
f 629/4/6 630/4/6 634/4/6
f 633/8/6 629/8/6 634/8/6
f 634/4/6 630/4/6 635/4/6
f 636/8/6 637/8/6 638/8/6
f 638/8/6 637/8/6 639/8/6
f 640/4/6 641/4/6 643/4/6
f 643/4/6 641/4/6 644/4/6
f 644/4/6 641/4/6 645/4/6
f 642/11/6 643/11/6 646/11/6
f 643/10/6 644/10/6 646/10/6
f 646/10/6 644/10/6 647/10/6
f 646/3/6 647/3/6 650/3/6
f 642/11/6 646/11/6 650/11/6
f 650/3/6 647/3/6 651/3/6
f 648/4/6 649/4/6 653/4/6
f 653/4/6 649/4/6 654/4/6
f 650/10/6 651/10/6 655/10/6
f 642/11/6 650/11/6 655/11/6
f 655/10/6 651/10/6 656/10/6
f 652/8/6 653/8/6 657/8/6
f 642/11/6 655/11/6 658/11/6
f 655/8/6 656/8/6 659/8/6
f 658/11/6 655/11/6 659/11/6
f 656/8/6 657/8/6 659/8/6
f 657/8/6 653/8/6 660/8/6
f 659/8/6 657/8/6 660/8/6
f 661/4/6 662/4/6 663/4/6
f 663/4/6 662/4/6 664/4/6
f 661/4/6 663/4/6 665/4/6
f 665/4/6 663/4/6 666/4/6
f 666/4/6 663/4/6 667/4/6
f 665/8/6 666/8/6 668/8/6
f 668/8/6 666/8/6 669/8/6
